<ttFont>
    <TTGlyph name=".notdef" xMin="92" yMin="0" xMax="1352" yMax="1291">
      <contour>
        <pt x="938" y="28" on="1"/>
        <pt x="1316" y="1263" on="1"/>
        <pt x="504" y="1263" on="1"/>
        <pt x="127" y="28" on="1"/>
      </contour>
      <contour>
        <pt x="487" y="1291" on="1"/>
        <pt x="1352" y="1291" on="1"/>
        <pt x="957" y="0" on="1"/>
        <pt x="92" y="0" on="1"/>
      </contour>
    </TTGlyph>
    <TTGlyph name="A" xMin="-178" yMin="-28" xMax="1503" yMax="1413">
      <contour>
        <pt x="-178" y="17" on="1"/>
        <pt x="-178" y="28" on="0"/>
        <pt x="-167" y="54" on="0"/>
        <pt x="-150" y="77" on="0"/>
        <pt x="-129" y="94" on="0"/>
        <pt x="-119" y="97" on="1"/>
        <pt x="-116" y="98" on="0"/>
        <pt x="-98" y="100" on="0"/>
        <pt x="-76" y="102" on="0"/>
        <pt x="-58" y="104" on="0"/>
        <pt x="-55" y="104" on="1"/>
        <pt x="-27" y="107" on="0"/>
        <pt x="37" y="130" on="0"/>
        <pt x="99" y="161" on="0"/>
        <pt x="157" y="196" on="0"/>
        <pt x="180" y="211" on="1"/>
        <pt x="181" y="212" on="0"/>
        <pt x="195" y="226" on="0"/>
        <pt x="214" y="244" on="0"/>
        <pt x="234" y="261" on="0"/>
        <pt x="241" y="266" on="1"/>
        <pt x="243" y="271" on="0"/>
        <pt x="256" y="285" on="0"/>
        <pt x="258" y="285" on="1"/>
        <pt x="270" y="302" on="0"/>
        <pt x="293" y="322" on="0"/>
        <pt x="318" y="338" on="0"/>
        <pt x="345" y="352" on="0"/>
        <pt x="362" y="363" on="1"/>
        <pt x="374" y="371" on="0"/>
        <pt x="393" y="396" on="0"/>
        <pt x="409" y="425" on="0"/>
        <pt x="424" y="455" on="0"/>
        <pt x="434" y="467" on="1"/>
        <pt x="460" y="499" on="0"/>
        <pt x="505" y="538" on="0"/>
        <pt x="536" y="559" on="1"/>
        <pt x="550" y="565" on="0"/>
        <pt x="562" y="591" on="0"/>
        <pt x="571" y="600" on="1"/>
        <pt x="586" y="610" on="0"/>
        <pt x="617" y="628" on="0"/>
        <pt x="647" y="648" on="0"/>
        <pt x="676" y="671" on="0"/>
        <pt x="689" y="687" on="1"/>
        <pt x="691" y="689" on="0"/>
        <pt x="699" y="704" on="0"/>
        <pt x="707" y="720" on="0"/>
        <pt x="714" y="735" on="0"/>
        <pt x="715" y="737" on="1"/>
        <pt x="720" y="744" on="0"/>
        <pt x="751" y="759" on="0"/>
        <pt x="785" y="777" on="0"/>
        <pt x="814" y="796" on="0"/>
        <pt x="817" y="808" on="1"/>
        <pt x="817" y="839" on="1"/>
        <pt x="817" y="842" on="0"/>
        <pt x="826" y="856" on="0"/>
        <pt x="836" y="872" on="0"/>
        <pt x="845" y="886" on="0"/>
        <pt x="846" y="889" on="1"/>
        <pt x="848" y="892" on="0"/>
        <pt x="855" y="898" on="0"/>
        <pt x="856" y="898" on="1"/>
        <pt x="874" y="905" on="0"/>
        <pt x="892" y="921" on="0"/>
        <pt x="905" y="941" on="0"/>
        <pt x="920" y="963" on="0"/>
        <pt x="936" y="976" on="1"/>
        <pt x="946" y="984" on="0"/>
        <pt x="969" y="999" on="0"/>
        <pt x="993" y="1014" on="0"/>
        <pt x="1014" y="1031" on="0"/>
        <pt x="1021" y="1041" on="1"/>
        <pt x="1044" y="1072" on="0"/>
        <pt x="1097" y="1123" on="0"/>
        <pt x="1152" y="1170" on="0"/>
        <pt x="1208" y="1216" on="0"/>
        <pt x="1235" y="1242" on="1"/>
        <pt x="1273" y="1280" on="0"/>
        <pt x="1342" y="1355" on="0"/>
        <pt x="1372" y="1394" on="1"/>
        <pt x="1405" y="1413" on="0"/>
        <pt x="1438" y="1413" on="1"/>
        <pt x="1467" y="1413" on="0"/>
        <pt x="1503" y="1370" on="0"/>
        <pt x="1503" y="1342" on="1"/>
        <pt x="1503" y="1313" on="0"/>
        <pt x="1487" y="1261" on="0"/>
        <pt x="1463" y="1211" on="0"/>
        <pt x="1436" y="1163" on="0"/>
        <pt x="1426" y="1138" on="1"/>
        <pt x="1426" y="1137" on="0"/>
        <pt x="1420" y="1116" on="0"/>
        <pt x="1419" y="1114" on="1"/>
        <pt x="1412" y="1093" on="0"/>
        <pt x="1384" y="1065" on="0"/>
        <pt x="1379" y="1048" on="1"/>
        <pt x="1379" y="1046" on="0"/>
        <pt x="1377" y="1034" on="0"/>
        <pt x="1374" y="1021" on="0"/>
        <pt x="1372" y="1010" on="0"/>
        <pt x="1372" y="1009" on="1"/>
        <pt x="1369" y="992" on="0"/>
        <pt x="1355" y="965" on="0"/>
        <pt x="1337" y="940" on="0"/>
        <pt x="1318" y="914" on="0"/>
        <pt x="1311" y="898" on="1"/>
        <pt x="1291" y="844" on="0"/>
        <pt x="1259" y="734" on="0"/>
        <pt x="1242" y="682" on="1"/>
        <pt x="1233" y="652" on="0"/>
        <pt x="1200" y="586" on="0"/>
        <pt x="1192" y="552" on="1"/>
        <pt x="1190" y="550" on="0"/>
        <pt x="1190" y="543" on="1"/>
        <pt x="1190" y="534" on="0"/>
        <pt x="1192" y="522" on="0"/>
        <pt x="1192" y="521" on="1"/>
        <pt x="1188" y="496" on="0"/>
        <pt x="1157" y="455" on="0"/>
        <pt x="1144" y="432" on="1"/>
        <pt x="1144" y="431" on="0"/>
        <pt x="1140" y="419" on="0"/>
        <pt x="1140" y="415" on="1"/>
        <pt x="1137" y="412" on="0"/>
        <pt x="1129" y="380" on="0"/>
        <pt x="1120" y="342" on="0"/>
        <pt x="1113" y="308" on="0"/>
        <pt x="1113" y="303" on="1"/>
        <pt x="1107" y="285" on="0"/>
        <pt x="1091" y="256" on="0"/>
        <pt x="1076" y="227" on="0"/>
        <pt x="1066" y="196" on="0"/>
        <pt x="1066" y="176" on="1"/>
        <pt x="1066" y="173" on="0"/>
        <pt x="1067" y="171" on="1"/>
        <pt x="1067" y="169" on="0"/>
        <pt x="1068" y="168" on="1"/>
        <pt x="1081" y="144" on="0"/>
        <pt x="1121" y="116" on="0"/>
        <pt x="1159" y="88" on="0"/>
        <pt x="1185" y="50" on="0"/>
        <pt x="1185" y="16" on="1"/>
        <pt x="1183" y="16" on="0"/>
        <pt x="1171" y="12" on="0"/>
        <pt x="1170" y="10" on="1"/>
        <pt x="1167" y="10" on="0"/>
        <pt x="1152" y="9" on="0"/>
        <pt x="1135" y="8" on="0"/>
        <pt x="1120" y="7" on="0"/>
        <pt x="1119" y="7" on="1"/>
        <pt x="1081" y="14" on="0"/>
        <pt x="1005" y="19" on="0"/>
        <pt x="967" y="19" on="1"/>
        <pt x="925" y="19" on="0"/>
        <pt x="841" y="12" on="0"/>
        <pt x="798" y="7" on="1"/>
        <pt x="789" y="5" on="0"/>
        <pt x="780" y="-2" on="0"/>
        <pt x="768" y="-2" on="1"/>
        <pt x="756" y="-2" on="0"/>
        <pt x="723" y="2" on="0"/>
        <pt x="693" y="14" on="0"/>
        <pt x="673" y="36" on="0"/>
        <pt x="673" y="54" on="1"/>
        <pt x="673" y="84" on="0"/>
        <pt x="711" y="108" on="0"/>
        <pt x="762" y="117" on="0"/>
        <pt x="812" y="120" on="0"/>
        <pt x="825" y="128" on="1"/>
        <pt x="845" y="144" on="0"/>
        <pt x="866" y="171" on="0"/>
        <pt x="877" y="200" on="0"/>
        <pt x="881" y="235" on="0"/>
        <pt x="884" y="259" on="1"/>
        <pt x="885" y="269" on="0"/>
        <pt x="890" y="280" on="0"/>
        <pt x="897" y="287" on="0"/>
        <pt x="909" y="295" on="0"/>
        <pt x="917" y="303" on="1"/>
        <pt x="927" y="315" on="0"/>
        <pt x="944" y="366" on="0"/>
        <pt x="956" y="422" on="0"/>
        <pt x="962" y="474" on="0"/>
        <pt x="962" y="488" on="1"/>
        <pt x="962" y="494" on="0"/>
        <pt x="958" y="512" on="0"/>
        <pt x="952" y="529" on="0"/>
        <pt x="942" y="541" on="0"/>
        <pt x="936" y="541" on="1"/>
        <pt x="863" y="541" on="1"/>
        <pt x="842" y="559" on="0"/>
        <pt x="815" y="559" on="1"/>
        <pt x="806" y="559" on="0"/>
        <pt x="766" y="556" on="0"/>
        <pt x="723" y="552" on="0"/>
        <pt x="686" y="545" on="0"/>
        <pt x="680" y="541" on="1"/>
        <pt x="630" y="486" on="1"/>
        <pt x="598" y="459" on="0"/>
        <pt x="553" y="386" on="0"/>
        <pt x="528" y="349" on="1"/>
        <pt x="517" y="338" on="0"/>
        <pt x="469" y="286" on="0"/>
        <pt x="419" y="227" on="0"/>
        <pt x="381" y="171" on="0"/>
        <pt x="381" y="157" on="1"/>
        <pt x="381" y="136" on="0"/>
        <pt x="414" y="119" on="0"/>
        <pt x="455" y="107" on="0"/>
        <pt x="488" y="94" on="0"/>
        <pt x="488" y="78" on="1"/>
        <pt x="488" y="69" on="0"/>
        <pt x="481" y="47" on="0"/>
        <pt x="470" y="27" on="0"/>
        <pt x="456" y="11" on="0"/>
        <pt x="448" y="7" on="1"/>
        <pt x="412" y="4" on="0"/>
        <pt x="351" y="-9" on="0"/>
        <pt x="317" y="-9" on="1"/>
        <pt x="215" y="0" on="1"/>
        <pt x="198" y="0" on="0"/>
        <pt x="167" y="-16" on="0"/>
        <pt x="147" y="-16" on="1"/>
        <pt x="146" y="-16" on="0"/>
        <pt x="136" y="-12" on="0"/>
        <pt x="125" y="-6" on="0"/>
        <pt x="114" y="-1" on="0"/>
        <pt x="111" y="0" on="1"/>
        <pt x="99" y="0" on="0"/>
        <pt x="75" y="-9" on="0"/>
        <pt x="53" y="-19" on="0"/>
        <pt x="29" y="-28" on="0"/>
        <pt x="17" y="-28" on="1"/>
        <pt x="-40" y="-22" on="1"/>
        <pt x="-53" y="-22" on="0"/>
        <pt x="-75" y="-28" on="0"/>
        <pt x="-86" y="-28" on="1"/>
        <pt x="-92" y="-28" on="0"/>
        <pt x="-122" y="-19" on="0"/>
        <pt x="-154" y="-5" on="0"/>
        <pt x="-178" y="11" on="0"/>
      </contour>
      <contour>
        <pt x="922" y="747" on="1"/>
        <pt x="922" y="718" on="0"/>
        <pt x="946" y="687" on="0"/>
        <pt x="978" y="687" on="1"/>
        <pt x="1007" y="687" on="0"/>
        <pt x="1060" y="724" on="0"/>
        <pt x="1080" y="747" on="1"/>
        <pt x="1088" y="757" on="0"/>
        <pt x="1093" y="785" on="0"/>
        <pt x="1098" y="812" on="0"/>
        <pt x="1107" y="836" on="0"/>
        <pt x="1119" y="844" on="1"/>
        <pt x="1140" y="860" on="1"/>
        <pt x="1143" y="865" on="0"/>
        <pt x="1146" y="886" on="0"/>
        <pt x="1150" y="909" on="0"/>
        <pt x="1153" y="931" on="0"/>
        <pt x="1156" y="938" on="1"/>
        <pt x="1160" y="940" on="0"/>
        <pt x="1173" y="955" on="0"/>
        <pt x="1175" y="957" on="1"/>
        <pt x="1175" y="970" on="0"/>
        <pt x="1169" y="976" on="0"/>
        <pt x="1163" y="976" on="1"/>
        <pt x="1136" y="976" on="0"/>
        <pt x="1103" y="960" on="0"/>
        <pt x="1080" y="937" on="0"/>
        <pt x="1061" y="913" on="0"/>
        <pt x="1049" y="905" on="1"/>
        <pt x="1048" y="904" on="0"/>
        <pt x="1038" y="900" on="0"/>
        <pt x="1026" y="895" on="0"/>
        <pt x="1015" y="890" on="0"/>
        <pt x="1014" y="889" on="1"/>
        <pt x="1013" y="887" on="0"/>
        <pt x="1012" y="886" on="1"/>
        <pt x="1011" y="884" on="0"/>
        <pt x="1009" y="883" on="0"/>
        <pt x="1009" y="882" on="1"/>
        <pt x="1004" y="874" on="1"/>
        <pt x="991" y="860" on="0"/>
        <pt x="962" y="832" on="0"/>
        <pt x="938" y="802" on="0"/>
        <pt x="922" y="768" on="0"/>
      </contour>
    </TTGlyph>
    <TTGlyph name="AE" xMin="-148" yMin="-14" xMax="1767" yMax="1377">
      <contour>
        <pt x="1684" y="298" on="1"/>
        <pt x="1687" y="284" on="0"/>
        <pt x="1671" y="245" on="0"/>
        <pt x="1647" y="204" on="0"/>
        <pt x="1623" y="166" on="0"/>
        <pt x="1618" y="154" on="1"/>
        <pt x="1616" y="148" on="0"/>
        <pt x="1609" y="119" on="0"/>
        <pt x="1600" y="87" on="0"/>
        <pt x="1591" y="61" on="0"/>
        <pt x="1587" y="57" on="1"/>
        <pt x="1552" y="26" on="0"/>
        <pt x="1461" y="-7" on="0"/>
        <pt x="1414" y="-7" on="1"/>
        <pt x="1388" y="-7" on="0"/>
        <pt x="1351" y="3" on="0"/>
        <pt x="1319" y="12" on="1"/>
        <pt x="1319" y="17" on="0"/>
        <pt x="1311" y="19" on="0"/>
        <pt x="1308" y="19" on="1"/>
        <pt x="1297" y="19" on="0"/>
        <pt x="1287" y="6" on="0"/>
        <pt x="1282" y="-7" on="1"/>
        <pt x="1172" y="-7" on="1"/>
        <pt x="1170" y="-9" on="0"/>
        <pt x="1153" y="-14" on="0"/>
        <pt x="1151" y="-14" on="1"/>
        <pt x="1146" y="-14" on="1"/>
        <pt x="1111" y="-14" on="0"/>
        <pt x="1046" y="0" on="0"/>
        <pt x="1011" y="0" on="1"/>
        <pt x="950" y="0" on="1"/>
        <pt x="941" y="-2" on="0"/>
        <pt x="932" y="-14" on="0"/>
        <pt x="922" y="-14" on="1"/>
        <pt x="909" y="-14" on="0"/>
        <pt x="882" y="-6" on="0"/>
        <pt x="855" y="4" on="0"/>
        <pt x="827" y="12" on="0"/>
        <pt x="813" y="12" on="1"/>
        <pt x="801" y="12" on="1"/>
        <pt x="774" y="8" on="0"/>
        <pt x="719" y="9" on="0"/>
        <pt x="694" y="-7" on="1"/>
        <pt x="660" y="-7" on="1"/>
        <pt x="631" y="-7" on="0"/>
        <pt x="581" y="0" on="0"/>
        <pt x="556" y="0" on="1"/>
        <pt x="551" y="0" on="1"/>
        <pt x="548" y="-2" on="0"/>
        <pt x="527" y="-7" on="0"/>
        <pt x="525" y="-7" on="1"/>
        <pt x="523" y="-7" on="1"/>
        <pt x="502" y="-7" on="0"/>
        <pt x="473" y="25" on="0"/>
        <pt x="471" y="45" on="1"/>
        <pt x="471" y="53" on="0"/>
        <pt x="474" y="74" on="0"/>
        <pt x="485" y="76" on="1"/>
        <pt x="488" y="76" on="0"/>
        <pt x="505" y="77" on="0"/>
        <pt x="525" y="79" on="0"/>
        <pt x="541" y="82" on="0"/>
        <pt x="544" y="83" on="1"/>
        <pt x="555" y="85" on="0"/>
        <pt x="560" y="97" on="0"/>
        <pt x="570" y="104" on="1"/>
        <pt x="580" y="109" on="0"/>
        <pt x="607" y="123" on="0"/>
        <pt x="633" y="140" on="0"/>
        <pt x="656" y="158" on="0"/>
        <pt x="661" y="168" on="1"/>
        <pt x="668" y="183" on="0"/>
        <pt x="687" y="252" on="0"/>
        <pt x="711" y="326" on="0"/>
        <pt x="740" y="390" on="0"/>
        <pt x="756" y="401" on="1"/>
        <pt x="757" y="413" on="0"/>
        <pt x="761" y="449" on="0"/>
        <pt x="768" y="488" on="0"/>
        <pt x="778" y="526" on="0"/>
        <pt x="784" y="538" on="1"/>
        <pt x="786" y="538" on="0"/>
        <pt x="791" y="543" on="1"/>
        <pt x="794" y="545" on="0"/>
        <pt x="796" y="548" on="1"/>
        <pt x="796" y="551" on="1"/>
        <pt x="796" y="553" on="0"/>
        <pt x="794" y="555" on="1"/>
        <pt x="795" y="574" on="0"/>
        <pt x="773" y="597" on="0"/>
        <pt x="741" y="609" on="0"/>
        <pt x="706" y="612" on="0"/>
        <pt x="694" y="612" on="1"/>
        <pt x="687" y="612" on="1"/>
        <pt x="672" y="612" on="0"/>
        <pt x="627" y="609" on="0"/>
        <pt x="577" y="603" on="0"/>
        <pt x="529" y="594" on="0"/>
        <pt x="511" y="588" on="1"/>
        <pt x="505" y="586" on="0"/>
        <pt x="488" y="575" on="0"/>
        <pt x="471" y="561" on="0"/>
        <pt x="457" y="546" on="0"/>
        <pt x="454" y="541" on="1"/>
        <pt x="437" y="517" on="0"/>
        <pt x="415" y="465" on="0"/>
        <pt x="403" y="439" on="1"/>
        <pt x="390" y="415" on="0"/>
        <pt x="354" y="376" on="0"/>
        <pt x="339" y="356" on="1"/>
        <pt x="334" y="350" on="0"/>
        <pt x="331" y="340" on="0"/>
        <pt x="330" y="329" on="0"/>
        <pt x="329" y="317" on="0"/>
        <pt x="326" y="308" on="1"/>
        <pt x="322" y="305" on="0"/>
        <pt x="319" y="303" on="1"/>
        <pt x="316" y="301" on="0"/>
        <pt x="312" y="298" on="0"/>
        <pt x="310" y="298" on="1"/>
        <pt x="293" y="283" on="0"/>
        <pt x="277" y="264" on="0"/>
        <pt x="268" y="247" on="0"/>
        <pt x="261" y="227" on="0"/>
        <pt x="253" y="211" on="1"/>
        <pt x="251" y="209" on="0"/>
        <pt x="236" y="195" on="0"/>
        <pt x="234" y="194" on="1"/>
        <pt x="234" y="192" on="0"/>
        <pt x="235" y="190" on="1"/>
        <pt x="235" y="188" on="0"/>
        <pt x="236" y="186" on="0"/>
        <pt x="236" y="185" on="1"/>
        <pt x="236" y="182" on="1"/>
        <pt x="236" y="171" on="1"/>
        <pt x="236" y="169" on="0"/>
        <pt x="238" y="155" on="0"/>
        <pt x="239" y="138" on="0"/>
        <pt x="241" y="124" on="0"/>
        <pt x="241" y="121" on="1"/>
        <pt x="247" y="116" on="0"/>
        <pt x="262" y="103" on="0"/>
        <pt x="276" y="87" on="0"/>
        <pt x="285" y="69" on="0"/>
        <pt x="284" y="61" on="1"/>
        <pt x="284" y="59" on="0"/>
        <pt x="285" y="57" on="1"/>
        <pt x="285" y="55" on="0"/>
        <pt x="286" y="53" on="0"/>
        <pt x="286" y="52" on="1"/>
        <pt x="254" y="15" on="0"/>
        <pt x="176" y="-14" on="0"/>
        <pt x="125" y="-14" on="1"/>
        <pt x="107" y="-14" on="0"/>
        <pt x="71" y="-7" on="0"/>
        <pt x="51" y="-7" on="1"/>
        <pt x="23" y="-7" on="0"/>
        <pt x="-29" y="-14" on="0"/>
        <pt x="-55" y="-14" on="1"/>
        <pt x="-110" y="-14" on="1"/>
        <pt x="-124" y="-5" on="0"/>
        <pt x="-147" y="37" on="0"/>
        <pt x="-148" y="55" on="1"/>
        <pt x="-147" y="57" on="1"/>
        <pt x="-144" y="65" on="0"/>
        <pt x="-129" y="95" on="0"/>
        <pt x="-129" y="97" on="1"/>
        <pt x="-123" y="100" on="0"/>
        <pt x="-103" y="106" on="0"/>
        <pt x="-82" y="110" on="0"/>
        <pt x="-63" y="113" on="0"/>
        <pt x="-58" y="114" on="1"/>
        <pt x="-48" y="118" on="0"/>
        <pt x="-30" y="138" on="0"/>
        <pt x="-19" y="142" on="1"/>
        <pt x="25" y="160" on="0"/>
        <pt x="84" y="211" on="0"/>
        <pt x="131" y="273" on="0"/>
        <pt x="174" y="340" on="0"/>
        <pt x="203" y="374" on="1"/>
        <pt x="211" y="387" on="0"/>
        <pt x="245" y="405" on="0"/>
        <pt x="253" y="419" on="1"/>
        <pt x="258" y="430" on="0"/>
        <pt x="289" y="484" on="0"/>
        <pt x="322" y="541" on="0"/>
        <pt x="351" y="586" on="0"/>
        <pt x="355" y="588" on="1"/>
        <pt x="371" y="595" on="0"/>
        <pt x="392" y="602" on="0"/>
        <pt x="410" y="610" on="0"/>
        <pt x="428" y="621" on="0"/>
        <pt x="442" y="633" on="1"/>
        <pt x="444" y="639" on="1"/>
        <pt x="445" y="641" on="0"/>
        <pt x="447" y="644" on="0"/>
        <pt x="447" y="645" on="1"/>
        <pt x="454" y="670" on="0"/>
        <pt x="468" y="704" on="0"/>
        <pt x="488" y="730" on="0"/>
        <pt x="517" y="754" on="0"/>
        <pt x="538" y="770" on="1"/>
        <pt x="541" y="773" on="0"/>
        <pt x="548" y="795" on="0"/>
        <pt x="556" y="823" on="0"/>
        <pt x="565" y="851" on="0"/>
        <pt x="570" y="860" on="1"/>
        <pt x="590" y="890" on="0"/>
        <pt x="643" y="948" on="0"/>
        <pt x="668" y="969" on="1"/>
        <pt x="669" y="970" on="0"/>
        <pt x="676" y="976" on="0"/>
        <pt x="685" y="982" on="0"/>
        <pt x="693" y="988" on="0"/>
        <pt x="694" y="990" on="1"/>
        <pt x="700" y="994" on="0"/>
        <pt x="706" y="1010" on="0"/>
        <pt x="711" y="1028" on="0"/>
        <pt x="717" y="1046" on="0"/>
        <pt x="725" y="1052" on="1"/>
        <pt x="725" y="1053" on="0"/>
        <pt x="732" y="1059" on="0"/>
        <pt x="741" y="1066" on="0"/>
        <pt x="749" y="1072" on="0"/>
        <pt x="749" y="1073" on="1"/>
        <pt x="750" y="1074" on="0"/>
        <pt x="755" y="1082" on="0"/>
        <pt x="759" y="1091" on="0"/>
        <pt x="762" y="1098" on="0"/>
        <pt x="762" y="1099" on="1"/>
        <pt x="773" y="1110" on="0"/>
        <pt x="804" y="1118" on="0"/>
        <pt x="813" y="1131" on="1"/>
        <pt x="824" y="1144" on="0"/>
        <pt x="836" y="1172" on="0"/>
        <pt x="844" y="1201" on="0"/>
        <pt x="852" y="1232" on="0"/>
        <pt x="858" y="1247" on="1"/>
        <pt x="865" y="1261" on="0"/>
        <pt x="878" y="1282" on="0"/>
        <pt x="889" y="1303" on="0"/>
        <pt x="897" y="1328" on="0"/>
        <pt x="900" y="1346" on="1"/>
        <pt x="916" y="1353" on="0"/>
        <pt x="943" y="1368" on="0"/>
        <pt x="959" y="1377" on="1"/>
        <pt x="1006" y="1377" on="1"/>
        <pt x="1030" y="1377" on="0"/>
        <pt x="1088" y="1375" on="0"/>
        <pt x="1113" y="1370" on="1"/>
        <pt x="1114" y="1370" on="0"/>
        <pt x="1122" y="1366" on="0"/>
        <pt x="1132" y="1360" on="0"/>
        <pt x="1140" y="1356" on="0"/>
        <pt x="1140" y="1356" on="1"/>
        <pt x="1142" y="1356" on="0"/>
        <pt x="1167" y="1363" on="0"/>
        <pt x="1172" y="1363" on="1"/>
        <pt x="1215" y="1368" on="0"/>
        <pt x="1308" y="1377" on="0"/>
        <pt x="1352" y="1377" on="1"/>
        <pt x="1360" y="1377" on="1"/>
        <pt x="1362" y="1376" on="0"/>
        <pt x="1374" y="1374" on="0"/>
        <pt x="1387" y="1372" on="0"/>
        <pt x="1400" y="1370" on="0"/>
        <pt x="1403" y="1370" on="1"/>
        <pt x="1654" y="1370" on="1"/>
        <pt x="1661" y="1370" on="0"/>
        <pt x="1684" y="1349" on="0"/>
        <pt x="1707" y="1320" on="0"/>
        <pt x="1723" y="1290" on="0"/>
        <pt x="1723" y="1282" on="1"/>
        <pt x="1723" y="1253" on="1"/>
        <pt x="1723" y="1249" on="0"/>
        <pt x="1724" y="1247" on="1"/>
        <pt x="1724" y="1245" on="0"/>
        <pt x="1725" y="1244" on="1"/>
        <pt x="1725" y="1242" on="0"/>
        <pt x="1729" y="1230" on="0"/>
        <pt x="1729" y="1228" on="1"/>
        <pt x="1738" y="1199" on="0"/>
        <pt x="1743" y="1152" on="0"/>
        <pt x="1756" y="1124" on="1"/>
        <pt x="1761" y="1122" on="0"/>
        <pt x="1764" y="1118" on="1"/>
        <pt x="1766" y="1115" on="0"/>
        <pt x="1767" y="1112" on="1"/>
        <pt x="1767" y="1041" on="1"/>
        <pt x="1756" y="1035" on="1"/>
        <pt x="1753" y="1034" on="0"/>
        <pt x="1749" y="1034" on="1"/>
        <pt x="1746" y="1033" on="0"/>
        <pt x="1741" y="1033" on="0"/>
        <pt x="1739" y="1033" on="1"/>
        <pt x="1703" y="1033" on="0"/>
        <pt x="1652" y="1070" on="0"/>
        <pt x="1610" y="1123" on="0"/>
        <pt x="1572" y="1181" on="0"/>
        <pt x="1549" y="1202" on="1"/>
        <pt x="1540" y="1209" on="0"/>
        <pt x="1496" y="1222" on="0"/>
        <pt x="1446" y="1233" on="0"/>
        <pt x="1401" y="1240" on="0"/>
        <pt x="1391" y="1240" on="1"/>
        <pt x="1374" y="1240" on="0"/>
        <pt x="1344" y="1235" on="0"/>
        <pt x="1327" y="1235" on="1"/>
        <pt x="1313" y="1235" on="0"/>
        <pt x="1284" y="1247" on="0"/>
        <pt x="1270" y="1247" on="1"/>
        <pt x="1268" y="1247" on="1"/>
        <pt x="1267" y="1246" on="0"/>
        <pt x="1253" y="1240" on="0"/>
        <pt x="1251" y="1240" on="1"/>
        <pt x="1235" y="1226" on="0"/>
        <pt x="1192" y="1183" on="0"/>
        <pt x="1172" y="1171" on="1"/>
        <pt x="1170" y="1142" on="0"/>
        <pt x="1156" y="1085" on="0"/>
        <pt x="1147" y="1059" on="1"/>
        <pt x="1145" y="1056" on="0"/>
        <pt x="1128" y="1028" on="0"/>
        <pt x="1123" y="1019" on="1"/>
        <pt x="1114" y="1003" on="0"/>
        <pt x="1105" y="955" on="0"/>
        <pt x="1097" y="905" on="0"/>
        <pt x="1086" y="859" on="0"/>
        <pt x="1075" y="844" on="1"/>
        <pt x="1075" y="777" on="1"/>
        <pt x="1075" y="775" on="0"/>
        <pt x="1084" y="767" on="0"/>
        <pt x="1096" y="758" on="0"/>
        <pt x="1109" y="749" on="0"/>
        <pt x="1113" y="747" on="1"/>
        <pt x="1135" y="747" on="1"/>
        <pt x="1174" y="747" on="0"/>
        <pt x="1259" y="768" on="0"/>
        <pt x="1294" y="777" on="1"/>
        <pt x="1305" y="786" on="0"/>
        <pt x="1331" y="800" on="0"/>
        <pt x="1339" y="813" on="1"/>
        <pt x="1344" y="818" on="0"/>
        <pt x="1356" y="848" on="0"/>
        <pt x="1360" y="853" on="1"/>
        <pt x="1364" y="862" on="0"/>
        <pt x="1383" y="895" on="0"/>
        <pt x="1407" y="926" on="0"/>
        <pt x="1433" y="950" on="0"/>
        <pt x="1443" y="950" on="1"/>
        <pt x="1450" y="950" on="1"/>
        <pt x="1453" y="949" on="0"/>
        <pt x="1471" y="940" on="0"/>
        <pt x="1491" y="927" on="0"/>
        <pt x="1511" y="912" on="0"/>
        <pt x="1516" y="905" on="1"/>
        <pt x="1516" y="896" on="1"/>
        <pt x="1516" y="874" on="1"/>
        <pt x="1516" y="853" on="0"/>
        <pt x="1508" y="816" on="0"/>
        <pt x="1498" y="779" on="0"/>
        <pt x="1488" y="740" on="0"/>
        <pt x="1486" y="718" on="1"/>
        <pt x="1486" y="714" on="0"/>
        <pt x="1478" y="700" on="0"/>
        <pt x="1476" y="697" on="1"/>
        <pt x="1460" y="677" on="0"/>
        <pt x="1450" y="630" on="0"/>
        <pt x="1450" y="605" on="1"/>
        <pt x="1450" y="586" on="0"/>
        <pt x="1454" y="548" on="0"/>
        <pt x="1454" y="529" on="1"/>
        <pt x="1454" y="514" on="0"/>
        <pt x="1438" y="493" on="0"/>
        <pt x="1414" y="481" on="0"/>
        <pt x="1386" y="476" on="0"/>
        <pt x="1374" y="476" on="1"/>
        <pt x="1345" y="476" on="1"/>
        <pt x="1335" y="490" on="0"/>
        <pt x="1325" y="528" on="0"/>
        <pt x="1314" y="565" on="0"/>
        <pt x="1298" y="598" on="0"/>
        <pt x="1282" y="607" on="1"/>
        <pt x="1281" y="607" on="0"/>
        <pt x="1271" y="611" on="0"/>
        <pt x="1259" y="615" on="0"/>
        <pt x="1250" y="619" on="0"/>
        <pt x="1249" y="619" on="1"/>
        <pt x="1248" y="621" on="0"/>
        <pt x="1239" y="628" on="0"/>
        <pt x="1237" y="628" on="1"/>
        <pt x="1231" y="628" on="0"/>
        <pt x="1201" y="631" on="0"/>
        <pt x="1168" y="635" on="0"/>
        <pt x="1137" y="639" on="0"/>
        <pt x="1130" y="640" on="1"/>
        <pt x="1129" y="640" on="0"/>
        <pt x="1120" y="644" on="0"/>
        <pt x="1110" y="648" on="0"/>
        <pt x="1100" y="652" on="0"/>
        <pt x="1099" y="652" on="1"/>
        <pt x="1097" y="652" on="0"/>
        <pt x="1095" y="653" on="1"/>
        <pt x="1093" y="653" on="0"/>
        <pt x="1089" y="654" on="0"/>
        <pt x="1087" y="654" on="1"/>
        <pt x="1084" y="654" on="0"/>
        <pt x="1075" y="652" on="0"/>
        <pt x="1073" y="652" on="1"/>
        <pt x="1070" y="649" on="0"/>
        <pt x="1053" y="633" on="0"/>
        <pt x="1035" y="615" on="0"/>
        <pt x="1019" y="598" on="0"/>
        <pt x="1016" y="595" on="1"/>
        <pt x="1009" y="585" on="0"/>
        <pt x="1001" y="557" on="0"/>
        <pt x="996" y="525" on="0"/>
        <pt x="993" y="495" on="0"/>
        <pt x="990" y="483" on="1"/>
        <pt x="986" y="463" on="0"/>
        <pt x="962" y="422" on="0"/>
        <pt x="957" y="401" on="1"/>
        <pt x="956" y="397" on="0"/>
        <pt x="953" y="370" on="0"/>
        <pt x="950" y="339" on="0"/>
        <pt x="947" y="312" on="0"/>
        <pt x="947" y="308" on="1"/>
        <pt x="942" y="288" on="0"/>
        <pt x="935" y="238" on="0"/>
        <pt x="919" y="218" on="1"/>
        <pt x="919" y="137" on="1"/>
        <pt x="919" y="123" on="0"/>
        <pt x="952" y="106" on="0"/>
        <pt x="995" y="97" on="0"/>
        <pt x="1035" y="93" on="0"/>
        <pt x="1042" y="90" on="1"/>
        <pt x="1088" y="93" on="0"/>
        <pt x="1172" y="100" on="0"/>
        <pt x="1253" y="109" on="0"/>
        <pt x="1335" y="121" on="0"/>
        <pt x="1379" y="128" on="1"/>
        <pt x="1382" y="128" on="0"/>
        <pt x="1395" y="138" on="0"/>
        <pt x="1397" y="142" on="1"/>
        <pt x="1397" y="143" on="0"/>
        <pt x="1399" y="155" on="0"/>
        <pt x="1400" y="168" on="0"/>
        <pt x="1403" y="179" on="0"/>
        <pt x="1405" y="180" on="1"/>
        <pt x="1408" y="189" on="0"/>
        <pt x="1438" y="222" on="0"/>
        <pt x="1481" y="259" on="0"/>
        <pt x="1531" y="297" on="0"/>
        <pt x="1576" y="328" on="0"/>
        <pt x="1612" y="348" on="0"/>
        <pt x="1620" y="348" on="1"/>
        <pt x="1621" y="348" on="1"/>
        <pt x="1624" y="348" on="1"/>
        <pt x="1626" y="348" on="0"/>
        <pt x="1628" y="346" on="1"/>
        <pt x="1645" y="344" on="0"/>
        <pt x="1680" y="323" on="0"/>
        <pt x="1682" y="304" on="1"/>
      </contour>
      <contour>
        <pt x="665" y="792" on="1"/>
        <pt x="664" y="783" on="0"/>
        <pt x="676" y="759" on="0"/>
        <pt x="694" y="738" on="0"/>
        <pt x="716" y="723" on="0"/>
        <pt x="725" y="723" on="1"/>
        <pt x="739" y="723" on="0"/>
        <pt x="767" y="733" on="0"/>
        <pt x="794" y="749" on="0"/>
        <pt x="818" y="768" on="0"/>
        <pt x="829" y="777" on="1"/>
        <pt x="839" y="783" on="0"/>
        <pt x="850" y="801" on="0"/>
        <pt x="855" y="821" on="0"/>
        <pt x="857" y="842" on="0"/>
        <pt x="860" y="853" on="1"/>
        <pt x="868" y="875" on="0"/>
        <pt x="881" y="909" on="0"/>
        <pt x="883" y="932" on="1"/>
        <pt x="881" y="934" on="0"/>
        <pt x="882" y="943" on="0"/>
        <pt x="878" y="945" on="1"/>
        <pt x="878" y="951" on="1"/>
        <pt x="878" y="956" on="0"/>
        <pt x="877" y="972" on="0"/>
        <pt x="877" y="987" on="0"/>
        <pt x="876" y="999" on="0"/>
        <pt x="876" y="1002" on="1"/>
        <pt x="858" y="1002" on="1"/>
        <pt x="843" y="1002" on="0"/>
        <pt x="815" y="995" on="0"/>
        <pt x="801" y="981" on="1"/>
        <pt x="706" y="884" on="1"/>
        <pt x="704" y="872" on="0"/>
        <pt x="690" y="850" on="0"/>
        <pt x="675" y="828" on="0"/>
        <pt x="664" y="805" on="0"/>
      </contour>
    </TTGlyph>
    <TTGlyph name="Aacute" xMin="-178" yMin="-28" xMax="1899" yMax="1854">
      <component glyphName="A" x="0" y="0" flags="0x204"/>
      <component glyphName="Acute" x="534" y="0" flags="0x4"/>
    </TTGlyph>
    <TTGlyph name="Abreve" xMin="-178" yMin="-28" xMax="1647" yMax="1854">
      <component glyphName="A" x="0" y="0" flags="0x204"/>
      <component glyphName="Breve" x="669" y="0" flags="0x4"/>
    </TTGlyph>
    <TTGlyph name="Acircumflex" xMin="-178" yMin="-28" xMax="1622" yMax="1846">
      <component glyphName="A" x="0" y="0" flags="0x204"/>
      <component glyphName="Circumflex" x="480" y="0" flags="0x4"/>
    </TTGlyph>
    <TTGlyph name="Acute" xMin="907" yMin="1487" xMax="1365" yMax="1854">
      <contour>
        <pt x="909" y="1570" on="1"/>
        <pt x="914" y="1591" on="0"/>
        <pt x="939" y="1609" on="0"/>
        <pt x="971" y="1620" on="0"/>
        <pt x="1005" y="1630" on="0"/>
        <pt x="1019" y="1642" on="1"/>
        <pt x="1038" y="1656" on="0"/>
        <pt x="1059" y="1683" on="0"/>
        <pt x="1079" y="1697" on="1"/>
        <pt x="1105" y="1718" on="0"/>
        <pt x="1163" y="1755" on="0"/>
        <pt x="1188" y="1776" on="1"/>
        <pt x="1209" y="1791" on="0"/>
        <pt x="1234" y="1820" on="0"/>
        <pt x="1256" y="1841" on="0"/>
        <pt x="1281" y="1854" on="0"/>
        <pt x="1302" y="1854" on="1"/>
        <pt x="1307" y="1854" on="0"/>
        <pt x="1319" y="1853" on="0"/>
        <pt x="1326" y="1852" on="1"/>
        <pt x="1328" y="1854" on="0"/>
        <pt x="1332" y="1854" on="1"/>
        <pt x="1334" y="1854" on="0"/>
        <pt x="1336" y="1853" on="1"/>
        <pt x="1340" y="1852" on="0"/>
        <pt x="1349" y="1850" on="0"/>
        <pt x="1354" y="1845" on="1"/>
        <pt x="1365" y="1838" on="0"/>
        <pt x="1365" y="1820" on="1"/>
        <pt x="1365" y="1814" on="0"/>
        <pt x="1363" y="1804" on="1"/>
        <pt x="1362" y="1799" on="0"/>
        <pt x="1359" y="1788" on="0"/>
        <pt x="1356" y="1781" on="1"/>
        <pt x="1352" y="1762" on="0"/>
        <pt x="1328" y="1729" on="0"/>
        <pt x="1298" y="1700" on="0"/>
        <pt x="1266" y="1672" on="0"/>
        <pt x="1254" y="1658" on="1"/>
        <pt x="1250" y="1649" on="0"/>
        <pt x="1246" y="1643" on="1"/>
        <pt x="1243" y="1637" on="0"/>
        <pt x="1237" y="1628" on="0"/>
        <pt x="1235" y="1628" on="1"/>
        <pt x="1234" y="1625" on="0"/>
        <pt x="1225" y="1620" on="0"/>
        <pt x="1214" y="1615" on="0"/>
        <pt x="1206" y="1612" on="0"/>
        <pt x="1205" y="1611" on="1"/>
        <pt x="1188" y="1601" on="0"/>
        <pt x="1158" y="1565" on="0"/>
        <pt x="1139" y="1552" on="1"/>
        <pt x="1120" y="1539" on="0"/>
        <pt x="1090" y="1530" on="0"/>
        <pt x="1064" y="1526" on="0"/>
        <pt x="1038" y="1521" on="0"/>
        <pt x="1024" y="1513" on="1"/>
        <pt x="1023" y="1512" on="0"/>
        <pt x="1013" y="1504" on="0"/>
        <pt x="1000" y="1495" on="0"/>
        <pt x="988" y="1487" on="0"/>
        <pt x="985" y="1487" on="1"/>
        <pt x="979" y="1487" on="0"/>
        <pt x="975" y="1488" on="1"/>
        <pt x="966" y="1488" on="0"/>
        <pt x="960" y="1490" on="1"/>
        <pt x="936" y="1495" on="0"/>
        <pt x="907" y="1532" on="0"/>
        <pt x="907" y="1555" on="1"/>
        <pt x="907" y="1560" on="0"/>
      </contour>
    </TTGlyph>
    <TTGlyph name="Adieresis" xMin="-178" yMin="-28" xMax="1638" yMax="1807">
      <component glyphName="A" x="0" y="0" flags="0x204"/>
      <component glyphName="Dieresis" x="437" y="0" flags="0x4"/>
    </TTGlyph>
    <TTGlyph name="Agrave" xMin="-178" yMin="-28" xMax="1503" yMax="1853">
      <component glyphName="A" x="0" y="0" flags="0x204"/>
      <component glyphName="Grave" x="465" y="0" flags="0x4"/>
    </TTGlyph>
    <TTGlyph name="Amacron" xMin="-178" yMin="-28" xMax="1723" yMax="1715">
      <component glyphName="A" x="0" y="0" flags="0x204"/>
      <component glyphName="Macron" x="571" y="0" flags="0x4"/>
    </TTGlyph>
    <TTGlyph name="Aogonek" xMin="-178" yMin="-422" xMax="1503" yMax="1413">
      <contour>
        <pt x="-178" y="17" on="1"/>
        <pt x="-178" y="28" on="0"/>
        <pt x="-167" y="54" on="0"/>
        <pt x="-150" y="77" on="0"/>
        <pt x="-129" y="94" on="0"/>
        <pt x="-119" y="97" on="1"/>
        <pt x="-116" y="98" on="0"/>
        <pt x="-98" y="100" on="0"/>
        <pt x="-76" y="102" on="0"/>
        <pt x="-58" y="104" on="0"/>
        <pt x="-55" y="104" on="1"/>
        <pt x="-27" y="107" on="0"/>
        <pt x="37" y="130" on="0"/>
        <pt x="99" y="161" on="0"/>
        <pt x="157" y="196" on="0"/>
        <pt x="180" y="211" on="1"/>
        <pt x="181" y="212" on="0"/>
        <pt x="195" y="226" on="0"/>
        <pt x="214" y="244" on="0"/>
        <pt x="234" y="261" on="0"/>
        <pt x="241" y="266" on="1"/>
        <pt x="243" y="271" on="0"/>
        <pt x="256" y="285" on="0"/>
        <pt x="258" y="285" on="1"/>
        <pt x="270" y="302" on="0"/>
        <pt x="293" y="322" on="0"/>
        <pt x="318" y="338" on="0"/>
        <pt x="345" y="352" on="0"/>
        <pt x="362" y="363" on="1"/>
        <pt x="374" y="371" on="0"/>
        <pt x="393" y="396" on="0"/>
        <pt x="409" y="425" on="0"/>
        <pt x="424" y="455" on="0"/>
        <pt x="434" y="467" on="1"/>
        <pt x="460" y="499" on="0"/>
        <pt x="505" y="538" on="0"/>
        <pt x="536" y="559" on="1"/>
        <pt x="550" y="565" on="0"/>
        <pt x="562" y="591" on="0"/>
        <pt x="571" y="600" on="1"/>
        <pt x="586" y="610" on="0"/>
        <pt x="617" y="628" on="0"/>
        <pt x="647" y="648" on="0"/>
        <pt x="676" y="671" on="0"/>
        <pt x="689" y="687" on="1"/>
        <pt x="691" y="689" on="0"/>
        <pt x="699" y="704" on="0"/>
        <pt x="707" y="720" on="0"/>
        <pt x="714" y="735" on="0"/>
        <pt x="715" y="737" on="1"/>
        <pt x="720" y="744" on="0"/>
        <pt x="751" y="759" on="0"/>
        <pt x="785" y="777" on="0"/>
        <pt x="814" y="796" on="0"/>
        <pt x="817" y="808" on="1"/>
        <pt x="817" y="839" on="1"/>
        <pt x="817" y="842" on="0"/>
        <pt x="826" y="856" on="0"/>
        <pt x="836" y="872" on="0"/>
        <pt x="845" y="886" on="0"/>
        <pt x="846" y="889" on="1"/>
        <pt x="848" y="892" on="0"/>
        <pt x="855" y="898" on="0"/>
        <pt x="856" y="898" on="1"/>
        <pt x="874" y="905" on="0"/>
        <pt x="892" y="921" on="0"/>
        <pt x="905" y="941" on="0"/>
        <pt x="920" y="963" on="0"/>
        <pt x="936" y="976" on="1"/>
        <pt x="946" y="984" on="0"/>
        <pt x="969" y="999" on="0"/>
        <pt x="993" y="1014" on="0"/>
        <pt x="1014" y="1031" on="0"/>
        <pt x="1021" y="1041" on="1"/>
        <pt x="1044" y="1072" on="0"/>
        <pt x="1097" y="1123" on="0"/>
        <pt x="1152" y="1170" on="0"/>
        <pt x="1208" y="1216" on="0"/>
        <pt x="1235" y="1242" on="1"/>
        <pt x="1273" y="1280" on="0"/>
        <pt x="1342" y="1355" on="0"/>
        <pt x="1372" y="1394" on="1"/>
        <pt x="1405" y="1413" on="0"/>
        <pt x="1438" y="1413" on="1"/>
        <pt x="1467" y="1413" on="0"/>
        <pt x="1503" y="1370" on="0"/>
        <pt x="1503" y="1342" on="1"/>
        <pt x="1503" y="1313" on="0"/>
        <pt x="1487" y="1261" on="0"/>
        <pt x="1463" y="1211" on="0"/>
        <pt x="1436" y="1163" on="0"/>
        <pt x="1426" y="1138" on="1"/>
        <pt x="1426" y="1137" on="0"/>
        <pt x="1420" y="1116" on="0"/>
        <pt x="1419" y="1114" on="1"/>
        <pt x="1412" y="1093" on="0"/>
        <pt x="1384" y="1065" on="0"/>
        <pt x="1379" y="1048" on="1"/>
        <pt x="1379" y="1046" on="0"/>
        <pt x="1377" y="1034" on="0"/>
        <pt x="1374" y="1021" on="0"/>
        <pt x="1372" y="1010" on="0"/>
        <pt x="1372" y="1009" on="1"/>
        <pt x="1369" y="992" on="0"/>
        <pt x="1355" y="965" on="0"/>
        <pt x="1337" y="940" on="0"/>
        <pt x="1318" y="914" on="0"/>
        <pt x="1311" y="898" on="1"/>
        <pt x="1291" y="844" on="0"/>
        <pt x="1259" y="734" on="0"/>
        <pt x="1242" y="682" on="1"/>
        <pt x="1233" y="652" on="0"/>
        <pt x="1200" y="586" on="0"/>
        <pt x="1192" y="552" on="1"/>
        <pt x="1190" y="550" on="0"/>
        <pt x="1190" y="543" on="1"/>
        <pt x="1190" y="534" on="0"/>
        <pt x="1192" y="522" on="0"/>
        <pt x="1192" y="521" on="1"/>
        <pt x="1188" y="496" on="0"/>
        <pt x="1157" y="455" on="0"/>
        <pt x="1144" y="432" on="1"/>
        <pt x="1144" y="431" on="0"/>
        <pt x="1140" y="419" on="0"/>
        <pt x="1140" y="415" on="1"/>
        <pt x="1137" y="412" on="0"/>
        <pt x="1129" y="380" on="0"/>
        <pt x="1120" y="342" on="0"/>
        <pt x="1113" y="308" on="0"/>
        <pt x="1113" y="303" on="1"/>
        <pt x="1107" y="285" on="0"/>
        <pt x="1091" y="256" on="0"/>
        <pt x="1076" y="227" on="0"/>
        <pt x="1066" y="196" on="0"/>
        <pt x="1066" y="176" on="1"/>
        <pt x="1066" y="173" on="0"/>
        <pt x="1067" y="171" on="1"/>
        <pt x="1067" y="169" on="0"/>
        <pt x="1068" y="168" on="1"/>
        <pt x="1081" y="144" on="0"/>
        <pt x="1121" y="116" on="0"/>
        <pt x="1159" y="88" on="0"/>
        <pt x="1185" y="50" on="0"/>
        <pt x="1185" y="16" on="1"/>
        <pt x="1183" y="16" on="0"/>
        <pt x="1171" y="12" on="0"/>
        <pt x="1170" y="10" on="1"/>
        <pt x="1167" y="10" on="0"/>
        <pt x="1152" y="9" on="0"/>
        <pt x="1135" y="8" on="0"/>
        <pt x="1120" y="7" on="0"/>
        <pt x="1119" y="7" on="1"/>
        <pt x="1096" y="11" on="0"/>
        <pt x="1047" y="16" on="0"/>
        <pt x="1024" y="17" on="1"/>
        <pt x="1013" y="-1" on="0"/>
        <pt x="985" y="-34" on="0"/>
        <pt x="959" y="-68" on="0"/>
        <pt x="937" y="-103" on="0"/>
        <pt x="931" y="-121" on="1"/>
        <pt x="928" y="-129" on="0"/>
        <pt x="928" y="-138" on="1"/>
        <pt x="929" y="-148" on="1"/>
        <pt x="929" y="-196" on="1"/>
        <pt x="926" y="-231" on="1"/>
        <pt x="926" y="-239" on="0"/>
        <pt x="927" y="-243" on="1"/>
        <pt x="929" y="-255" on="0"/>
        <pt x="938" y="-273" on="0"/>
        <pt x="940" y="-284" on="1"/>
        <pt x="953" y="-293" on="1"/>
        <pt x="958" y="-300" on="0"/>
        <pt x="972" y="-303" on="0"/>
        <pt x="983" y="-304" on="1"/>
        <pt x="1047" y="-308" on="1"/>
        <pt x="1065" y="-308" on="0"/>
        <pt x="1090" y="-298" on="0"/>
        <pt x="1105" y="-298" on="1"/>
        <pt x="1119" y="-298" on="1"/>
        <pt x="1133" y="-298" on="0"/>
        <pt x="1133" y="-309" on="1"/>
        <pt x="1133" y="-313" on="0"/>
        <pt x="1132" y="-316" on="1"/>
        <pt x="1129" y="-325" on="0"/>
        <pt x="1119" y="-333" on="1"/>
        <pt x="1088" y="-361" on="0"/>
        <pt x="1018" y="-397" on="0"/>
        <pt x="981" y="-407" on="1"/>
        <pt x="952" y="-419" on="1"/>
        <pt x="941" y="-421" on="0"/>
        <pt x="913" y="-422" on="0"/>
        <pt x="901" y="-422" on="1"/>
        <pt x="892" y="-422" on="0"/>
        <pt x="861" y="-418" on="0"/>
        <pt x="850" y="-416" on="1"/>
        <pt x="838" y="-409" on="1"/>
        <pt x="825" y="-405" on="0"/>
        <pt x="803" y="-393" on="0"/>
        <pt x="792" y="-388" on="1"/>
        <pt x="777" y="-379" on="1"/>
        <pt x="771" y="-362" on="1"/>
        <pt x="771" y="-350" on="0"/>
        <pt x="765" y="-329" on="0"/>
        <pt x="762" y="-318" on="1"/>
        <pt x="759" y="-306" on="0"/>
        <pt x="759" y="-294" on="1"/>
        <pt x="759" y="-279" on="0"/>
        <pt x="766" y="-246" on="0"/>
        <pt x="771" y="-229" on="1"/>
        <pt x="775" y="-218" on="0"/>
        <pt x="790" y="-186" on="0"/>
        <pt x="795" y="-174" on="1"/>
        <pt x="807" y="-145" on="1"/>
        <pt x="828" y="-111" on="1"/>
        <pt x="865" y="-69" on="1"/>
        <pt x="892" y="-38" on="0"/>
        <pt x="942" y="1" on="0"/>
        <pt x="978" y="19" on="1"/>
        <pt x="967" y="19" on="1"/>
        <pt x="925" y="19" on="0"/>
        <pt x="841" y="12" on="0"/>
        <pt x="798" y="7" on="1"/>
        <pt x="789" y="5" on="0"/>
        <pt x="780" y="-2" on="0"/>
        <pt x="768" y="-2" on="1"/>
        <pt x="756" y="-2" on="0"/>
        <pt x="723" y="2" on="0"/>
        <pt x="693" y="14" on="0"/>
        <pt x="673" y="36" on="0"/>
        <pt x="673" y="54" on="1"/>
        <pt x="673" y="84" on="0"/>
        <pt x="711" y="108" on="0"/>
        <pt x="762" y="117" on="0"/>
        <pt x="812" y="120" on="0"/>
        <pt x="825" y="128" on="1"/>
        <pt x="845" y="144" on="0"/>
        <pt x="866" y="171" on="0"/>
        <pt x="877" y="200" on="0"/>
        <pt x="881" y="235" on="0"/>
        <pt x="884" y="259" on="1"/>
        <pt x="885" y="269" on="0"/>
        <pt x="890" y="280" on="0"/>
        <pt x="897" y="287" on="0"/>
        <pt x="909" y="295" on="0"/>
        <pt x="917" y="303" on="1"/>
        <pt x="927" y="315" on="0"/>
        <pt x="944" y="366" on="0"/>
        <pt x="956" y="422" on="0"/>
        <pt x="962" y="474" on="0"/>
        <pt x="962" y="488" on="1"/>
        <pt x="962" y="494" on="0"/>
        <pt x="958" y="512" on="0"/>
        <pt x="952" y="529" on="0"/>
        <pt x="942" y="541" on="0"/>
        <pt x="936" y="541" on="1"/>
        <pt x="863" y="541" on="1"/>
        <pt x="842" y="559" on="0"/>
        <pt x="815" y="559" on="1"/>
        <pt x="806" y="559" on="0"/>
        <pt x="766" y="556" on="0"/>
        <pt x="723" y="552" on="0"/>
        <pt x="686" y="545" on="0"/>
        <pt x="680" y="541" on="1"/>
        <pt x="630" y="486" on="1"/>
        <pt x="598" y="459" on="0"/>
        <pt x="553" y="386" on="0"/>
        <pt x="528" y="349" on="1"/>
        <pt x="517" y="338" on="0"/>
        <pt x="469" y="286" on="0"/>
        <pt x="419" y="227" on="0"/>
        <pt x="381" y="171" on="0"/>
        <pt x="381" y="157" on="1"/>
        <pt x="381" y="136" on="0"/>
        <pt x="414" y="119" on="0"/>
        <pt x="455" y="107" on="0"/>
        <pt x="488" y="94" on="0"/>
        <pt x="488" y="78" on="1"/>
        <pt x="488" y="69" on="0"/>
        <pt x="481" y="47" on="0"/>
        <pt x="470" y="27" on="0"/>
        <pt x="456" y="11" on="0"/>
        <pt x="448" y="7" on="1"/>
        <pt x="412" y="4" on="0"/>
        <pt x="351" y="-9" on="0"/>
        <pt x="317" y="-9" on="1"/>
        <pt x="215" y="0" on="1"/>
        <pt x="198" y="0" on="0"/>
        <pt x="167" y="-16" on="0"/>
        <pt x="147" y="-16" on="1"/>
        <pt x="146" y="-16" on="0"/>
        <pt x="136" y="-12" on="0"/>
        <pt x="125" y="-6" on="0"/>
        <pt x="114" y="-1" on="0"/>
        <pt x="111" y="0" on="1"/>
        <pt x="99" y="0" on="0"/>
        <pt x="75" y="-9" on="0"/>
        <pt x="53" y="-19" on="0"/>
        <pt x="29" y="-28" on="0"/>
        <pt x="17" y="-28" on="1"/>
        <pt x="-40" y="-22" on="1"/>
        <pt x="-53" y="-22" on="0"/>
        <pt x="-75" y="-28" on="0"/>
        <pt x="-86" y="-28" on="1"/>
        <pt x="-92" y="-28" on="0"/>
        <pt x="-122" y="-19" on="0"/>
        <pt x="-154" y="-5" on="0"/>
        <pt x="-178" y="11" on="0"/>
      </contour>
      <contour>
        <pt x="922" y="747" on="1"/>
        <pt x="922" y="718" on="0"/>
        <pt x="946" y="687" on="0"/>
        <pt x="978" y="687" on="1"/>
        <pt x="1007" y="687" on="0"/>
        <pt x="1060" y="724" on="0"/>
        <pt x="1080" y="747" on="1"/>
        <pt x="1088" y="757" on="0"/>
        <pt x="1093" y="785" on="0"/>
        <pt x="1098" y="812" on="0"/>
        <pt x="1107" y="836" on="0"/>
        <pt x="1119" y="844" on="1"/>
        <pt x="1140" y="860" on="1"/>
        <pt x="1143" y="865" on="0"/>
        <pt x="1146" y="886" on="0"/>
        <pt x="1150" y="909" on="0"/>
        <pt x="1153" y="931" on="0"/>
        <pt x="1156" y="938" on="1"/>
        <pt x="1160" y="940" on="0"/>
        <pt x="1173" y="955" on="0"/>
        <pt x="1175" y="957" on="1"/>
        <pt x="1175" y="970" on="0"/>
        <pt x="1169" y="976" on="0"/>
        <pt x="1163" y="976" on="1"/>
        <pt x="1136" y="976" on="0"/>
        <pt x="1103" y="960" on="0"/>
        <pt x="1080" y="937" on="0"/>
        <pt x="1061" y="913" on="0"/>
        <pt x="1049" y="905" on="1"/>
        <pt x="1048" y="904" on="0"/>
        <pt x="1038" y="900" on="0"/>
        <pt x="1026" y="895" on="0"/>
        <pt x="1015" y="890" on="0"/>
        <pt x="1014" y="889" on="1"/>
        <pt x="1013" y="887" on="0"/>
        <pt x="1012" y="886" on="1"/>
        <pt x="1011" y="884" on="0"/>
        <pt x="1009" y="883" on="0"/>
        <pt x="1009" y="882" on="1"/>
        <pt x="1004" y="874" on="1"/>
        <pt x="991" y="860" on="0"/>
        <pt x="962" y="832" on="0"/>
        <pt x="938" y="802" on="0"/>
        <pt x="922" y="768" on="0"/>
      </contour>
    </TTGlyph>
    <TTGlyph name="Aring" xMin="-178" yMin="-28" xMax="1569" yMax="1854">
      <component glyphName="A" x="0" y="0" flags="0x204"/>
      <component glyphName="Ring" x="494" y="0" flags="0x4"/>
    </TTGlyph>
    <TTGlyph name="Atilde" xMin="-178" yMin="-28" xMax="1684" yMax="1854">
      <component glyphName="A" x="0" y="0" flags="0x204"/>
      <component glyphName="Tilde" x="515" y="0" flags="0x4"/>
    </TTGlyph>
    <TTGlyph name="B" xMin="42" yMin="0" xMax="1231" yMax="1431">
      <contour>
        <pt x="186" y="9" on="1"/>
        <pt x="179" y="9" on="0"/>
        <pt x="146" y="14" on="0"/>
        <pt x="108" y="20" on="0"/>
        <pt x="76" y="26" on="0"/>
        <pt x="70" y="28" on="1"/>
        <pt x="67" y="28" on="0"/>
        <pt x="51" y="31" on="0"/>
        <pt x="49" y="33" on="1"/>
        <pt x="45" y="33" on="0"/>
        <pt x="44" y="36" on="1"/>
        <pt x="42" y="40" on="1"/>
        <pt x="42" y="92" on="1"/>
        <pt x="42" y="95" on="0"/>
        <pt x="54" y="103" on="0"/>
        <pt x="62" y="108" on="1"/>
        <pt x="71" y="113" on="0"/>
        <pt x="82" y="119" on="1"/>
        <pt x="83" y="120" on="0"/>
        <pt x="92" y="126" on="0"/>
        <pt x="103" y="133" on="0"/>
        <pt x="114" y="138" on="0"/>
        <pt x="116" y="138" on="1"/>
        <pt x="120" y="139" on="0"/>
        <pt x="147" y="146" on="0"/>
        <pt x="179" y="152" on="0"/>
        <pt x="209" y="158" on="0"/>
        <pt x="215" y="159" on="1"/>
        <pt x="229" y="168" on="0"/>
        <pt x="253" y="213" on="0"/>
        <pt x="258" y="228" on="1"/>
        <pt x="273" y="264" on="0"/>
        <pt x="295" y="340" on="0"/>
        <pt x="316" y="417" on="0"/>
        <pt x="338" y="492" on="0"/>
        <pt x="352" y="528" on="1"/>
        <pt x="360" y="559" on="0"/>
        <pt x="390" y="619" on="0"/>
        <pt x="402" y="649" on="1"/>
        <pt x="408" y="662" on="0"/>
        <pt x="414" y="690" on="0"/>
        <pt x="418" y="719" on="0"/>
        <pt x="423" y="749" on="0"/>
        <pt x="428" y="763" on="1"/>
        <pt x="454" y="836" on="0"/>
        <pt x="497" y="984" on="0"/>
        <pt x="520" y="1059" on="1"/>
        <pt x="526" y="1078" on="0"/>
        <pt x="544" y="1117" on="0"/>
        <pt x="561" y="1157" on="0"/>
        <pt x="573" y="1196" on="0"/>
        <pt x="573" y="1216" on="1"/>
        <pt x="573" y="1266" on="0"/>
        <pt x="523" y="1313" on="0"/>
        <pt x="449" y="1333" on="0"/>
        <pt x="365" y="1340" on="0"/>
        <pt x="331" y="1351" on="1"/>
        <pt x="319" y="1358" on="0"/>
        <pt x="312" y="1369" on="0"/>
        <pt x="312" y="1377" on="1"/>
        <pt x="312" y="1386" on="0"/>
        <pt x="323" y="1405" on="0"/>
        <pt x="339" y="1421" on="0"/>
        <pt x="357" y="1431" on="0"/>
        <pt x="364" y="1431" on="1"/>
        <pt x="366" y="1431" on="1"/>
        <pt x="372" y="1429" on="0"/>
        <pt x="387" y="1426" on="0"/>
        <pt x="390" y="1426" on="1"/>
        <pt x="592" y="1417" on="1"/>
        <pt x="605" y="1417" on="0"/>
        <pt x="626" y="1417" on="0"/>
        <pt x="637" y="1419" on="1"/>
        <pt x="642" y="1410" on="0"/>
        <pt x="660" y="1402" on="0"/>
        <pt x="681" y="1398" on="0"/>
        <pt x="702" y="1397" on="0"/>
        <pt x="710" y="1396" on="1"/>
        <pt x="793" y="1396" on="1"/>
        <pt x="804" y="1385" on="0"/>
        <pt x="823" y="1382" on="0"/>
        <pt x="836" y="1382" on="1"/>
        <pt x="850" y="1382" on="0"/>
        <pt x="873" y="1396" on="0"/>
        <pt x="886" y="1396" on="1"/>
        <pt x="898" y="1396" on="0"/>
        <pt x="943" y="1389" on="0"/>
        <pt x="989" y="1376" on="0"/>
        <pt x="1028" y="1358" on="0"/>
        <pt x="1033" y="1346" on="1"/>
        <pt x="1049" y="1349" on="0"/>
        <pt x="1063" y="1349" on="1"/>
        <pt x="1091" y="1349" on="0"/>
        <pt x="1138" y="1322" on="0"/>
        <pt x="1174" y="1281" on="0"/>
        <pt x="1201" y="1232" on="0"/>
        <pt x="1210" y="1209" on="1"/>
        <pt x="1214" y="1199" on="0"/>
        <pt x="1222" y="1186" on="0"/>
        <pt x="1228" y="1174" on="0"/>
        <pt x="1231" y="1160" on="0"/>
        <pt x="1231" y="1150" on="1"/>
        <pt x="1231" y="1129" on="0"/>
        <pt x="1213" y="1084" on="0"/>
        <pt x="1188" y="1039" on="0"/>
        <pt x="1159" y="999" on="0"/>
        <pt x="1148" y="984" on="1"/>
        <pt x="1142" y="979" on="0"/>
        <pt x="1112" y="945" on="0"/>
        <pt x="1079" y="903" on="0"/>
        <pt x="1048" y="865" on="0"/>
        <pt x="1042" y="856" on="1"/>
        <pt x="1022" y="831" on="0"/>
        <pt x="988" y="787" on="0"/>
        <pt x="988" y="756" on="1"/>
        <pt x="988" y="755" on="0"/>
        <pt x="988" y="746" on="0"/>
        <pt x="988" y="735" on="0"/>
        <pt x="989" y="726" on="0"/>
        <pt x="990" y="725" on="1"/>
        <pt x="1056" y="666" on="1"/>
        <pt x="1095" y="605" on="0"/>
        <pt x="1132" y="478" on="0"/>
        <pt x="1132" y="403" on="1"/>
        <pt x="1132" y="389" on="0"/>
        <pt x="1118" y="373" on="0"/>
        <pt x="1118" y="356" on="1"/>
        <pt x="1127" y="298" on="1"/>
        <pt x="1125" y="291" on="0"/>
        <pt x="1117" y="265" on="0"/>
        <pt x="1106" y="237" on="0"/>
        <pt x="1093" y="213" on="0"/>
        <pt x="1087" y="209" on="1"/>
        <pt x="1086" y="209" on="0"/>
        <pt x="1075" y="204" on="0"/>
        <pt x="1062" y="197" on="0"/>
        <pt x="1051" y="191" on="0"/>
        <pt x="1051" y="189" on="1"/>
        <pt x="1049" y="188" on="0"/>
        <pt x="1042" y="179" on="0"/>
        <pt x="1035" y="169" on="0"/>
        <pt x="1029" y="160" on="0"/>
        <pt x="1028" y="159" on="1"/>
        <pt x="1014" y="142" on="0"/>
        <pt x="995" y="127" on="0"/>
        <pt x="975" y="118" on="0"/>
        <pt x="952" y="109" on="0"/>
        <pt x="936" y="99" on="1"/>
        <pt x="935" y="97" on="0"/>
        <pt x="929" y="89" on="0"/>
        <pt x="923" y="80" on="0"/>
        <pt x="919" y="73" on="0"/>
        <pt x="919" y="73" on="1"/>
        <pt x="912" y="66" on="0"/>
        <pt x="889" y="52" on="0"/>
        <pt x="863" y="41" on="0"/>
        <pt x="839" y="32" on="0"/>
        <pt x="831" y="29" on="1"/>
        <pt x="827" y="28" on="1"/>
        <pt x="796" y="28" on="1"/>
        <pt x="570" y="9" on="1"/>
        <pt x="471" y="16" on="1"/>
        <pt x="430" y="9" on="1"/>
        <pt x="352" y="16" on="1"/>
        <pt x="314" y="16" on="0"/>
        <pt x="244" y="0" on="0"/>
        <pt x="212" y="0" on="1"/>
        <pt x="202" y="0" on="0"/>
        <pt x="192" y="2" on="0"/>
      </contour>
      <contour>
        <pt x="480" y="183" on="1"/>
        <pt x="480" y="162" on="0"/>
        <pt x="502" y="138" on="0"/>
        <pt x="534" y="127" on="0"/>
        <pt x="570" y="125" on="0"/>
        <pt x="584" y="125" on="1"/>
        <pt x="623" y="125" on="1"/>
        <pt x="626" y="125" on="0"/>
        <pt x="642" y="134" on="0"/>
        <pt x="659" y="143" on="0"/>
        <pt x="674" y="152" on="0"/>
        <pt x="675" y="152" on="1"/>
        <pt x="717" y="154" on="1"/>
        <pt x="744" y="156" on="0"/>
        <pt x="771" y="182" on="0"/>
        <pt x="788" y="195" on="1"/>
        <pt x="806" y="209" on="0"/>
        <pt x="842" y="230" on="0"/>
        <pt x="874" y="255" on="0"/>
        <pt x="899" y="288" on="0"/>
        <pt x="905" y="313" on="1"/>
        <pt x="906" y="320" on="0"/>
        <pt x="907" y="340" on="0"/>
        <pt x="910" y="361" on="0"/>
        <pt x="916" y="380" on="0"/>
        <pt x="924" y="386" on="1"/>
        <pt x="926" y="404" on="0"/>
        <pt x="936" y="457" on="0"/>
        <pt x="936" y="483" on="1"/>
        <pt x="936" y="483" on="0"/>
        <pt x="933" y="492" on="0"/>
        <pt x="929" y="501" on="0"/>
        <pt x="925" y="510" on="0"/>
        <pt x="924" y="510" on="1"/>
        <pt x="914" y="537" on="0"/>
        <pt x="892" y="584" on="0"/>
        <pt x="866" y="626" on="0"/>
        <pt x="836" y="667" on="0"/>
        <pt x="819" y="689" on="1"/>
        <pt x="807" y="704" on="1"/>
        <pt x="786" y="713" on="0"/>
        <pt x="734" y="725" on="0"/>
        <pt x="712" y="725" on="1"/>
        <pt x="705" y="725" on="0"/>
        <pt x="671" y="716" on="0"/>
        <pt x="635" y="702" on="0"/>
        <pt x="606" y="685" on="0"/>
        <pt x="604" y="678" on="1"/>
        <pt x="600" y="623" on="0"/>
        <pt x="579" y="525" on="0"/>
        <pt x="568" y="477" on="1"/>
        <pt x="554" y="473" on="0"/>
        <pt x="543" y="444" on="0"/>
        <pt x="540" y="408" on="0"/>
        <pt x="541" y="375" on="0"/>
        <pt x="539" y="367" on="1"/>
        <pt x="525" y="346" on="1"/>
        <pt x="525" y="345" on="0"/>
        <pt x="524" y="330" on="0"/>
        <pt x="522" y="314" on="0"/>
        <pt x="520" y="299" on="0"/>
        <pt x="520" y="298" on="1"/>
        <pt x="518" y="291" on="0"/>
        <pt x="507" y="260" on="0"/>
        <pt x="495" y="224" on="0"/>
        <pt x="483" y="192" on="0"/>
      </contour>
      <contour>
        <pt x="675" y="851" on="1"/>
        <pt x="675" y="843" on="0"/>
        <pt x="682" y="822" on="0"/>
        <pt x="694" y="804" on="0"/>
        <pt x="708" y="792" on="0"/>
        <pt x="715" y="792" on="1"/>
        <pt x="736" y="792" on="0"/>
        <pt x="789" y="795" on="0"/>
        <pt x="842" y="803" on="0"/>
        <pt x="892" y="818" on="0"/>
        <pt x="912" y="830" on="1"/>
        <pt x="940" y="848" on="0"/>
        <pt x="985" y="928" on="0"/>
        <pt x="1016" y="1021" on="0"/>
        <pt x="1033" y="1112" on="0"/>
        <pt x="1033" y="1142" on="1"/>
        <pt x="1033" y="1150" on="1"/>
        <pt x="985" y="1247" on="1"/>
        <pt x="980" y="1253" on="0"/>
        <pt x="964" y="1269" on="0"/>
        <pt x="944" y="1284" on="0"/>
        <pt x="925" y="1294" on="0"/>
        <pt x="919" y="1294" on="1"/>
        <pt x="868" y="1294" on="0"/>
        <pt x="817" y="1267" on="0"/>
        <pt x="793" y="1221" on="0"/>
        <pt x="781" y="1157" on="0"/>
        <pt x="769" y="1121" on="1"/>
        <pt x="762" y="1106" on="0"/>
        <pt x="747" y="1068" on="0"/>
        <pt x="733" y="1028" on="0"/>
        <pt x="720" y="988" on="0"/>
        <pt x="715" y="972" on="1"/>
        <pt x="713" y="965" on="1"/>
        <pt x="713" y="915" on="1"/>
        <pt x="713" y="904" on="0"/>
        <pt x="701" y="890" on="0"/>
        <pt x="687" y="877" on="0"/>
        <pt x="675" y="862" on="0"/>
      </contour>
    </TTGlyph>
    <TTGlyph name="Breve" xMin="533" yMin="1572" xMax="978" yMax="1854">
      <contour>
        <pt x="693" y="1572" on="1"/>
        <pt x="685" y="1572" on="0"/>
        <pt x="669" y="1573" on="0"/>
        <pt x="663" y="1575" on="1"/>
        <pt x="663" y="1575" on="0"/>
        <pt x="650" y="1579" on="0"/>
        <pt x="636" y="1584" on="0"/>
        <pt x="625" y="1588" on="0"/>
        <pt x="625" y="1588" on="1"/>
        <pt x="612" y="1590" on="1"/>
        <pt x="598" y="1592" on="0"/>
        <pt x="585" y="1611" on="0"/>
        <pt x="579" y="1615" on="1"/>
        <pt x="565" y="1624" on="1"/>
        <pt x="557" y="1633" on="0"/>
        <pt x="550" y="1656" on="0"/>
        <pt x="545" y="1680" on="0"/>
        <pt x="540" y="1705" on="0"/>
        <pt x="534" y="1716" on="1"/>
        <pt x="536" y="1731" on="1"/>
        <pt x="533" y="1741" on="1"/>
        <pt x="533" y="1743" on="0"/>
        <pt x="533" y="1750" on="0"/>
        <pt x="534" y="1754" on="1"/>
        <pt x="537" y="1766" on="1"/>
        <pt x="545" y="1804" on="1"/>
        <pt x="547" y="1812" on="0"/>
        <pt x="549" y="1832" on="0"/>
        <pt x="550" y="1840" on="1"/>
        <pt x="562" y="1854" on="0"/>
        <pt x="575" y="1854" on="1"/>
        <pt x="590" y="1854" on="0"/>
        <pt x="595" y="1840" on="1"/>
        <pt x="595" y="1835" on="0"/>
        <pt x="595" y="1822" on="0"/>
        <pt x="596" y="1816" on="1"/>
        <pt x="598" y="1805" on="0"/>
        <pt x="614" y="1783" on="0"/>
        <pt x="616" y="1772" on="1"/>
        <pt x="616" y="1766" on="1"/>
        <pt x="618" y="1758" on="0"/>
        <pt x="622" y="1743" on="0"/>
        <pt x="629" y="1736" on="1"/>
        <pt x="640" y="1725" on="0"/>
        <pt x="677" y="1705" on="0"/>
        <pt x="693" y="1702" on="1"/>
        <pt x="704" y="1700" on="0"/>
        <pt x="722" y="1698" on="0"/>
        <pt x="732" y="1695" on="1"/>
        <pt x="740" y="1693" on="0"/>
        <pt x="750" y="1688" on="0"/>
        <pt x="757" y="1688" on="1"/>
        <pt x="764" y="1688" on="0"/>
        <pt x="767" y="1690" on="1"/>
        <pt x="775" y="1694" on="0"/>
        <pt x="783" y="1696" on="0"/>
        <pt x="785" y="1696" on="1"/>
        <pt x="786" y="1697" on="1"/>
        <pt x="787" y="1698" on="0"/>
        <pt x="787" y="1699" on="0"/>
        <pt x="788" y="1700" on="1"/>
        <pt x="789" y="1702" on="0"/>
        <pt x="790" y="1705" on="1"/>
        <pt x="803" y="1714" on="1"/>
        <pt x="849" y="1731" on="1"/>
        <pt x="855" y="1735" on="1"/>
        <pt x="870" y="1744" on="1"/>
        <pt x="873" y="1747" on="0"/>
        <pt x="874" y="1749" on="1"/>
        <pt x="877" y="1752" on="1"/>
        <pt x="885" y="1758" on="0"/>
        <pt x="898" y="1786" on="0"/>
        <pt x="909" y="1796" on="1"/>
        <pt x="914" y="1800" on="1"/>
        <pt x="916" y="1808" on="1"/>
        <pt x="933" y="1840" on="1"/>
        <pt x="945" y="1854" on="0"/>
        <pt x="958" y="1854" on="1"/>
        <pt x="966" y="1854" on="0"/>
        <pt x="975" y="1845" on="0"/>
        <pt x="978" y="1840" on="1"/>
        <pt x="971" y="1807" on="1"/>
        <pt x="969" y="1796" on="0"/>
        <pt x="962" y="1770" on="0"/>
        <pt x="957" y="1761" on="1"/>
        <pt x="949" y="1746" on="0"/>
        <pt x="928" y="1713" on="0"/>
        <pt x="923" y="1702" on="1"/>
        <pt x="915" y="1687" on="0"/>
        <pt x="903" y="1663" on="0"/>
        <pt x="894" y="1652" on="1"/>
        <pt x="877" y="1631" on="0"/>
        <pt x="839" y="1602" on="0"/>
        <pt x="816" y="1596" on="1"/>
        <pt x="797" y="1591" on="0"/>
        <pt x="769" y="1576" on="0"/>
        <pt x="745" y="1574" on="1"/>
        <pt x="734" y="1573" on="0"/>
        <pt x="714" y="1572" on="0"/>
        <pt x="706" y="1572" on="1"/>
      </contour>
    </TTGlyph>
    <TTGlyph name="C" xMin="142" yMin="-5" xMax="1192" yMax="1434">
      <contour>
        <pt x="142" y="313" on="1"/>
        <pt x="142" y="380" on="0"/>
        <pt x="166" y="517" on="0"/>
        <pt x="206" y="652" on="0"/>
        <pt x="258" y="782" on="0"/>
        <pt x="286" y="843" on="1"/>
        <pt x="300" y="872" on="0"/>
        <pt x="342" y="936" on="0"/>
        <pt x="351" y="965" on="1"/>
        <pt x="357" y="983" on="1"/>
        <pt x="364" y="1005" on="0"/>
        <pt x="380" y="1050" on="0"/>
        <pt x="401" y="1094" on="0"/>
        <pt x="429" y="1134" on="0"/>
        <pt x="448" y="1150" on="1"/>
        <pt x="451" y="1151" on="0"/>
        <pt x="470" y="1166" on="0"/>
        <pt x="493" y="1184" on="0"/>
        <pt x="511" y="1199" on="0"/>
        <pt x="512" y="1202" on="1"/>
        <pt x="515" y="1203" on="0"/>
        <pt x="523" y="1216" on="0"/>
        <pt x="532" y="1231" on="0"/>
        <pt x="539" y="1244" on="0"/>
        <pt x="540" y="1246" on="1"/>
        <pt x="555" y="1264" on="0"/>
        <pt x="593" y="1301" on="0"/>
        <pt x="635" y="1337" on="0"/>
        <pt x="677" y="1369" on="0"/>
        <pt x="697" y="1382" on="1"/>
        <pt x="711" y="1391" on="0"/>
        <pt x="739" y="1396" on="0"/>
        <pt x="756" y="1401" on="1"/>
        <pt x="757" y="1402" on="0"/>
        <pt x="774" y="1412" on="0"/>
        <pt x="795" y="1424" on="0"/>
        <pt x="814" y="1434" on="0"/>
        <pt x="818" y="1434" on="1"/>
        <pt x="836" y="1434" on="0"/>
        <pt x="902" y="1424" on="0"/>
        <pt x="973" y="1406" on="0"/>
        <pt x="1035" y="1382" on="0"/>
        <pt x="1047" y="1368" on="1"/>
        <pt x="1171" y="1368" on="1"/>
        <pt x="1175" y="1368" on="0"/>
        <pt x="1183" y="1358" on="0"/>
        <pt x="1189" y="1344" on="0"/>
        <pt x="1192" y="1332" on="0"/>
        <pt x="1192" y="1329" on="1"/>
        <pt x="1192" y="1314" on="0"/>
        <pt x="1178" y="1264" on="0"/>
        <pt x="1160" y="1211" on="0"/>
        <pt x="1143" y="1163" on="0"/>
        <pt x="1140" y="1150" on="1"/>
        <pt x="1135" y="1131" on="0"/>
        <pt x="1129" y="1083" on="0"/>
        <pt x="1114" y="1041" on="0"/>
        <pt x="1083" y="1012" on="0"/>
        <pt x="1052" y="1012" on="1"/>
        <pt x="1045" y="1012" on="0"/>
        <pt x="1031" y="1027" on="0"/>
        <pt x="1020" y="1046" on="0"/>
        <pt x="1011" y="1067" on="0"/>
        <pt x="1010" y="1073" on="1"/>
        <pt x="1009" y="1074" on="0"/>
        <pt x="1003" y="1089" on="0"/>
        <pt x="997" y="1109" on="0"/>
        <pt x="991" y="1130" on="0"/>
        <pt x="990" y="1137" on="1"/>
        <pt x="990" y="1140" on="1"/>
        <pt x="990" y="1154" on="0"/>
        <pt x="1004" y="1180" on="0"/>
        <pt x="1004" y="1197" on="1"/>
        <pt x="1004" y="1207" on="0"/>
        <pt x="997" y="1242" on="0"/>
        <pt x="985" y="1278" on="0"/>
        <pt x="968" y="1310" on="0"/>
        <pt x="957" y="1317" on="1"/>
        <pt x="931" y="1317" on="1"/>
        <pt x="919" y="1319" on="0"/>
        <pt x="902" y="1322" on="0"/>
        <pt x="891" y="1322" on="1"/>
        <pt x="874" y="1322" on="0"/>
        <pt x="840" y="1316" on="0"/>
        <pt x="815" y="1311" on="1"/>
        <pt x="799" y="1297" on="0"/>
        <pt x="773" y="1268" on="0"/>
        <pt x="748" y="1238" on="0"/>
        <pt x="721" y="1208" on="0"/>
        <pt x="704" y="1195" on="1"/>
        <pt x="694" y="1187" on="0"/>
        <pt x="677" y="1156" on="0"/>
        <pt x="663" y="1122" on="0"/>
        <pt x="651" y="1089" on="0"/>
        <pt x="645" y="1078" on="1"/>
        <pt x="597" y="1007" on="1"/>
        <pt x="584" y="984" on="0"/>
        <pt x="551" y="926" on="0"/>
        <pt x="540" y="900" on="1"/>
        <pt x="540" y="898" on="0"/>
        <pt x="536" y="885" on="0"/>
        <pt x="535" y="882" on="1"/>
        <pt x="528" y="859" on="0"/>
        <pt x="505" y="814" on="0"/>
        <pt x="479" y="770" on="0"/>
        <pt x="455" y="724" on="0"/>
        <pt x="448" y="699" on="1"/>
        <pt x="448" y="697" on="0"/>
        <pt x="450" y="673" on="0"/>
        <pt x="450" y="663" on="1"/>
        <pt x="450" y="658" on="0"/>
        <pt x="450" y="649" on="0"/>
        <pt x="448" y="647" on="1"/>
        <pt x="447" y="638" on="0"/>
        <pt x="439" y="622" on="0"/>
        <pt x="428" y="606" on="0"/>
        <pt x="418" y="590" on="0"/>
        <pt x="415" y="581" on="1"/>
        <pt x="403" y="510" on="1"/>
        <pt x="398" y="488" on="0"/>
        <pt x="368" y="446" on="0"/>
        <pt x="360" y="426" on="1"/>
        <pt x="359" y="420" on="0"/>
        <pt x="356" y="394" on="0"/>
        <pt x="353" y="365" on="0"/>
        <pt x="351" y="340" on="0"/>
        <pt x="351" y="336" on="1"/>
        <pt x="351" y="306" on="0"/>
        <pt x="381" y="233" on="0"/>
        <pt x="427" y="169" on="0"/>
        <pt x="484" y="126" on="0"/>
        <pt x="510" y="126" on="1"/>
        <pt x="518" y="126" on="0"/>
        <pt x="526" y="128" on="0"/>
        <pt x="533" y="132" on="0"/>
        <pt x="543" y="140" on="0"/>
        <pt x="554" y="145" on="1"/>
        <pt x="635" y="185" on="1"/>
        <pt x="658" y="199" on="0"/>
        <pt x="714" y="266" on="0"/>
        <pt x="773" y="334" on="0"/>
        <pt x="830" y="386" on="0"/>
        <pt x="853" y="386" on="1"/>
        <pt x="862" y="386" on="0"/>
        <pt x="867" y="373" on="0"/>
        <pt x="867" y="365" on="1"/>
        <pt x="867" y="360" on="0"/>
        <pt x="865" y="348" on="0"/>
        <pt x="865" y="346" on="1"/>
        <pt x="865" y="325" on="0"/>
        <pt x="848" y="280" on="0"/>
        <pt x="821" y="237" on="0"/>
        <pt x="789" y="198" on="0"/>
        <pt x="773" y="185" on="1"/>
        <pt x="767" y="179" on="0"/>
        <pt x="737" y="151" on="0"/>
        <pt x="703" y="120" on="0"/>
        <pt x="671" y="92" on="0"/>
        <pt x="664" y="88" on="1"/>
        <pt x="662" y="87" on="0"/>
        <pt x="650" y="81" on="0"/>
        <pt x="638" y="74" on="0"/>
        <pt x="627" y="68" on="0"/>
        <pt x="626" y="67" on="1"/>
        <pt x="592" y="42" on="1"/>
        <pt x="587" y="37" on="0"/>
        <pt x="574" y="35" on="0"/>
        <pt x="569" y="35" on="1"/>
        <pt x="550" y="35" on="1"/>
        <pt x="535" y="33" on="1"/>
        <pt x="524" y="31" on="0"/>
        <pt x="506" y="22" on="0"/>
        <pt x="497" y="16" on="1"/>
        <pt x="486" y="8" on="0"/>
        <pt x="463" y="-5" on="0"/>
        <pt x="438" y="-5" on="1"/>
        <pt x="436" y="-5" on="0"/>
        <pt x="428" y="0" on="0"/>
        <pt x="419" y="5" on="0"/>
        <pt x="411" y="10" on="0"/>
        <pt x="410" y="10" on="1"/>
        <pt x="407" y="10" on="0"/>
        <pt x="383" y="12" on="0"/>
        <pt x="355" y="14" on="0"/>
        <pt x="330" y="17" on="0"/>
        <pt x="327" y="17" on="1"/>
        <pt x="280" y="28" on="0"/>
        <pt x="230" y="79" on="0"/>
        <pt x="203" y="144" on="0"/>
        <pt x="186" y="216" on="0"/>
        <pt x="171" y="249" on="1"/>
        <pt x="171" y="250" on="0"/>
        <pt x="164" y="257" on="0"/>
        <pt x="157" y="266" on="0"/>
        <pt x="151" y="274" on="0"/>
        <pt x="151" y="275" on="1"/>
        <pt x="146" y="279" on="0"/>
        <pt x="142" y="309" on="0"/>
      </contour>
    </TTGlyph>
    <TTGlyph name="Cacute" xMin="142" yMin="-5" xMax="1357" yMax="1854">
      <component glyphName="C" x="0" y="0" flags="0x204"/>
      <component glyphName="Acute" x="-8" y="0" flags="0x4"/>
    </TTGlyph>
    <TTGlyph name="Caron" xMin="628" yMin="1519" xMax="1128" yMax="1848">
      <contour>
        <pt x="663" y="1697" on="1"/>
        <pt x="655" y="1708" on="0"/>
        <pt x="648" y="1732" on="0"/>
        <pt x="646" y="1745" on="1"/>
        <pt x="644" y="1757" on="0"/>
        <pt x="640" y="1780" on="0"/>
        <pt x="632" y="1790" on="1"/>
        <pt x="628" y="1832" on="1"/>
        <pt x="630" y="1839" on="0"/>
        <pt x="648" y="1843" on="0"/>
        <pt x="653" y="1848" on="1"/>
        <pt x="670" y="1839" on="1"/>
        <pt x="698" y="1799" on="1"/>
        <pt x="703" y="1791" on="0"/>
        <pt x="715" y="1778" on="0"/>
        <pt x="722" y="1771" on="1"/>
        <pt x="727" y="1765" on="0"/>
        <pt x="734" y="1752" on="0"/>
        <pt x="741" y="1745" on="1"/>
        <pt x="750" y="1736" on="0"/>
        <pt x="773" y="1717" on="0"/>
        <pt x="781" y="1706" on="1"/>
        <pt x="786" y="1694" on="0"/>
        <pt x="808" y="1679" on="0"/>
        <pt x="817" y="1671" on="1"/>
        <pt x="843" y="1683" on="0"/>
        <pt x="878" y="1695" on="0"/>
        <pt x="891" y="1709" on="1"/>
        <pt x="916" y="1718" on="0"/>
        <pt x="960" y="1746" on="0"/>
        <pt x="1002" y="1777" on="0"/>
        <pt x="1045" y="1806" on="0"/>
        <pt x="1070" y="1816" on="1"/>
        <pt x="1084" y="1823" on="0"/>
        <pt x="1113" y="1835" on="0"/>
        <pt x="1128" y="1844" on="1"/>
        <pt x="1128" y="1828" on="0"/>
        <pt x="1124" y="1801" on="0"/>
        <pt x="1121" y="1790" on="1"/>
        <pt x="1094" y="1759" on="0"/>
        <pt x="1034" y="1706" on="0"/>
        <pt x="1002" y="1683" on="1"/>
        <pt x="991" y="1671" on="0"/>
        <pt x="966" y="1655" on="0"/>
        <pt x="941" y="1639" on="0"/>
        <pt x="918" y="1622" on="0"/>
        <pt x="909" y="1609" on="1"/>
        <pt x="881" y="1579" on="0"/>
        <pt x="818" y="1541" on="0"/>
        <pt x="774" y="1519" on="1"/>
        <pt x="765" y="1528" on="1"/>
        <pt x="740" y="1548" on="0"/>
        <pt x="702" y="1590" on="0"/>
        <pt x="696" y="1617" on="1"/>
        <pt x="694" y="1642" on="1"/>
        <pt x="687" y="1653" on="0"/>
        <pt x="665" y="1679" on="0"/>
      </contour>
    </TTGlyph>
    <TTGlyph name="Ccaron" xMin="142" yMin="-5" xMax="1278" yMax="1848">
      <component glyphName="C" x="0" y="0" flags="0x204"/>
      <component glyphName="Caron" x="150" y="0" flags="0x4"/>
    </TTGlyph>
    <TTGlyph name="Ccedilla" xMin="142" yMin="-503" xMax="1192" yMax="1434">
      <contour>
        <pt x="142" y="313" on="1"/>
        <pt x="142" y="380" on="0"/>
        <pt x="166" y="517" on="0"/>
        <pt x="206" y="652" on="0"/>
        <pt x="258" y="782" on="0"/>
        <pt x="286" y="843" on="1"/>
        <pt x="300" y="872" on="0"/>
        <pt x="342" y="936" on="0"/>
        <pt x="351" y="965" on="1"/>
        <pt x="357" y="983" on="1"/>
        <pt x="364" y="1005" on="0"/>
        <pt x="380" y="1050" on="0"/>
        <pt x="401" y="1094" on="0"/>
        <pt x="429" y="1134" on="0"/>
        <pt x="448" y="1150" on="1"/>
        <pt x="451" y="1151" on="0"/>
        <pt x="470" y="1166" on="0"/>
        <pt x="493" y="1184" on="0"/>
        <pt x="511" y="1199" on="0"/>
        <pt x="512" y="1202" on="1"/>
        <pt x="515" y="1203" on="0"/>
        <pt x="523" y="1216" on="0"/>
        <pt x="532" y="1231" on="0"/>
        <pt x="539" y="1244" on="0"/>
        <pt x="540" y="1246" on="1"/>
        <pt x="555" y="1264" on="0"/>
        <pt x="593" y="1301" on="0"/>
        <pt x="635" y="1337" on="0"/>
        <pt x="677" y="1369" on="0"/>
        <pt x="697" y="1382" on="1"/>
        <pt x="711" y="1391" on="0"/>
        <pt x="739" y="1396" on="0"/>
        <pt x="756" y="1401" on="1"/>
        <pt x="757" y="1402" on="0"/>
        <pt x="774" y="1412" on="0"/>
        <pt x="795" y="1424" on="0"/>
        <pt x="814" y="1434" on="0"/>
        <pt x="818" y="1434" on="1"/>
        <pt x="836" y="1434" on="0"/>
        <pt x="902" y="1424" on="0"/>
        <pt x="973" y="1406" on="0"/>
        <pt x="1035" y="1382" on="0"/>
        <pt x="1047" y="1368" on="1"/>
        <pt x="1171" y="1368" on="1"/>
        <pt x="1175" y="1368" on="0"/>
        <pt x="1183" y="1358" on="0"/>
        <pt x="1189" y="1344" on="0"/>
        <pt x="1192" y="1332" on="0"/>
        <pt x="1192" y="1329" on="1"/>
        <pt x="1192" y="1314" on="0"/>
        <pt x="1178" y="1264" on="0"/>
        <pt x="1160" y="1211" on="0"/>
        <pt x="1143" y="1163" on="0"/>
        <pt x="1140" y="1150" on="1"/>
        <pt x="1135" y="1131" on="0"/>
        <pt x="1129" y="1083" on="0"/>
        <pt x="1114" y="1041" on="0"/>
        <pt x="1083" y="1012" on="0"/>
        <pt x="1052" y="1012" on="1"/>
        <pt x="1045" y="1012" on="0"/>
        <pt x="1031" y="1027" on="0"/>
        <pt x="1020" y="1046" on="0"/>
        <pt x="1011" y="1067" on="0"/>
        <pt x="1010" y="1073" on="1"/>
        <pt x="1009" y="1074" on="0"/>
        <pt x="1003" y="1089" on="0"/>
        <pt x="997" y="1109" on="0"/>
        <pt x="991" y="1130" on="0"/>
        <pt x="990" y="1137" on="1"/>
        <pt x="990" y="1140" on="1"/>
        <pt x="990" y="1154" on="0"/>
        <pt x="1004" y="1180" on="0"/>
        <pt x="1004" y="1197" on="1"/>
        <pt x="1004" y="1207" on="0"/>
        <pt x="997" y="1242" on="0"/>
        <pt x="985" y="1278" on="0"/>
        <pt x="968" y="1310" on="0"/>
        <pt x="957" y="1317" on="1"/>
        <pt x="931" y="1317" on="1"/>
        <pt x="919" y="1319" on="0"/>
        <pt x="902" y="1322" on="0"/>
        <pt x="891" y="1322" on="1"/>
        <pt x="874" y="1322" on="0"/>
        <pt x="840" y="1316" on="0"/>
        <pt x="815" y="1311" on="1"/>
        <pt x="799" y="1297" on="0"/>
        <pt x="773" y="1268" on="0"/>
        <pt x="748" y="1238" on="0"/>
        <pt x="721" y="1208" on="0"/>
        <pt x="704" y="1195" on="1"/>
        <pt x="694" y="1187" on="0"/>
        <pt x="677" y="1156" on="0"/>
        <pt x="663" y="1122" on="0"/>
        <pt x="651" y="1089" on="0"/>
        <pt x="645" y="1078" on="1"/>
        <pt x="597" y="1007" on="1"/>
        <pt x="584" y="984" on="0"/>
        <pt x="551" y="926" on="0"/>
        <pt x="540" y="900" on="1"/>
        <pt x="540" y="898" on="0"/>
        <pt x="536" y="885" on="0"/>
        <pt x="535" y="882" on="1"/>
        <pt x="528" y="859" on="0"/>
        <pt x="505" y="814" on="0"/>
        <pt x="479" y="770" on="0"/>
        <pt x="455" y="724" on="0"/>
        <pt x="448" y="699" on="1"/>
        <pt x="448" y="697" on="0"/>
        <pt x="450" y="673" on="0"/>
        <pt x="450" y="663" on="1"/>
        <pt x="450" y="658" on="0"/>
        <pt x="450" y="649" on="0"/>
        <pt x="448" y="647" on="1"/>
        <pt x="447" y="638" on="0"/>
        <pt x="439" y="622" on="0"/>
        <pt x="428" y="606" on="0"/>
        <pt x="418" y="590" on="0"/>
        <pt x="415" y="581" on="1"/>
        <pt x="403" y="510" on="1"/>
        <pt x="398" y="488" on="0"/>
        <pt x="368" y="446" on="0"/>
        <pt x="360" y="426" on="1"/>
        <pt x="359" y="420" on="0"/>
        <pt x="356" y="394" on="0"/>
        <pt x="353" y="365" on="0"/>
        <pt x="351" y="340" on="0"/>
        <pt x="351" y="336" on="1"/>
        <pt x="351" y="306" on="0"/>
        <pt x="381" y="233" on="0"/>
        <pt x="427" y="169" on="0"/>
        <pt x="484" y="126" on="0"/>
        <pt x="510" y="126" on="1"/>
        <pt x="518" y="126" on="0"/>
        <pt x="526" y="128" on="0"/>
        <pt x="533" y="132" on="0"/>
        <pt x="543" y="140" on="0"/>
        <pt x="554" y="145" on="1"/>
        <pt x="635" y="185" on="1"/>
        <pt x="658" y="199" on="0"/>
        <pt x="714" y="266" on="0"/>
        <pt x="773" y="334" on="0"/>
        <pt x="830" y="386" on="0"/>
        <pt x="853" y="386" on="1"/>
        <pt x="862" y="386" on="0"/>
        <pt x="867" y="373" on="0"/>
        <pt x="867" y="365" on="1"/>
        <pt x="867" y="360" on="0"/>
        <pt x="865" y="348" on="0"/>
        <pt x="865" y="346" on="1"/>
        <pt x="865" y="325" on="0"/>
        <pt x="848" y="280" on="0"/>
        <pt x="821" y="237" on="0"/>
        <pt x="789" y="198" on="0"/>
        <pt x="773" y="185" on="1"/>
        <pt x="767" y="179" on="0"/>
        <pt x="737" y="151" on="0"/>
        <pt x="703" y="120" on="0"/>
        <pt x="671" y="92" on="0"/>
        <pt x="664" y="88" on="1"/>
        <pt x="662" y="87" on="0"/>
        <pt x="650" y="81" on="0"/>
        <pt x="638" y="74" on="0"/>
        <pt x="627" y="68" on="0"/>
        <pt x="626" y="67" on="1"/>
        <pt x="592" y="42" on="1"/>
        <pt x="587" y="37" on="0"/>
        <pt x="574" y="35" on="0"/>
        <pt x="569" y="35" on="1"/>
        <pt x="550" y="35" on="1"/>
        <pt x="535" y="33" on="1"/>
        <pt x="524" y="31" on="0"/>
        <pt x="506" y="22" on="0"/>
        <pt x="497" y="16" on="1"/>
        <pt x="489" y="10" on="0"/>
        <pt x="473" y="-1" on="0"/>
        <pt x="459" y="-3" on="1"/>
        <pt x="458" y="-6" on="0"/>
        <pt x="458" y="-10" on="1"/>
        <pt x="449" y="-35" on="0"/>
        <pt x="423" y="-79" on="0"/>
        <pt x="423" y="-105" on="1"/>
        <pt x="423" y="-125" on="0"/>
        <pt x="438" y="-163" on="0"/>
        <pt x="455" y="-201" on="0"/>
        <pt x="470" y="-240" on="0"/>
        <pt x="470" y="-259" on="1"/>
        <pt x="470" y="-261" on="1"/>
        <pt x="470" y="-263" on="0"/>
        <pt x="465" y="-279" on="0"/>
        <pt x="465" y="-282" on="1"/>
        <pt x="464" y="-285" on="0"/>
        <pt x="460" y="-307" on="0"/>
        <pt x="456" y="-333" on="0"/>
        <pt x="452" y="-355" on="0"/>
        <pt x="451" y="-358" on="1"/>
        <pt x="451" y="-360" on="0"/>
        <pt x="447" y="-370" on="0"/>
        <pt x="441" y="-382" on="0"/>
        <pt x="435" y="-394" on="0"/>
        <pt x="434" y="-398" on="1"/>
        <pt x="405" y="-446" on="0"/>
        <pt x="329" y="-503" on="0"/>
        <pt x="269" y="-503" on="1"/>
        <pt x="267" y="-503" on="0"/>
        <pt x="257" y="-502" on="0"/>
        <pt x="245" y="-501" on="0"/>
        <pt x="234" y="-500" on="0"/>
        <pt x="231" y="-500" on="1"/>
        <pt x="205" y="-492" on="0"/>
        <pt x="186" y="-461" on="0"/>
        <pt x="186" y="-434" on="1"/>
        <pt x="186" y="-395" on="0"/>
        <pt x="214" y="-368" on="0"/>
        <pt x="251" y="-361" on="0"/>
        <pt x="290" y="-356" on="0"/>
        <pt x="302" y="-339" on="1"/>
        <pt x="304" y="-334" on="0"/>
        <pt x="304" y="-313" on="0"/>
        <pt x="304" y="-309" on="1"/>
        <pt x="304" y="-296" on="0"/>
        <pt x="296" y="-263" on="0"/>
        <pt x="282" y="-232" on="0"/>
        <pt x="262" y="-204" on="0"/>
        <pt x="250" y="-195" on="1"/>
        <pt x="250" y="-93" on="1"/>
        <pt x="258" y="-77" on="1"/>
        <pt x="261" y="-71" on="0"/>
        <pt x="267" y="-59" on="0"/>
        <pt x="269" y="-55" on="1"/>
        <pt x="275" y="-44" on="0"/>
        <pt x="302" y="-30" on="0"/>
        <pt x="333" y="-20" on="0"/>
        <pt x="365" y="-11" on="0"/>
        <pt x="376" y="-5" on="1"/>
        <pt x="379" y="6" on="0"/>
        <pt x="383" y="11" on="1"/>
        <pt x="366" y="13" on="0"/>
        <pt x="331" y="16" on="0"/>
        <pt x="327" y="17" on="1"/>
        <pt x="280" y="28" on="0"/>
        <pt x="230" y="79" on="0"/>
        <pt x="203" y="144" on="0"/>
        <pt x="186" y="216" on="0"/>
        <pt x="171" y="249" on="1"/>
        <pt x="171" y="250" on="0"/>
        <pt x="164" y="257" on="0"/>
        <pt x="157" y="266" on="0"/>
        <pt x="151" y="274" on="0"/>
        <pt x="151" y="275" on="1"/>
        <pt x="146" y="279" on="0"/>
        <pt x="142" y="309" on="0"/>
      </contour>
    </TTGlyph>
    <TTGlyph name="Circumflex" xMin="642" yMin="1517" xMax="1142" yMax="1846">
      <contour>
        <pt x="1107" y="1668" on="1"/>
        <pt x="1115" y="1657" on="0"/>
        <pt x="1122" y="1633" on="0"/>
        <pt x="1124" y="1620" on="1"/>
        <pt x="1126" y="1608" on="0"/>
        <pt x="1130" y="1585" on="0"/>
        <pt x="1138" y="1575" on="1"/>
        <pt x="1142" y="1533" on="1"/>
        <pt x="1140" y="1526" on="0"/>
        <pt x="1122" y="1522" on="0"/>
        <pt x="1117" y="1517" on="1"/>
        <pt x="1100" y="1526" on="1"/>
        <pt x="1072" y="1566" on="1"/>
        <pt x="1067" y="1574" on="0"/>
        <pt x="1055" y="1587" on="0"/>
        <pt x="1048" y="1594" on="1"/>
        <pt x="1043" y="1600" on="0"/>
        <pt x="1036" y="1613" on="0"/>
        <pt x="1029" y="1620" on="1"/>
        <pt x="1020" y="1629" on="0"/>
        <pt x="997" y="1648" on="0"/>
        <pt x="989" y="1659" on="1"/>
        <pt x="984" y="1671" on="0"/>
        <pt x="962" y="1686" on="0"/>
        <pt x="953" y="1694" on="1"/>
        <pt x="927" y="1682" on="0"/>
        <pt x="892" y="1670" on="0"/>
        <pt x="879" y="1656" on="1"/>
        <pt x="853" y="1647" on="0"/>
        <pt x="810" y="1619" on="0"/>
        <pt x="768" y="1588" on="0"/>
        <pt x="725" y="1559" on="0"/>
        <pt x="700" y="1550" on="1"/>
        <pt x="686" y="1543" on="0"/>
        <pt x="657" y="1531" on="0"/>
        <pt x="642" y="1522" on="1"/>
        <pt x="642" y="1538" on="0"/>
        <pt x="646" y="1565" on="0"/>
        <pt x="649" y="1576" on="1"/>
        <pt x="676" y="1607" on="0"/>
        <pt x="736" y="1659" on="0"/>
        <pt x="768" y="1682" on="1"/>
        <pt x="779" y="1694" on="0"/>
        <pt x="804" y="1710" on="0"/>
        <pt x="829" y="1726" on="0"/>
        <pt x="852" y="1743" on="0"/>
        <pt x="861" y="1756" on="1"/>
        <pt x="889" y="1786" on="0"/>
        <pt x="952" y="1824" on="0"/>
        <pt x="996" y="1846" on="1"/>
        <pt x="1005" y="1837" on="1"/>
        <pt x="1030" y="1817" on="0"/>
        <pt x="1068" y="1775" on="0"/>
        <pt x="1074" y="1748" on="1"/>
        <pt x="1076" y="1723" on="1"/>
        <pt x="1083" y="1712" on="0"/>
        <pt x="1105" y="1686" on="0"/>
      </contour>
    </TTGlyph>
    <TTGlyph name="D" xMin="35" yMin="-10" xMax="1436" yMax="1412">
      <contour>
        <pt x="522" y="1247" on="1"/>
        <pt x="520" y="1250" on="0"/>
        <pt x="509" y="1267" on="0"/>
        <pt x="497" y="1288" on="0"/>
        <pt x="486" y="1305" on="0"/>
        <pt x="483" y="1308" on="1"/>
        <pt x="483" y="1309" on="0"/>
        <pt x="480" y="1310" on="0"/>
        <pt x="467" y="1312" on="0"/>
        <pt x="441" y="1313" on="0"/>
        <pt x="419" y="1313" on="1"/>
        <pt x="415" y="1314" on="0"/>
        <pt x="393" y="1320" on="0"/>
        <pt x="371" y="1329" on="0"/>
        <pt x="353" y="1340" on="0"/>
        <pt x="353" y="1346" on="1"/>
        <pt x="353" y="1359" on="0"/>
        <pt x="369" y="1370" on="0"/>
        <pt x="381" y="1379" on="1"/>
        <pt x="392" y="1386" on="0"/>
        <pt x="401" y="1386" on="1"/>
        <pt x="438" y="1384" on="1"/>
        <pt x="438" y="1384" on="0"/>
        <pt x="446" y="1389" on="0"/>
        <pt x="456" y="1395" on="0"/>
        <pt x="465" y="1400" on="0"/>
        <pt x="467" y="1400" on="1"/>
        <pt x="485" y="1404" on="0"/>
        <pt x="540" y="1409" on="0"/>
        <pt x="602" y="1412" on="0"/>
        <pt x="661" y="1412" on="0"/>
        <pt x="682" y="1412" on="1"/>
        <pt x="711" y="1412" on="0"/>
        <pt x="740" y="1407" on="0"/>
        <pt x="756" y="1398" on="1"/>
        <pt x="781" y="1400" on="0"/>
        <pt x="828" y="1403" on="0"/>
        <pt x="851" y="1403" on="1"/>
        <pt x="871" y="1403" on="0"/>
        <pt x="911" y="1401" on="0"/>
        <pt x="929" y="1400" on="1"/>
        <pt x="941" y="1393" on="0"/>
        <pt x="967" y="1388" on="0"/>
        <pt x="993" y="1386" on="0"/>
        <pt x="1019" y="1383" on="0"/>
        <pt x="1031" y="1379" on="1"/>
        <pt x="1163" y="1313" on="1"/>
        <pt x="1164" y="1312" on="0"/>
        <pt x="1177" y="1309" on="0"/>
        <pt x="1192" y="1305" on="0"/>
        <pt x="1205" y="1302" on="0"/>
        <pt x="1206" y="1301" on="1"/>
        <pt x="1218" y="1297" on="0"/>
        <pt x="1233" y="1284" on="0"/>
        <pt x="1244" y="1267" on="0"/>
        <pt x="1254" y="1250" on="0"/>
        <pt x="1261" y="1242" on="1"/>
        <pt x="1300" y="1199" on="0"/>
        <pt x="1365" y="1111" on="0"/>
        <pt x="1379" y="1052" on="1"/>
        <pt x="1379" y="1050" on="0"/>
        <pt x="1380" y="1038" on="0"/>
        <pt x="1381" y="1023" on="0"/>
        <pt x="1383" y="1010" on="0"/>
        <pt x="1384" y="1009" on="1"/>
        <pt x="1387" y="997" on="0"/>
        <pt x="1400" y="977" on="0"/>
        <pt x="1413" y="957" on="0"/>
        <pt x="1422" y="937" on="0"/>
        <pt x="1422" y="924" on="1"/>
        <pt x="1422" y="916" on="0"/>
        <pt x="1419" y="891" on="0"/>
        <pt x="1417" y="886" on="1"/>
        <pt x="1419" y="882" on="0"/>
        <pt x="1425" y="867" on="0"/>
        <pt x="1427" y="865" on="1"/>
        <pt x="1431" y="848" on="0"/>
        <pt x="1436" y="815" on="0"/>
        <pt x="1436" y="798" on="1"/>
        <pt x="1436" y="781" on="0"/>
        <pt x="1431" y="745" on="0"/>
        <pt x="1427" y="728" on="1"/>
        <pt x="1427" y="728" on="0"/>
        <pt x="1429" y="718" on="0"/>
        <pt x="1430" y="706" on="0"/>
        <pt x="1432" y="695" on="0"/>
        <pt x="1432" y="694" on="1"/>
        <pt x="1432" y="692" on="1"/>
        <pt x="1432" y="668" on="0"/>
        <pt x="1417" y="619" on="0"/>
        <pt x="1396" y="572" on="0"/>
        <pt x="1372" y="526" on="0"/>
        <pt x="1363" y="505" on="1"/>
        <pt x="1351" y="474" on="1"/>
        <pt x="1343" y="452" on="0"/>
        <pt x="1315" y="403" on="0"/>
        <pt x="1280" y="355" on="0"/>
        <pt x="1244" y="310" on="0"/>
        <pt x="1228" y="291" on="1"/>
        <pt x="1192" y="249" on="0"/>
        <pt x="1120" y="163" on="0"/>
        <pt x="1071" y="133" on="1"/>
        <pt x="1069" y="131" on="0"/>
        <pt x="1047" y="126" on="0"/>
        <pt x="1045" y="126" on="1"/>
        <pt x="967" y="83" on="1"/>
        <pt x="937" y="70" on="0"/>
        <pt x="875" y="64" on="0"/>
        <pt x="842" y="57" on="1"/>
        <pt x="797" y="35" on="1"/>
        <pt x="795" y="35" on="0"/>
        <pt x="775" y="33" on="0"/>
        <pt x="753" y="31" on="0"/>
        <pt x="734" y="28" on="0"/>
        <pt x="733" y="28" on="1"/>
        <pt x="670" y="21" on="0"/>
        <pt x="537" y="-3" on="0"/>
        <pt x="467" y="-3" on="1"/>
        <pt x="459" y="-3" on="0"/>
        <pt x="421" y="-1" on="0"/>
        <pt x="379" y="1" on="0"/>
        <pt x="342" y="3" on="0"/>
        <pt x="336" y="3" on="1"/>
        <pt x="319" y="15" on="0"/>
        <pt x="292" y="19" on="0"/>
        <pt x="275" y="19" on="1"/>
        <pt x="253" y="19" on="0"/>
        <pt x="213" y="10" on="0"/>
        <pt x="175" y="-1" on="0"/>
        <pt x="139" y="-10" on="0"/>
        <pt x="121" y="-10" on="1"/>
        <pt x="110" y="-10" on="0"/>
        <pt x="81" y="1" on="0"/>
        <pt x="54" y="19" on="0"/>
        <pt x="35" y="43" on="0"/>
        <pt x="35" y="57" on="1"/>
        <pt x="35" y="60" on="0"/>
        <pt x="35" y="74" on="0"/>
        <pt x="38" y="88" on="0"/>
        <pt x="43" y="99" on="0"/>
        <pt x="48" y="100" on="1"/>
        <pt x="96" y="134" on="0"/>
        <pt x="150" y="142" on="1"/>
        <pt x="190" y="148" on="0"/>
        <pt x="242" y="196" on="0"/>
        <pt x="276" y="263" on="0"/>
        <pt x="298" y="338" on="0"/>
        <pt x="308" y="370" on="1"/>
        <pt x="316" y="393" on="0"/>
        <pt x="337" y="444" on="0"/>
        <pt x="339" y="469" on="1"/>
        <pt x="343" y="482" on="0"/>
        <pt x="343" y="503" on="0"/>
        <pt x="344" y="522" on="0"/>
        <pt x="351" y="542" on="0"/>
        <pt x="362" y="554" on="1"/>
        <pt x="364" y="588" on="0"/>
        <pt x="381" y="667" on="0"/>
        <pt x="394" y="699" on="1"/>
        <pt x="397" y="715" on="0"/>
        <pt x="413" y="746" on="0"/>
        <pt x="430" y="778" on="0"/>
        <pt x="444" y="810" on="0"/>
        <pt x="446" y="827" on="1"/>
        <pt x="448" y="849" on="0"/>
        <pt x="449" y="897" on="0"/>
        <pt x="452" y="945" on="0"/>
        <pt x="459" y="992" on="0"/>
        <pt x="467" y="1014" on="1"/>
        <pt x="475" y="1041" on="0"/>
        <pt x="494" y="1094" on="0"/>
        <pt x="511" y="1148" on="0"/>
        <pt x="522" y="1205" on="0"/>
        <pt x="522" y="1235" on="1"/>
      </contour>
      <contour>
        <pt x="477" y="213" on="1"/>
        <pt x="478" y="212" on="0"/>
        <pt x="486" y="194" on="0"/>
        <pt x="497" y="168" on="0"/>
        <pt x="508" y="142" on="0"/>
        <pt x="512" y="133" on="1"/>
        <pt x="515" y="124" on="0"/>
        <pt x="538" y="110" on="0"/>
        <pt x="567" y="98" on="0"/>
        <pt x="599" y="89" on="0"/>
        <pt x="611" y="86" on="1"/>
        <pt x="614" y="86" on="0"/>
        <pt x="626" y="83" on="1"/>
        <pt x="628" y="82" on="0"/>
        <pt x="630" y="82" on="1"/>
        <pt x="632" y="81" on="0"/>
        <pt x="638" y="81" on="1"/>
        <pt x="656" y="81" on="0"/>
        <pt x="692" y="97" on="0"/>
        <pt x="726" y="121" on="0"/>
        <pt x="757" y="147" on="0"/>
        <pt x="772" y="156" on="1"/>
        <pt x="774" y="156" on="0"/>
        <pt x="785" y="158" on="0"/>
        <pt x="798" y="161" on="0"/>
        <pt x="809" y="164" on="0"/>
        <pt x="811" y="164" on="1"/>
        <pt x="825" y="174" on="0"/>
        <pt x="859" y="203" on="0"/>
        <pt x="893" y="235" on="0"/>
        <pt x="923" y="266" on="0"/>
        <pt x="934" y="279" on="1"/>
        <pt x="939" y="284" on="0"/>
        <pt x="941" y="298" on="0"/>
        <pt x="942" y="313" on="0"/>
        <pt x="946" y="327" on="0"/>
        <pt x="953" y="332" on="1"/>
        <pt x="970" y="341" on="0"/>
        <pt x="988" y="358" on="0"/>
        <pt x="999" y="377" on="0"/>
        <pt x="1007" y="400" on="0"/>
        <pt x="1015" y="415" on="1"/>
        <pt x="1020" y="421" on="0"/>
        <pt x="1041" y="453" on="0"/>
        <pt x="1064" y="488" on="0"/>
        <pt x="1086" y="519" on="0"/>
        <pt x="1092" y="524" on="1"/>
        <pt x="1106" y="565" on="0"/>
        <pt x="1132" y="657" on="0"/>
        <pt x="1137" y="699" on="1"/>
        <pt x="1138" y="707" on="0"/>
        <pt x="1147" y="721" on="0"/>
        <pt x="1156" y="734" on="0"/>
        <pt x="1163" y="747" on="0"/>
        <pt x="1163" y="754" on="1"/>
        <pt x="1167" y="784" on="0"/>
        <pt x="1173" y="842" on="0"/>
        <pt x="1173" y="868" on="1"/>
        <pt x="1173" y="893" on="0"/>
        <pt x="1167" y="937" on="0"/>
        <pt x="1163" y="957" on="1"/>
        <pt x="1161" y="962" on="0"/>
        <pt x="1154" y="983" on="0"/>
        <pt x="1149" y="996" on="1"/>
        <pt x="1144" y="1011" on="0"/>
        <pt x="1134" y="1039" on="0"/>
        <pt x="1131" y="1047" on="1"/>
        <pt x="1130" y="1048" on="0"/>
        <pt x="1128" y="1058" on="1"/>
        <pt x="1127" y="1062" on="0"/>
        <pt x="1126" y="1067" on="1"/>
        <pt x="1126" y="1105" on="1"/>
        <pt x="1124" y="1108" on="0"/>
        <pt x="1101" y="1149" on="0"/>
        <pt x="1075" y="1196" on="0"/>
        <pt x="1052" y="1234" on="0"/>
        <pt x="1050" y="1235" on="1"/>
        <pt x="1033" y="1265" on="0"/>
        <pt x="990" y="1304" on="0"/>
        <pt x="967" y="1320" on="1"/>
        <pt x="951" y="1332" on="0"/>
        <pt x="938" y="1332" on="1"/>
        <pt x="903" y="1332" on="1"/>
        <pt x="892" y="1335" on="0"/>
        <pt x="866" y="1346" on="0"/>
        <pt x="839" y="1358" on="0"/>
        <pt x="811" y="1367" on="0"/>
        <pt x="799" y="1367" on="1"/>
        <pt x="781" y="1367" on="0"/>
        <pt x="766" y="1354" on="0"/>
        <pt x="761" y="1335" on="0"/>
        <pt x="760" y="1311" on="0"/>
        <pt x="756" y="1301" on="1"/>
        <pt x="756" y="1297" on="0"/>
        <pt x="747" y="1277" on="0"/>
        <pt x="746" y="1275" on="1"/>
        <pt x="745" y="1272" on="0"/>
        <pt x="741" y="1252" on="0"/>
        <pt x="736" y="1228" on="0"/>
        <pt x="733" y="1207" on="0"/>
        <pt x="733" y="1204" on="1"/>
        <pt x="732" y="1202" on="0"/>
        <pt x="732" y="1192" on="1"/>
        <pt x="732" y="1185" on="0"/>
        <pt x="733" y="1166" on="0"/>
        <pt x="733" y="1164" on="1"/>
        <pt x="731" y="1162" on="0"/>
        <pt x="727" y="1143" on="0"/>
        <pt x="727" y="1138" on="1"/>
        <pt x="726" y="1137" on="0"/>
        <pt x="720" y="1124" on="0"/>
        <pt x="713" y="1109" on="0"/>
        <pt x="708" y="1095" on="0"/>
        <pt x="708" y="1093" on="1"/>
        <pt x="708" y="1031" on="1"/>
        <pt x="708" y="1030" on="0"/>
        <pt x="702" y="1022" on="0"/>
        <pt x="694" y="1012" on="0"/>
        <pt x="687" y="1004" on="0"/>
        <pt x="687" y="1003" on="1"/>
        <pt x="686" y="1001" on="0"/>
        <pt x="684" y="996" on="0"/>
        <pt x="683" y="994" on="1"/>
        <pt x="681" y="991" on="0"/>
        <pt x="680" y="988" on="1"/>
        <pt x="660" y="904" on="0"/>
        <pt x="613" y="745" on="0"/>
        <pt x="595" y="661" on="1"/>
        <pt x="569" y="597" on="1"/>
        <pt x="566" y="584" on="0"/>
        <pt x="564" y="560" on="0"/>
        <pt x="563" y="536" on="0"/>
        <pt x="560" y="512" on="0"/>
        <pt x="555" y="500" on="1"/>
        <pt x="545" y="470" on="0"/>
        <pt x="527" y="426" on="0"/>
        <pt x="512" y="384" on="0"/>
        <pt x="501" y="337" on="0"/>
        <pt x="498" y="303" on="1"/>
        <pt x="496" y="283" on="0"/>
        <pt x="477" y="252" on="0"/>
        <pt x="477" y="234" on="1"/>
      </contour>
    </TTGlyph>
    <TTGlyph name="Dcaron" xMin="35" yMin="-10" xMax="1436" yMax="1848">
      <component glyphName="D" x="0" y="0" flags="0x204"/>
      <component glyphName="Caron" x="134" y="0" flags="0x4"/>
    </TTGlyph>
    <TTGlyph name="Dcroat" xMin="35" yMin="-8" xMax="1433" yMax="1414">
      <component glyphName="Eth" x="6" y="25" flags="0x4"/>
    </TTGlyph>
    <TTGlyph name="Dieresis" xMin="654" yMin="1603" xMax="1201" yMax="1807">
      <contour>
        <pt x="654" y="1710" on="1"/>
        <pt x="654" y="1721" on="0"/>
        <pt x="659" y="1740" on="0"/>
        <pt x="661" y="1751" on="1"/>
        <pt x="669" y="1774" on="0"/>
        <pt x="692" y="1807" on="0"/>
        <pt x="721" y="1807" on="1"/>
        <pt x="745" y="1807" on="0"/>
        <pt x="787" y="1791" on="0"/>
        <pt x="818" y="1764" on="0"/>
        <pt x="837" y="1725" on="0"/>
        <pt x="837" y="1703" on="1"/>
        <pt x="837" y="1689" on="0"/>
        <pt x="830" y="1655" on="0"/>
        <pt x="815" y="1626" on="0"/>
        <pt x="792" y="1606" on="0"/>
        <pt x="777" y="1606" on="1"/>
        <pt x="736" y="1606" on="0"/>
        <pt x="681" y="1637" on="0"/>
        <pt x="657" y="1668" on="1"/>
      </contour>
      <contour>
        <pt x="1016" y="1705" on="1"/>
        <pt x="1016" y="1714" on="0"/>
        <pt x="1021" y="1735" on="0"/>
        <pt x="1022" y="1744" on="1"/>
        <pt x="1027" y="1769" on="0"/>
        <pt x="1055" y="1807" on="0"/>
        <pt x="1085" y="1807" on="1"/>
        <pt x="1108" y="1807" on="0"/>
        <pt x="1150" y="1790" on="0"/>
        <pt x="1182" y="1761" on="0"/>
        <pt x="1201" y="1722" on="0"/>
        <pt x="1201" y="1701" on="1"/>
        <pt x="1201" y="1686" on="0"/>
        <pt x="1193" y="1652" on="0"/>
        <pt x="1176" y="1622" on="0"/>
        <pt x="1152" y="1603" on="0"/>
        <pt x="1137" y="1603" on="1"/>
        <pt x="1098" y="1603" on="0"/>
        <pt x="1041" y="1639" on="0"/>
        <pt x="1021" y="1665" on="1"/>
      </contour>
    </TTGlyph>
    <TTGlyph name="Dotaccent" xMin="615" yMin="1604" xMax="866" yMax="1837">
      <contour>
        <pt x="615" y="1687" on="1"/>
        <pt x="615" y="1694" on="1"/>
        <pt x="618" y="1702" on="0"/>
        <pt x="625" y="1729" on="0"/>
        <pt x="632" y="1756" on="0"/>
        <pt x="637" y="1778" on="0"/>
        <pt x="639" y="1781" on="1"/>
        <pt x="647" y="1803" on="0"/>
        <pt x="668" y="1826" on="0"/>
        <pt x="697" y="1836" on="0"/>
        <pt x="732" y="1837" on="0"/>
        <pt x="754" y="1837" on="1"/>
        <pt x="804" y="1837" on="0"/>
        <pt x="866" y="1780" on="0"/>
        <pt x="866" y="1730" on="1"/>
        <pt x="866" y="1704" on="0"/>
        <pt x="849" y="1659" on="0"/>
        <pt x="818" y="1624" on="0"/>
        <pt x="774" y="1604" on="0"/>
        <pt x="747" y="1604" on="1"/>
        <pt x="731" y="1604" on="0"/>
        <pt x="686" y="1615" on="0"/>
        <pt x="644" y="1636" on="0"/>
        <pt x="615" y="1667" on="0"/>
      </contour>
    </TTGlyph>
    <TTGlyph name="E" xMin="-2" yMin="-22" xMax="1394" yMax="1403">
      <contour>
        <pt x="-2" y="59" on="1"/>
        <pt x="-2" y="86" on="0"/>
        <pt x="31" y="112" on="0"/>
        <pt x="77" y="122" on="0"/>
        <pt x="126" y="125" on="0"/>
        <pt x="142" y="130" on="1"/>
        <pt x="146" y="130" on="0"/>
        <pt x="167" y="139" on="0"/>
        <pt x="190" y="149" on="0"/>
        <pt x="211" y="159" on="0"/>
        <pt x="215" y="161" on="1"/>
        <pt x="224" y="172" on="0"/>
        <pt x="226" y="196" on="0"/>
        <pt x="228" y="209" on="1"/>
        <pt x="229" y="214" on="0"/>
        <pt x="238" y="242" on="0"/>
        <pt x="249" y="279" on="0"/>
        <pt x="263" y="321" on="0"/>
        <pt x="276" y="358" on="0"/>
        <pt x="285" y="386" on="0"/>
        <pt x="287" y="391" on="1"/>
        <pt x="294" y="420" on="0"/>
        <pt x="320" y="482" on="0"/>
        <pt x="329" y="522" on="1"/>
        <pt x="337" y="561" on="0"/>
        <pt x="355" y="643" on="0"/>
        <pt x="370" y="678" on="1"/>
        <pt x="384" y="705" on="0"/>
        <pt x="418" y="750" on="0"/>
        <pt x="429" y="782" on="1"/>
        <pt x="429" y="783" on="0"/>
        <pt x="430" y="793" on="0"/>
        <pt x="432" y="806" on="0"/>
        <pt x="434" y="819" on="0"/>
        <pt x="434" y="822" on="1"/>
        <pt x="442" y="871" on="0"/>
        <pt x="474" y="980" on="0"/>
        <pt x="490" y="1029" on="1"/>
        <pt x="496" y="1050" on="0"/>
        <pt x="511" y="1090" on="0"/>
        <pt x="526" y="1129" on="0"/>
        <pt x="539" y="1168" on="0"/>
        <pt x="542" y="1189" on="1"/>
        <pt x="544" y="1202" on="0"/>
        <pt x="557" y="1227" on="0"/>
        <pt x="557" y="1240" on="1"/>
        <pt x="557" y="1248" on="0"/>
        <pt x="556" y="1263" on="0"/>
        <pt x="552" y="1270" on="1"/>
        <pt x="516" y="1300" on="0"/>
        <pt x="423" y="1325" on="0"/>
        <pt x="370" y="1325" on="1"/>
        <pt x="362" y="1332" on="0"/>
        <pt x="358" y="1343" on="0"/>
        <pt x="358" y="1355" on="1"/>
        <pt x="358" y="1365" on="0"/>
        <pt x="370" y="1377" on="0"/>
        <pt x="390" y="1384" on="0"/>
        <pt x="413" y="1386" on="0"/>
        <pt x="424" y="1386" on="1"/>
        <pt x="438" y="1386" on="0"/>
        <pt x="459" y="1384" on="0"/>
        <pt x="465" y="1382" on="1"/>
        <pt x="518" y="1377" on="0"/>
        <pt x="620" y="1372" on="0"/>
        <pt x="671" y="1372" on="1"/>
        <pt x="721" y="1372" on="0"/>
        <pt x="819" y="1377" on="0"/>
        <pt x="867" y="1382" on="1"/>
        <pt x="877" y="1389" on="0"/>
        <pt x="892" y="1397" on="0"/>
        <pt x="905" y="1402" on="0"/>
        <pt x="919" y="1403" on="0"/>
        <pt x="929" y="1403" on="1"/>
        <pt x="1076" y="1387" on="1"/>
        <pt x="1106" y="1387" on="0"/>
        <pt x="1156" y="1398" on="0"/>
        <pt x="1183" y="1398" on="1"/>
        <pt x="1230" y="1382" on="1"/>
        <pt x="1270" y="1387" on="1"/>
        <pt x="1306" y="1387" on="1"/>
        <pt x="1321" y="1387" on="0"/>
        <pt x="1342" y="1384" on="0"/>
        <pt x="1357" y="1375" on="0"/>
        <pt x="1369" y="1357" on="0"/>
        <pt x="1375" y="1342" on="1"/>
        <pt x="1377" y="1337" on="0"/>
        <pt x="1384" y="1323" on="0"/>
        <pt x="1387" y="1315" on="1"/>
        <pt x="1391" y="1306" on="0"/>
        <pt x="1394" y="1297" on="1"/>
        <pt x="1394" y="1156" on="1"/>
        <pt x="1392" y="1154" on="0"/>
        <pt x="1391" y="1152" on="1"/>
        <pt x="1390" y="1150" on="0"/>
        <pt x="1388" y="1147" on="0"/>
        <pt x="1388" y="1145" on="1"/>
        <pt x="1378" y="1139" on="0"/>
        <pt x="1368" y="1128" on="0"/>
        <pt x="1356" y="1128" on="1"/>
        <pt x="1334" y="1128" on="0"/>
        <pt x="1313" y="1156" on="0"/>
        <pt x="1303" y="1192" on="0"/>
        <pt x="1296" y="1226" on="0"/>
        <pt x="1289" y="1232" on="1"/>
        <pt x="1286" y="1235" on="0"/>
        <pt x="1272" y="1250" on="0"/>
        <pt x="1256" y="1267" on="0"/>
        <pt x="1241" y="1282" on="0"/>
        <pt x="1237" y="1284" on="1"/>
        <pt x="1211" y="1285" on="0"/>
        <pt x="1160" y="1304" on="0"/>
        <pt x="1140" y="1327" on="1"/>
        <pt x="939" y="1318" on="1"/>
        <pt x="844" y="1337" on="1"/>
        <pt x="833" y="1337" on="0"/>
        <pt x="799" y="1323" on="0"/>
        <pt x="794" y="1311" on="1"/>
        <pt x="794" y="1284" on="1"/>
        <pt x="793" y="1282" on="0"/>
        <pt x="788" y="1266" on="0"/>
        <pt x="782" y="1246" on="0"/>
        <pt x="776" y="1229" on="0"/>
        <pt x="775" y="1227" on="1"/>
        <pt x="774" y="1225" on="0"/>
        <pt x="771" y="1202" on="0"/>
        <pt x="767" y="1175" on="0"/>
        <pt x="764" y="1149" on="0"/>
        <pt x="763" y="1145" on="1"/>
        <pt x="763" y="1144" on="0"/>
        <pt x="757" y="1131" on="0"/>
        <pt x="749" y="1116" on="0"/>
        <pt x="743" y="1103" on="0"/>
        <pt x="742" y="1102" on="1"/>
        <pt x="742" y="1059" on="1"/>
        <pt x="739" y="1030" on="0"/>
        <pt x="720" y="978" on="0"/>
        <pt x="699" y="926" on="0"/>
        <pt x="683" y="874" on="0"/>
        <pt x="683" y="846" on="1"/>
        <pt x="683" y="829" on="1"/>
        <pt x="684" y="826" on="0"/>
        <pt x="695" y="813" on="0"/>
        <pt x="708" y="799" on="0"/>
        <pt x="720" y="788" on="0"/>
        <pt x="723" y="787" on="1"/>
        <pt x="779" y="787" on="1"/>
        <pt x="814" y="787" on="0"/>
        <pt x="871" y="788" on="0"/>
        <pt x="905" y="792" on="1"/>
        <pt x="909" y="793" on="0"/>
        <pt x="924" y="804" on="0"/>
        <pt x="938" y="817" on="0"/>
        <pt x="949" y="827" on="0"/>
        <pt x="950" y="829" on="1"/>
        <pt x="969" y="845" on="0"/>
        <pt x="992" y="892" on="0"/>
        <pt x="1018" y="935" on="0"/>
        <pt x="1055" y="965" on="0"/>
        <pt x="1087" y="965" on="1"/>
        <pt x="1101" y="965" on="0"/>
        <pt x="1123" y="945" on="0"/>
        <pt x="1123" y="927" on="1"/>
        <pt x="1123" y="913" on="1"/>
        <pt x="1113" y="875" on="0"/>
        <pt x="1080" y="803" on="0"/>
        <pt x="1049" y="730" on="0"/>
        <pt x="1026" y="655" on="0"/>
        <pt x="1026" y="614" on="1"/>
        <pt x="1026" y="567" on="1"/>
        <pt x="1013" y="545" on="0"/>
        <pt x="986" y="514" on="0"/>
        <pt x="959" y="514" on="1"/>
        <pt x="956" y="515" on="0"/>
        <pt x="940" y="517" on="0"/>
        <pt x="924" y="520" on="0"/>
        <pt x="908" y="522" on="0"/>
        <pt x="905" y="522" on="1"/>
        <pt x="887" y="535" on="0"/>
        <pt x="873" y="571" on="0"/>
        <pt x="867" y="609" on="0"/>
        <pt x="863" y="648" on="0"/>
        <pt x="849" y="678" on="0"/>
        <pt x="818" y="697" on="0"/>
        <pt x="789" y="697" on="1"/>
        <pt x="683" y="690" on="1"/>
        <pt x="683" y="690" on="0"/>
        <pt x="675" y="692" on="0"/>
        <pt x="665" y="694" on="0"/>
        <pt x="655" y="696" on="0"/>
        <pt x="652" y="697" on="1"/>
        <pt x="634" y="697" on="0"/>
        <pt x="614" y="664" on="0"/>
        <pt x="596" y="620" on="0"/>
        <pt x="575" y="577" on="0"/>
        <pt x="557" y="567" on="1"/>
        <pt x="557" y="564" on="0"/>
        <pt x="556" y="551" on="0"/>
        <pt x="554" y="537" on="0"/>
        <pt x="553" y="524" on="0"/>
        <pt x="552" y="522" on="1"/>
        <pt x="552" y="518" on="0"/>
        <pt x="535" y="504" on="0"/>
        <pt x="533" y="500" on="1"/>
        <pt x="533" y="498" on="0"/>
        <pt x="535" y="482" on="0"/>
        <pt x="535" y="474" on="1"/>
        <pt x="535" y="465" on="0"/>
        <pt x="533" y="464" on="1"/>
        <pt x="530" y="438" on="0"/>
        <pt x="508" y="388" on="0"/>
        <pt x="502" y="365" on="1"/>
        <pt x="498" y="351" on="0"/>
        <pt x="482" y="304" on="0"/>
        <pt x="465" y="253" on="0"/>
        <pt x="453" y="207" on="0"/>
        <pt x="453" y="195" on="1"/>
        <pt x="474" y="171" on="0"/>
        <pt x="517" y="132" on="0"/>
        <pt x="563" y="103" on="0"/>
        <pt x="618" y="88" on="0"/>
        <pt x="651" y="88" on="1"/>
        <pt x="939" y="123" on="1"/>
        <pt x="964" y="123" on="1"/>
        <pt x="975" y="126" on="0"/>
        <pt x="986" y="138" on="0"/>
        <pt x="993" y="152" on="0"/>
        <pt x="998" y="168" on="0"/>
        <pt x="1003" y="175" on="1"/>
        <pt x="1012" y="187" on="0"/>
        <pt x="1034" y="208" on="0"/>
        <pt x="1057" y="226" on="0"/>
        <pt x="1079" y="244" on="0"/>
        <pt x="1088" y="254" on="1"/>
        <pt x="1092" y="258" on="0"/>
        <pt x="1110" y="278" on="0"/>
        <pt x="1131" y="301" on="0"/>
        <pt x="1151" y="322" on="0"/>
        <pt x="1157" y="327" on="1"/>
        <pt x="1160" y="342" on="0"/>
        <pt x="1178" y="373" on="0"/>
        <pt x="1203" y="398" on="0"/>
        <pt x="1234" y="416" on="0"/>
        <pt x="1251" y="419" on="1"/>
        <pt x="1257" y="419" on="0"/>
        <pt x="1267" y="410" on="0"/>
        <pt x="1274" y="398" on="0"/>
        <pt x="1278" y="387" on="0"/>
        <pt x="1279" y="386" on="1"/>
        <pt x="1276" y="354" on="0"/>
        <pt x="1261" y="277" on="0"/>
        <pt x="1244" y="247" on="1"/>
        <pt x="1243" y="245" on="0"/>
        <pt x="1234" y="232" on="0"/>
        <pt x="1224" y="217" on="0"/>
        <pt x="1215" y="204" on="0"/>
        <pt x="1215" y="201" on="1"/>
        <pt x="1201" y="181" on="0"/>
        <pt x="1193" y="133" on="0"/>
        <pt x="1185" y="111" on="1"/>
        <pt x="1176" y="80" on="0"/>
        <pt x="1145" y="41" on="0"/>
        <pt x="1105" y="19" on="0"/>
        <pt x="1056" y="11" on="0"/>
        <pt x="1028" y="10" on="1"/>
        <pt x="988" y="12" on="1"/>
        <pt x="928" y="16" on="0"/>
        <pt x="810" y="22" on="0"/>
        <pt x="747" y="22" on="1"/>
        <pt x="711" y="22" on="0"/>
        <pt x="639" y="5" on="0"/>
        <pt x="604" y="5" on="1"/>
        <pt x="533" y="14" on="1"/>
        <pt x="519" y="14" on="0"/>
        <pt x="493" y="10" on="0"/>
        <pt x="468" y="6" on="0"/>
        <pt x="440" y="2" on="0"/>
        <pt x="424" y="2" on="1"/>
        <pt x="260" y="2" on="1"/>
        <pt x="254" y="0" on="0"/>
        <pt x="226" y="-3" on="0"/>
        <pt x="195" y="-7" on="0"/>
        <pt x="167" y="-9" on="0"/>
        <pt x="161" y="-9" on="1"/>
        <pt x="153" y="-13" on="0"/>
        <pt x="130" y="-22" on="0"/>
        <pt x="106" y="-22" on="1"/>
        <pt x="86" y="-19" on="0"/>
        <pt x="47" y="-11" on="0"/>
        <pt x="17" y="6" on="0"/>
        <pt x="-2" y="35" on="0"/>
      </contour>
    </TTGlyph>
    <TTGlyph name="Eacute" xMin="-2" yMin="-22" xMax="1409" yMax="1854">
      <component glyphName="E" x="0" y="0" flags="0x204"/>
      <component glyphName="Acute" x="44" y="0" flags="0x4"/>
    </TTGlyph>
    <TTGlyph name="Ecaron" xMin="-2" yMin="-22" xMax="1394" yMax="1848">
      <component glyphName="E" x="0" y="0" flags="0x204"/>
      <component glyphName="Caron" x="203" y="0" flags="0x4"/>
    </TTGlyph>
    <TTGlyph name="Ecircumflex" xMin="-2" yMin="-22" xMax="1394" yMax="1846">
      <component glyphName="E" x="0" y="0" flags="0x204"/>
      <component glyphName="Circumflex" x="114" y="0" flags="0x4"/>
    </TTGlyph>
    <TTGlyph name="Edieresis" xMin="-2" yMin="-22" xMax="1394" yMax="1810">
      <component glyphName="E" x="0" y="0" flags="0x204"/>
      <component glyphName="Dieresis" x="128" y="3" flags="0x4"/>
    </TTGlyph>
    <TTGlyph name="Edotaccent" xMin="-2" yMin="-22" xMax="1394" yMax="1837">
      <component glyphName="E" x="0" y="0" flags="0x204"/>
      <component glyphName="Dotaccent" x="292" y="0" flags="0x4"/>
    </TTGlyph>
    <TTGlyph name="Egrave" xMin="-2" yMin="-22" xMax="1394" yMax="1853">
      <component glyphName="E" x="0" y="0" flags="0x204"/>
      <component glyphName="Grave" x="36" y="0" flags="0x4"/>
    </TTGlyph>
    <TTGlyph name="Emacron" xMin="-2" yMin="-22" xMax="1394" yMax="1715">
      <component glyphName="E" x="0" y="0" flags="0x204"/>
      <component glyphName="Macron" x="117" y="0" flags="0x4"/>
    </TTGlyph>
    <TTGlyph name="Eogonek" xMin="-2" yMin="-425" xMax="1394" yMax="1403">
      <contour>
        <pt x="-2" y="59" on="1"/>
        <pt x="-2" y="86" on="0"/>
        <pt x="31" y="112" on="0"/>
        <pt x="77" y="122" on="0"/>
        <pt x="126" y="125" on="0"/>
        <pt x="142" y="130" on="1"/>
        <pt x="146" y="130" on="0"/>
        <pt x="167" y="139" on="0"/>
        <pt x="190" y="149" on="0"/>
        <pt x="211" y="159" on="0"/>
        <pt x="215" y="161" on="1"/>
        <pt x="224" y="172" on="0"/>
        <pt x="226" y="196" on="0"/>
        <pt x="228" y="209" on="1"/>
        <pt x="229" y="214" on="0"/>
        <pt x="238" y="242" on="0"/>
        <pt x="249" y="279" on="0"/>
        <pt x="263" y="321" on="0"/>
        <pt x="276" y="358" on="0"/>
        <pt x="285" y="386" on="0"/>
        <pt x="287" y="391" on="1"/>
        <pt x="294" y="420" on="0"/>
        <pt x="320" y="482" on="0"/>
        <pt x="329" y="522" on="1"/>
        <pt x="337" y="561" on="0"/>
        <pt x="355" y="643" on="0"/>
        <pt x="370" y="678" on="1"/>
        <pt x="384" y="705" on="0"/>
        <pt x="418" y="750" on="0"/>
        <pt x="429" y="782" on="1"/>
        <pt x="429" y="783" on="0"/>
        <pt x="430" y="793" on="0"/>
        <pt x="432" y="806" on="0"/>
        <pt x="434" y="819" on="0"/>
        <pt x="434" y="822" on="1"/>
        <pt x="442" y="871" on="0"/>
        <pt x="474" y="980" on="0"/>
        <pt x="490" y="1029" on="1"/>
        <pt x="496" y="1050" on="0"/>
        <pt x="511" y="1090" on="0"/>
        <pt x="526" y="1129" on="0"/>
        <pt x="539" y="1168" on="0"/>
        <pt x="542" y="1189" on="1"/>
        <pt x="544" y="1202" on="0"/>
        <pt x="557" y="1227" on="0"/>
        <pt x="557" y="1240" on="1"/>
        <pt x="557" y="1248" on="0"/>
        <pt x="556" y="1263" on="0"/>
        <pt x="552" y="1270" on="1"/>
        <pt x="516" y="1300" on="0"/>
        <pt x="423" y="1325" on="0"/>
        <pt x="370" y="1325" on="1"/>
        <pt x="362" y="1332" on="0"/>
        <pt x="358" y="1343" on="0"/>
        <pt x="358" y="1355" on="1"/>
        <pt x="358" y="1365" on="0"/>
        <pt x="370" y="1377" on="0"/>
        <pt x="390" y="1384" on="0"/>
        <pt x="413" y="1386" on="0"/>
        <pt x="424" y="1386" on="1"/>
        <pt x="438" y="1386" on="0"/>
        <pt x="459" y="1384" on="0"/>
        <pt x="465" y="1382" on="1"/>
        <pt x="518" y="1377" on="0"/>
        <pt x="620" y="1372" on="0"/>
        <pt x="671" y="1372" on="1"/>
        <pt x="721" y="1372" on="0"/>
        <pt x="819" y="1377" on="0"/>
        <pt x="867" y="1382" on="1"/>
        <pt x="877" y="1389" on="0"/>
        <pt x="892" y="1397" on="0"/>
        <pt x="905" y="1402" on="0"/>
        <pt x="919" y="1403" on="0"/>
        <pt x="929" y="1403" on="1"/>
        <pt x="1076" y="1387" on="1"/>
        <pt x="1106" y="1387" on="0"/>
        <pt x="1156" y="1398" on="0"/>
        <pt x="1183" y="1398" on="1"/>
        <pt x="1230" y="1382" on="1"/>
        <pt x="1270" y="1387" on="1"/>
        <pt x="1306" y="1387" on="1"/>
        <pt x="1321" y="1387" on="0"/>
        <pt x="1342" y="1384" on="0"/>
        <pt x="1357" y="1375" on="0"/>
        <pt x="1369" y="1357" on="0"/>
        <pt x="1375" y="1342" on="1"/>
        <pt x="1377" y="1337" on="0"/>
        <pt x="1384" y="1323" on="0"/>
        <pt x="1387" y="1315" on="1"/>
        <pt x="1391" y="1306" on="0"/>
        <pt x="1394" y="1297" on="1"/>
        <pt x="1394" y="1156" on="1"/>
        <pt x="1392" y="1154" on="0"/>
        <pt x="1391" y="1152" on="1"/>
        <pt x="1390" y="1150" on="0"/>
        <pt x="1388" y="1147" on="0"/>
        <pt x="1388" y="1145" on="1"/>
        <pt x="1378" y="1139" on="0"/>
        <pt x="1368" y="1128" on="0"/>
        <pt x="1356" y="1128" on="1"/>
        <pt x="1334" y="1128" on="0"/>
        <pt x="1313" y="1156" on="0"/>
        <pt x="1303" y="1192" on="0"/>
        <pt x="1296" y="1226" on="0"/>
        <pt x="1289" y="1232" on="1"/>
        <pt x="1286" y="1235" on="0"/>
        <pt x="1272" y="1250" on="0"/>
        <pt x="1256" y="1267" on="0"/>
        <pt x="1241" y="1282" on="0"/>
        <pt x="1237" y="1284" on="1"/>
        <pt x="1211" y="1285" on="0"/>
        <pt x="1160" y="1304" on="0"/>
        <pt x="1140" y="1327" on="1"/>
        <pt x="939" y="1318" on="1"/>
        <pt x="844" y="1337" on="1"/>
        <pt x="833" y="1337" on="0"/>
        <pt x="799" y="1323" on="0"/>
        <pt x="794" y="1311" on="1"/>
        <pt x="794" y="1284" on="1"/>
        <pt x="793" y="1282" on="0"/>
        <pt x="788" y="1266" on="0"/>
        <pt x="782" y="1246" on="0"/>
        <pt x="776" y="1229" on="0"/>
        <pt x="775" y="1227" on="1"/>
        <pt x="774" y="1225" on="0"/>
        <pt x="771" y="1202" on="0"/>
        <pt x="767" y="1175" on="0"/>
        <pt x="764" y="1149" on="0"/>
        <pt x="763" y="1145" on="1"/>
        <pt x="763" y="1144" on="0"/>
        <pt x="757" y="1131" on="0"/>
        <pt x="749" y="1116" on="0"/>
        <pt x="743" y="1103" on="0"/>
        <pt x="742" y="1102" on="1"/>
        <pt x="742" y="1059" on="1"/>
        <pt x="739" y="1030" on="0"/>
        <pt x="720" y="978" on="0"/>
        <pt x="699" y="926" on="0"/>
        <pt x="683" y="874" on="0"/>
        <pt x="683" y="846" on="1"/>
        <pt x="683" y="829" on="1"/>
        <pt x="684" y="826" on="0"/>
        <pt x="695" y="813" on="0"/>
        <pt x="708" y="799" on="0"/>
        <pt x="720" y="788" on="0"/>
        <pt x="723" y="787" on="1"/>
        <pt x="779" y="787" on="1"/>
        <pt x="814" y="787" on="0"/>
        <pt x="871" y="788" on="0"/>
        <pt x="905" y="792" on="1"/>
        <pt x="909" y="793" on="0"/>
        <pt x="924" y="804" on="0"/>
        <pt x="938" y="817" on="0"/>
        <pt x="949" y="827" on="0"/>
        <pt x="950" y="829" on="1"/>
        <pt x="969" y="845" on="0"/>
        <pt x="992" y="892" on="0"/>
        <pt x="1018" y="935" on="0"/>
        <pt x="1055" y="965" on="0"/>
        <pt x="1087" y="965" on="1"/>
        <pt x="1101" y="965" on="0"/>
        <pt x="1123" y="945" on="0"/>
        <pt x="1123" y="927" on="1"/>
        <pt x="1123" y="913" on="1"/>
        <pt x="1113" y="875" on="0"/>
        <pt x="1080" y="803" on="0"/>
        <pt x="1049" y="730" on="0"/>
        <pt x="1026" y="655" on="0"/>
        <pt x="1026" y="614" on="1"/>
        <pt x="1026" y="567" on="1"/>
        <pt x="1013" y="545" on="0"/>
        <pt x="986" y="514" on="0"/>
        <pt x="959" y="514" on="1"/>
        <pt x="956" y="515" on="0"/>
        <pt x="940" y="517" on="0"/>
        <pt x="924" y="520" on="0"/>
        <pt x="908" y="522" on="0"/>
        <pt x="905" y="522" on="1"/>
        <pt x="887" y="535" on="0"/>
        <pt x="873" y="571" on="0"/>
        <pt x="867" y="609" on="0"/>
        <pt x="863" y="648" on="0"/>
        <pt x="849" y="678" on="0"/>
        <pt x="818" y="697" on="0"/>
        <pt x="789" y="697" on="1"/>
        <pt x="683" y="690" on="1"/>
        <pt x="683" y="690" on="0"/>
        <pt x="675" y="692" on="0"/>
        <pt x="665" y="694" on="0"/>
        <pt x="655" y="696" on="0"/>
        <pt x="652" y="697" on="1"/>
        <pt x="634" y="697" on="0"/>
        <pt x="614" y="664" on="0"/>
        <pt x="596" y="620" on="0"/>
        <pt x="575" y="577" on="0"/>
        <pt x="557" y="567" on="1"/>
        <pt x="557" y="564" on="0"/>
        <pt x="556" y="551" on="0"/>
        <pt x="554" y="537" on="0"/>
        <pt x="553" y="524" on="0"/>
        <pt x="552" y="522" on="1"/>
        <pt x="552" y="518" on="0"/>
        <pt x="535" y="504" on="0"/>
        <pt x="533" y="500" on="1"/>
        <pt x="533" y="498" on="0"/>
        <pt x="535" y="482" on="0"/>
        <pt x="535" y="474" on="1"/>
        <pt x="535" y="465" on="0"/>
        <pt x="533" y="464" on="1"/>
        <pt x="530" y="438" on="0"/>
        <pt x="508" y="388" on="0"/>
        <pt x="502" y="365" on="1"/>
        <pt x="498" y="351" on="0"/>
        <pt x="482" y="304" on="0"/>
        <pt x="465" y="253" on="0"/>
        <pt x="453" y="207" on="0"/>
        <pt x="453" y="195" on="1"/>
        <pt x="474" y="171" on="0"/>
        <pt x="517" y="132" on="0"/>
        <pt x="563" y="103" on="0"/>
        <pt x="618" y="88" on="0"/>
        <pt x="651" y="88" on="1"/>
        <pt x="939" y="123" on="1"/>
        <pt x="964" y="123" on="1"/>
        <pt x="975" y="126" on="0"/>
        <pt x="986" y="138" on="0"/>
        <pt x="993" y="152" on="0"/>
        <pt x="998" y="168" on="0"/>
        <pt x="1003" y="175" on="1"/>
        <pt x="1012" y="187" on="0"/>
        <pt x="1034" y="208" on="0"/>
        <pt x="1057" y="226" on="0"/>
        <pt x="1079" y="244" on="0"/>
        <pt x="1088" y="254" on="1"/>
        <pt x="1092" y="258" on="0"/>
        <pt x="1110" y="278" on="0"/>
        <pt x="1131" y="301" on="0"/>
        <pt x="1151" y="322" on="0"/>
        <pt x="1157" y="327" on="1"/>
        <pt x="1160" y="342" on="0"/>
        <pt x="1178" y="373" on="0"/>
        <pt x="1203" y="398" on="0"/>
        <pt x="1234" y="416" on="0"/>
        <pt x="1251" y="419" on="1"/>
        <pt x="1257" y="419" on="0"/>
        <pt x="1267" y="410" on="0"/>
        <pt x="1274" y="398" on="0"/>
        <pt x="1278" y="387" on="0"/>
        <pt x="1279" y="386" on="1"/>
        <pt x="1276" y="354" on="0"/>
        <pt x="1261" y="277" on="0"/>
        <pt x="1244" y="247" on="1"/>
        <pt x="1243" y="245" on="0"/>
        <pt x="1234" y="232" on="0"/>
        <pt x="1224" y="217" on="0"/>
        <pt x="1215" y="204" on="0"/>
        <pt x="1215" y="201" on="1"/>
        <pt x="1201" y="181" on="0"/>
        <pt x="1193" y="133" on="0"/>
        <pt x="1185" y="111" on="1"/>
        <pt x="1176" y="80" on="0"/>
        <pt x="1145" y="41" on="0"/>
        <pt x="1105" y="19" on="0"/>
        <pt x="1056" y="11" on="0"/>
        <pt x="1028" y="10" on="1"/>
        <pt x="988" y="12" on="1"/>
        <pt x="983" y="12" on="0"/>
        <pt x="973" y="13" on="0"/>
        <pt x="968" y="13" on="1"/>
        <pt x="957" y="-4" on="0"/>
        <pt x="929" y="-38" on="0"/>
        <pt x="903" y="-72" on="0"/>
        <pt x="882" y="-106" on="0"/>
        <pt x="876" y="-124" on="1"/>
        <pt x="873" y="-132" on="0"/>
        <pt x="873" y="-141" on="1"/>
        <pt x="874" y="-151" on="1"/>
        <pt x="874" y="-199" on="1"/>
        <pt x="871" y="-234" on="1"/>
        <pt x="871" y="-242" on="0"/>
        <pt x="872" y="-246" on="1"/>
        <pt x="874" y="-258" on="0"/>
        <pt x="883" y="-276" on="0"/>
        <pt x="885" y="-287" on="1"/>
        <pt x="898" y="-296" on="1"/>
        <pt x="903" y="-303" on="0"/>
        <pt x="917" y="-306" on="0"/>
        <pt x="928" y="-307" on="1"/>
        <pt x="992" y="-311" on="1"/>
        <pt x="1010" y="-311" on="0"/>
        <pt x="1035" y="-301" on="0"/>
        <pt x="1050" y="-301" on="1"/>
        <pt x="1064" y="-301" on="1"/>
        <pt x="1078" y="-301" on="0"/>
        <pt x="1078" y="-312" on="1"/>
        <pt x="1078" y="-316" on="0"/>
        <pt x="1077" y="-319" on="1"/>
        <pt x="1074" y="-328" on="0"/>
        <pt x="1064" y="-336" on="1"/>
        <pt x="1033" y="-364" on="0"/>
        <pt x="963" y="-400" on="0"/>
        <pt x="926" y="-410" on="1"/>
        <pt x="897" y="-422" on="1"/>
        <pt x="886" y="-424" on="0"/>
        <pt x="858" y="-425" on="0"/>
        <pt x="846" y="-425" on="1"/>
        <pt x="837" y="-425" on="0"/>
        <pt x="806" y="-421" on="0"/>
        <pt x="795" y="-419" on="1"/>
        <pt x="783" y="-412" on="1"/>
        <pt x="770" y="-408" on="0"/>
        <pt x="748" y="-396" on="0"/>
        <pt x="737" y="-391" on="1"/>
        <pt x="722" y="-382" on="1"/>
        <pt x="716" y="-365" on="1"/>
        <pt x="716" y="-353" on="0"/>
        <pt x="710" y="-332" on="0"/>
        <pt x="707" y="-321" on="1"/>
        <pt x="704" y="-309" on="0"/>
        <pt x="704" y="-297" on="1"/>
        <pt x="704" y="-282" on="0"/>
        <pt x="711" y="-249" on="0"/>
        <pt x="716" y="-232" on="1"/>
        <pt x="720" y="-221" on="0"/>
        <pt x="735" y="-189" on="0"/>
        <pt x="740" y="-177" on="1"/>
        <pt x="752" y="-148" on="1"/>
        <pt x="773" y="-114" on="1"/>
        <pt x="810" y="-72" on="1"/>
        <pt x="837" y="-41" on="0"/>
        <pt x="887" y="-2" on="0"/>
        <pt x="923" y="16" on="1"/>
        <pt x="879" y="18" on="0"/>
        <pt x="792" y="22" on="0"/>
        <pt x="747" y="22" on="1"/>
        <pt x="711" y="22" on="0"/>
        <pt x="639" y="5" on="0"/>
        <pt x="604" y="5" on="1"/>
        <pt x="533" y="14" on="1"/>
        <pt x="519" y="14" on="0"/>
        <pt x="493" y="10" on="0"/>
        <pt x="468" y="6" on="0"/>
        <pt x="440" y="2" on="0"/>
        <pt x="424" y="2" on="1"/>
        <pt x="260" y="2" on="1"/>
        <pt x="254" y="0" on="0"/>
        <pt x="226" y="-3" on="0"/>
        <pt x="195" y="-7" on="0"/>
        <pt x="167" y="-9" on="0"/>
        <pt x="161" y="-9" on="1"/>
        <pt x="153" y="-13" on="0"/>
        <pt x="130" y="-22" on="0"/>
        <pt x="106" y="-22" on="1"/>
        <pt x="86" y="-19" on="0"/>
        <pt x="47" y="-11" on="0"/>
        <pt x="17" y="6" on="0"/>
        <pt x="-2" y="35" on="0"/>
      </contour>
    </TTGlyph>
    <TTGlyph name="Eth" xMin="29" yMin="-33" xMax="1427" yMax="1389">
      <contour>
        <pt x="29" y="35" on="1"/>
        <pt x="29" y="38" on="0"/>
        <pt x="29" y="51" on="0"/>
        <pt x="32" y="65" on="0"/>
        <pt x="38" y="76" on="0"/>
        <pt x="43" y="78" on="1"/>
        <pt x="130" y="119" on="1"/>
        <pt x="145" y="119" on="1"/>
        <pt x="185" y="119" on="0"/>
        <pt x="237" y="166" on="0"/>
        <pt x="272" y="236" on="0"/>
        <pt x="293" y="315" on="0"/>
        <pt x="303" y="348" on="1"/>
        <pt x="311" y="370" on="0"/>
        <pt x="331" y="421" on="0"/>
        <pt x="334" y="446" on="1"/>
        <pt x="338" y="460" on="0"/>
        <pt x="338" y="481" on="0"/>
        <pt x="339" y="499" on="0"/>
        <pt x="346" y="519" on="0"/>
        <pt x="356" y="531" on="1"/>
        <pt x="358" y="554" on="0"/>
        <pt x="369" y="609" on="0"/>
        <pt x="375" y="637" on="1"/>
        <pt x="339" y="638" on="0"/>
        <pt x="270" y="659" on="0"/>
        <pt x="230" y="659" on="1"/>
        <pt x="207" y="659" on="1"/>
        <pt x="196" y="672" on="0"/>
        <pt x="185" y="697" on="0"/>
        <pt x="185" y="714" on="1"/>
        <pt x="185" y="722" on="0"/>
        <pt x="188" y="739" on="0"/>
        <pt x="190" y="751" on="1"/>
        <pt x="198" y="779" on="0"/>
        <pt x="209" y="789" on="0"/>
        <pt x="218" y="789" on="1"/>
        <pt x="284" y="789" on="1"/>
        <pt x="342" y="782" on="1"/>
        <pt x="356" y="782" on="0"/>
        <pt x="379" y="782" on="0"/>
        <pt x="393" y="784" on="1"/>
        <pt x="406" y="784" on="0"/>
        <pt x="427" y="786" on="0"/>
        <pt x="436" y="789" on="1"/>
        <pt x="438" y="791" on="0"/>
        <pt x="443" y="799" on="0"/>
        <pt x="443" y="804" on="1"/>
        <pt x="445" y="850" on="0"/>
        <pt x="448" y="946" on="0"/>
        <pt x="462" y="991" on="1"/>
        <pt x="470" y="1018" on="0"/>
        <pt x="489" y="1072" on="0"/>
        <pt x="506" y="1126" on="0"/>
        <pt x="517" y="1182" on="0"/>
        <pt x="517" y="1213" on="1"/>
        <pt x="517" y="1225" on="1"/>
        <pt x="515" y="1228" on="0"/>
        <pt x="505" y="1245" on="0"/>
        <pt x="492" y="1265" on="0"/>
        <pt x="480" y="1282" on="0"/>
        <pt x="477" y="1285" on="1"/>
        <pt x="477" y="1287" on="0"/>
        <pt x="474" y="1291" on="0"/>
        <pt x="472" y="1291" on="1"/>
        <pt x="466" y="1289" on="0"/>
        <pt x="453" y="1289" on="0"/>
        <pt x="446" y="1289" on="1"/>
        <pt x="437" y="1289" on="0"/>
        <pt x="421" y="1289" on="0"/>
        <pt x="413" y="1291" on="1"/>
        <pt x="409" y="1291" on="0"/>
        <pt x="388" y="1297" on="0"/>
        <pt x="365" y="1306" on="0"/>
        <pt x="348" y="1317" on="0"/>
        <pt x="348" y="1323" on="1"/>
        <pt x="348" y="1337" on="0"/>
        <pt x="364" y="1347" on="0"/>
        <pt x="375" y="1356" on="1"/>
        <pt x="382" y="1361" on="0"/>
        <pt x="391" y="1363" on="0"/>
        <pt x="398" y="1363" on="1"/>
        <pt x="432" y="1362" on="1"/>
        <pt x="433" y="1362" on="0"/>
        <pt x="441" y="1367" on="0"/>
        <pt x="451" y="1372" on="0"/>
        <pt x="460" y="1377" on="0"/>
        <pt x="462" y="1377" on="1"/>
        <pt x="479" y="1381" on="0"/>
        <pt x="536" y="1386" on="0"/>
        <pt x="597" y="1389" on="0"/>
        <pt x="656" y="1389" on="0"/>
        <pt x="676" y="1389" on="1"/>
        <pt x="728" y="1389" on="1"/>
        <pt x="751" y="1377" on="1"/>
        <pt x="924" y="1377" on="1"/>
        <pt x="936" y="1370" on="0"/>
        <pt x="962" y="1365" on="0"/>
        <pt x="988" y="1363" on="0"/>
        <pt x="1014" y="1360" on="0"/>
        <pt x="1027" y="1356" on="1"/>
        <pt x="1157" y="1291" on="1"/>
        <pt x="1159" y="1290" on="0"/>
        <pt x="1172" y="1287" on="0"/>
        <pt x="1187" y="1282" on="0"/>
        <pt x="1200" y="1279" on="0"/>
        <pt x="1200" y="1278" on="1"/>
        <pt x="1212" y="1274" on="0"/>
        <pt x="1228" y="1261" on="0"/>
        <pt x="1239" y="1245" on="0"/>
        <pt x="1249" y="1227" on="0"/>
        <pt x="1256" y="1220" on="1"/>
        <pt x="1295" y="1177" on="0"/>
        <pt x="1359" y="1089" on="0"/>
        <pt x="1373" y="1029" on="1"/>
        <pt x="1373" y="1028" on="0"/>
        <pt x="1374" y="1015" on="0"/>
        <pt x="1376" y="1000" on="0"/>
        <pt x="1378" y="987" on="0"/>
        <pt x="1379" y="986" on="1"/>
        <pt x="1383" y="974" on="0"/>
        <pt x="1396" y="955" on="0"/>
        <pt x="1408" y="935" on="0"/>
        <pt x="1417" y="914" on="0"/>
        <pt x="1417" y="901" on="1"/>
        <pt x="1417" y="893" on="0"/>
        <pt x="1413" y="868" on="0"/>
        <pt x="1412" y="863" on="1"/>
        <pt x="1413" y="859" on="0"/>
        <pt x="1420" y="844" on="0"/>
        <pt x="1422" y="843" on="1"/>
        <pt x="1424" y="823" on="0"/>
        <pt x="1427" y="788" on="0"/>
        <pt x="1427" y="770" on="1"/>
        <pt x="1427" y="753" on="0"/>
        <pt x="1424" y="720" on="0"/>
        <pt x="1422" y="706" on="1"/>
        <pt x="1422" y="705" on="0"/>
        <pt x="1424" y="695" on="0"/>
        <pt x="1425" y="683" on="0"/>
        <pt x="1427" y="672" on="0"/>
        <pt x="1427" y="671" on="1"/>
        <pt x="1427" y="670" on="1"/>
        <pt x="1427" y="646" on="0"/>
        <pt x="1412" y="597" on="0"/>
        <pt x="1391" y="549" on="0"/>
        <pt x="1367" y="504" on="0"/>
        <pt x="1358" y="483" on="1"/>
        <pt x="1346" y="452" on="1"/>
        <pt x="1338" y="430" on="0"/>
        <pt x="1310" y="381" on="0"/>
        <pt x="1275" y="332" on="0"/>
        <pt x="1239" y="287" on="0"/>
        <pt x="1223" y="268" on="1"/>
        <pt x="1187" y="227" on="0"/>
        <pt x="1115" y="141" on="0"/>
        <pt x="1066" y="111" on="1"/>
        <pt x="1064" y="109" on="0"/>
        <pt x="1041" y="104" on="0"/>
        <pt x="1040" y="104" on="1"/>
        <pt x="962" y="61" on="1"/>
        <pt x="932" y="47" on="0"/>
        <pt x="869" y="41" on="0"/>
        <pt x="837" y="35" on="1"/>
        <pt x="792" y="12" on="1"/>
        <pt x="789" y="12" on="0"/>
        <pt x="770" y="10" on="0"/>
        <pt x="748" y="8" on="0"/>
        <pt x="729" y="6" on="0"/>
        <pt x="728" y="5" on="1"/>
        <pt x="665" y="-1" on="0"/>
        <pt x="532" y="-26" on="0"/>
        <pt x="462" y="-26" on="1"/>
        <pt x="455" y="-26" on="0"/>
        <pt x="417" y="-24" on="0"/>
        <pt x="374" y="-22" on="0"/>
        <pt x="337" y="-20" on="0"/>
        <pt x="330" y="-19" on="1"/>
        <pt x="315" y="-7" on="0"/>
        <pt x="287" y="-3" on="0"/>
        <pt x="270" y="-3" on="1"/>
        <pt x="248" y="-3" on="0"/>
        <pt x="208" y="-12" on="0"/>
        <pt x="170" y="-24" on="0"/>
        <pt x="134" y="-33" on="0"/>
        <pt x="116" y="-33" on="1"/>
        <pt x="105" y="-33" on="0"/>
        <pt x="76" y="-22" on="0"/>
        <pt x="48" y="-4" on="0"/>
        <pt x="29" y="21" on="0"/>
      </contour>
      <contour>
        <pt x="659" y="656" on="1"/>
        <pt x="645" y="656" on="0"/>
        <pt x="606" y="643" on="0"/>
        <pt x="590" y="638" on="1"/>
        <pt x="564" y="574" on="1"/>
        <pt x="561" y="561" on="0"/>
        <pt x="559" y="537" on="0"/>
        <pt x="558" y="513" on="0"/>
        <pt x="555" y="489" on="0"/>
        <pt x="550" y="477" on="1"/>
        <pt x="539" y="447" on="0"/>
        <pt x="522" y="403" on="0"/>
        <pt x="507" y="362" on="0"/>
        <pt x="496" y="314" on="0"/>
        <pt x="493" y="280" on="1"/>
        <pt x="491" y="260" on="0"/>
        <pt x="472" y="229" on="0"/>
        <pt x="472" y="211" on="1"/>
        <pt x="472" y="190" on="1"/>
        <pt x="473" y="190" on="0"/>
        <pt x="481" y="171" on="0"/>
        <pt x="491" y="146" on="0"/>
        <pt x="503" y="119" on="0"/>
        <pt x="507" y="111" on="1"/>
        <pt x="510" y="102" on="0"/>
        <pt x="532" y="87" on="0"/>
        <pt x="562" y="76" on="0"/>
        <pt x="593" y="67" on="0"/>
        <pt x="605" y="64" on="1"/>
        <pt x="608" y="64" on="0"/>
        <pt x="617" y="61" on="0"/>
        <pt x="633" y="59" on="1"/>
        <pt x="651" y="59" on="0"/>
        <pt x="686" y="75" on="0"/>
        <pt x="720" y="99" on="0"/>
        <pt x="752" y="124" on="0"/>
        <pt x="766" y="133" on="1"/>
        <pt x="768" y="133" on="0"/>
        <pt x="780" y="135" on="0"/>
        <pt x="793" y="138" on="0"/>
        <pt x="805" y="141" on="0"/>
        <pt x="806" y="142" on="1"/>
        <pt x="821" y="152" on="0"/>
        <pt x="855" y="181" on="0"/>
        <pt x="888" y="212" on="0"/>
        <pt x="918" y="243" on="0"/>
        <pt x="929" y="256" on="1"/>
        <pt x="934" y="261" on="0"/>
        <pt x="936" y="275" on="0"/>
        <pt x="937" y="290" on="0"/>
        <pt x="941" y="305" on="0"/>
        <pt x="948" y="310" on="1"/>
        <pt x="965" y="319" on="0"/>
        <pt x="983" y="335" on="0"/>
        <pt x="993" y="354" on="0"/>
        <pt x="1002" y="377" on="0"/>
        <pt x="1010" y="393" on="1"/>
        <pt x="1016" y="399" on="0"/>
        <pt x="1037" y="431" on="0"/>
        <pt x="1060" y="466" on="0"/>
        <pt x="1081" y="497" on="0"/>
        <pt x="1086" y="502" on="1"/>
        <pt x="1100" y="542" on="0"/>
        <pt x="1126" y="634" on="0"/>
        <pt x="1131" y="676" on="1"/>
        <pt x="1134" y="693" on="0"/>
        <pt x="1157" y="718" on="0"/>
        <pt x="1157" y="732" on="1"/>
        <pt x="1175" y="778" on="0"/>
        <pt x="1175" y="829" on="1"/>
        <pt x="1175" y="880" on="0"/>
        <pt x="1157" y="934" on="1"/>
        <pt x="1126" y="1024" on="1"/>
        <pt x="1125" y="1026" on="0"/>
        <pt x="1123" y="1036" on="1"/>
        <pt x="1122" y="1040" on="0"/>
        <pt x="1121" y="1045" on="1"/>
        <pt x="1121" y="1083" on="1"/>
        <pt x="1119" y="1086" on="0"/>
        <pt x="1097" y="1127" on="0"/>
        <pt x="1070" y="1174" on="0"/>
        <pt x="1047" y="1212" on="0"/>
        <pt x="1045" y="1213" on="1"/>
        <pt x="962" y="1297" on="1"/>
        <pt x="954" y="1305" on="0"/>
        <pt x="940" y="1310" on="0"/>
        <pt x="932" y="1310" on="1"/>
        <pt x="910" y="1308" on="1"/>
        <pt x="898" y="1310" on="1"/>
        <pt x="887" y="1313" on="0"/>
        <pt x="861" y="1324" on="0"/>
        <pt x="834" y="1335" on="0"/>
        <pt x="806" y="1344" on="0"/>
        <pt x="794" y="1344" on="1"/>
        <pt x="776" y="1344" on="0"/>
        <pt x="761" y="1331" on="0"/>
        <pt x="756" y="1312" on="0"/>
        <pt x="755" y="1288" on="0"/>
        <pt x="751" y="1278" on="1"/>
        <pt x="751" y="1274" on="0"/>
        <pt x="742" y="1254" on="0"/>
        <pt x="740" y="1253" on="1"/>
        <pt x="740" y="1250" on="0"/>
        <pt x="736" y="1230" on="0"/>
        <pt x="731" y="1206" on="0"/>
        <pt x="728" y="1185" on="0"/>
        <pt x="728" y="1182" on="1"/>
        <pt x="726" y="1180" on="0"/>
        <pt x="726" y="1169" on="1"/>
        <pt x="726" y="1163" on="0"/>
        <pt x="728" y="1144" on="0"/>
        <pt x="728" y="1142" on="1"/>
        <pt x="726" y="1139" on="0"/>
        <pt x="721" y="1120" on="0"/>
        <pt x="721" y="1116" on="1"/>
        <pt x="721" y="1114" on="0"/>
        <pt x="715" y="1101" on="0"/>
        <pt x="708" y="1086" on="0"/>
        <pt x="702" y="1073" on="0"/>
        <pt x="702" y="1071" on="1"/>
        <pt x="702" y="1009" on="1"/>
        <pt x="702" y="1008" on="0"/>
        <pt x="696" y="1000" on="0"/>
        <pt x="688" y="990" on="0"/>
        <pt x="682" y="982" on="0"/>
        <pt x="681" y="981" on="1"/>
        <pt x="680" y="979" on="0"/>
        <pt x="679" y="973" on="0"/>
        <pt x="678" y="971" on="1"/>
        <pt x="677" y="968" on="0"/>
        <pt x="675" y="965" on="1"/>
        <pt x="663" y="917" on="0"/>
        <pt x="638" y="823" on="0"/>
        <pt x="624" y="775" on="1"/>
        <pt x="631" y="775" on="0"/>
        <pt x="655" y="775" on="0"/>
        <pt x="681" y="777" on="0"/>
        <pt x="707" y="779" on="0"/>
        <pt x="716" y="782" on="1"/>
        <pt x="739" y="791" on="0"/>
        <pt x="799" y="794" on="0"/>
        <pt x="815" y="794" on="1"/>
        <pt x="829" y="794" on="0"/>
        <pt x="870" y="790" on="0"/>
        <pt x="909" y="778" on="0"/>
        <pt x="937" y="759" on="0"/>
        <pt x="937" y="744" on="1"/>
        <pt x="937" y="732" on="0"/>
        <pt x="934" y="725" on="1"/>
        <pt x="922" y="692" on="0"/>
        <pt x="899" y="654" on="0"/>
        <pt x="865" y="636" on="0"/>
        <pt x="815" y="631" on="0"/>
        <pt x="775" y="631" on="1"/>
        <pt x="773" y="632" on="0"/>
        <pt x="749" y="639" on="0"/>
        <pt x="722" y="647" on="0"/>
        <pt x="698" y="654" on="0"/>
        <pt x="697" y="654" on="1"/>
      </contour>
    </TTGlyph>
    <TTGlyph name="Euro" xMin="159" yMin="3" xMax="1389" yMax="1426">
      <contour>
        <pt x="582" y="927" on="1"/>
        <pt x="578" y="918" on="0"/>
        <pt x="575" y="907" on="0"/>
        <pt x="574" y="903" on="1"/>
        <pt x="556" y="863" on="1"/>
        <pt x="601" y="830" on="1"/>
        <pt x="622" y="835" on="0"/>
        <pt x="653" y="840" on="0"/>
        <pt x="674" y="843" on="1"/>
        <pt x="691" y="843" on="0"/>
        <pt x="724" y="839" on="0"/>
        <pt x="724" y="825" on="1"/>
        <pt x="740" y="828" on="0"/>
        <pt x="772" y="830" on="0"/>
        <pt x="788" y="830" on="1"/>
        <pt x="887" y="830" on="1"/>
        <pt x="910" y="837" on="0"/>
        <pt x="960" y="849" on="0"/>
        <pt x="987" y="851" on="1"/>
        <pt x="992" y="846" on="0"/>
        <pt x="1015" y="839" on="0"/>
        <pt x="1029" y="839" on="1"/>
        <pt x="1041" y="839" on="0"/>
        <pt x="1044" y="843" on="1"/>
        <pt x="1126" y="848" on="1"/>
        <pt x="1127" y="844" on="0"/>
        <pt x="1127" y="836" on="0"/>
        <pt x="1127" y="834" on="1"/>
        <pt x="1127" y="830" on="0"/>
        <pt x="1126" y="823" on="0"/>
        <pt x="1124" y="818" on="1"/>
        <pt x="1121" y="810" on="0"/>
        <pt x="1100" y="786" on="0"/>
        <pt x="1077" y="768" on="1"/>
        <pt x="1072" y="766" on="0"/>
        <pt x="1060" y="766" on="1"/>
        <pt x="1051" y="766" on="0"/>
        <pt x="1033" y="771" on="0"/>
        <pt x="1022" y="775" on="1"/>
        <pt x="1009" y="782" on="0"/>
        <pt x="1003" y="782" on="1"/>
        <pt x="989" y="782" on="0"/>
        <pt x="959" y="769" on="0"/>
        <pt x="946" y="765" on="1"/>
        <pt x="941" y="763" on="0"/>
        <pt x="932" y="763" on="0"/>
        <pt x="927" y="763" on="1"/>
        <pt x="920" y="763" on="0"/>
        <pt x="899" y="765" on="0"/>
        <pt x="882" y="766" on="1"/>
        <pt x="830" y="759" on="1"/>
        <pt x="726" y="756" on="1"/>
        <pt x="715" y="757" on="0"/>
        <pt x="701" y="759" on="0"/>
        <pt x="689" y="762" on="0"/>
        <pt x="677" y="765" on="0"/>
        <pt x="667" y="766" on="1"/>
        <pt x="659" y="765" on="0"/>
        <pt x="642" y="763" on="0"/>
        <pt x="633" y="763" on="1"/>
        <pt x="617" y="763" on="0"/>
        <pt x="590" y="766" on="0"/>
        <pt x="579" y="768" on="1"/>
        <pt x="506" y="768" on="1"/>
        <pt x="456" y="723" on="1"/>
        <pt x="473" y="685" on="1"/>
        <pt x="569" y="675" on="1"/>
        <pt x="634" y="685" on="1"/>
        <pt x="648" y="673" on="1"/>
        <pt x="766" y="685" on="1"/>
        <pt x="814" y="661" on="1"/>
        <pt x="940" y="685" on="1"/>
        <pt x="958" y="692" on="0"/>
        <pt x="982" y="692" on="1"/>
        <pt x="989" y="692" on="0"/>
        <pt x="1009" y="689" on="0"/>
        <pt x="1018" y="685" on="1"/>
        <pt x="1021" y="681" on="0"/>
        <pt x="1022" y="677" on="0"/>
        <pt x="1022" y="675" on="1"/>
        <pt x="1022" y="672" on="0"/>
        <pt x="1018" y="664" on="0"/>
        <pt x="1017" y="659" on="1"/>
        <pt x="1006" y="635" on="0"/>
        <pt x="966" y="611" on="1"/>
        <pt x="960" y="606" on="0"/>
        <pt x="940" y="600" on="0"/>
        <pt x="927" y="600" on="1"/>
        <pt x="913" y="600" on="0"/>
        <pt x="883" y="610" on="0"/>
        <pt x="866" y="612" on="1"/>
        <pt x="859" y="618" on="1"/>
        <pt x="690" y="611" on="1"/>
        <pt x="634" y="618" on="1"/>
        <pt x="546" y="611" on="1"/>
        <pt x="449" y="611" on="1"/>
        <pt x="449" y="609" on="1"/>
        <pt x="446" y="600" on="0"/>
        <pt x="437" y="594" on="0"/>
        <pt x="428" y="591" on="0"/>
        <pt x="419" y="587" on="0"/>
        <pt x="416" y="581" on="1"/>
        <pt x="416" y="567" on="1"/>
        <pt x="416" y="547" on="0"/>
        <pt x="420" y="527" on="0"/>
        <pt x="420" y="516" on="1"/>
        <pt x="420" y="513" on="0"/>
        <pt x="420" y="507" on="0"/>
        <pt x="418" y="502" on="1"/>
        <pt x="416" y="495" on="0"/>
        <pt x="415" y="485" on="0"/>
        <pt x="413" y="474" on="1"/>
        <pt x="409" y="464" on="0"/>
        <pt x="409" y="457" on="1"/>
        <pt x="409" y="438" on="0"/>
        <pt x="416" y="394" on="0"/>
        <pt x="416" y="381" on="1"/>
        <pt x="416" y="379" on="1"/>
        <pt x="416" y="373" on="0"/>
        <pt x="412" y="350" on="0"/>
        <pt x="408" y="324" on="0"/>
        <pt x="404" y="299" on="0"/>
        <pt x="404" y="291" on="1"/>
        <pt x="404" y="288" on="0"/>
        <pt x="406" y="284" on="0"/>
        <pt x="406" y="282" on="1"/>
        <pt x="410" y="262" on="0"/>
        <pt x="437" y="227" on="0"/>
        <pt x="447" y="211" on="1"/>
        <pt x="451" y="200" on="0"/>
        <pt x="453" y="174" on="0"/>
        <pt x="455" y="150" on="0"/>
        <pt x="461" y="130" on="0"/>
        <pt x="470" y="125" on="1"/>
        <pt x="481" y="120" on="0"/>
        <pt x="495" y="118" on="0"/>
        <pt x="506" y="118" on="1"/>
        <pt x="511" y="118" on="0"/>
        <pt x="524" y="118" on="0"/>
        <pt x="530" y="116" on="1"/>
        <pt x="540" y="112" on="0"/>
        <pt x="577" y="100" on="0"/>
        <pt x="584" y="100" on="1"/>
        <pt x="602" y="100" on="0"/>
        <pt x="642" y="105" on="0"/>
        <pt x="662" y="109" on="1"/>
        <pt x="728" y="138" on="1"/>
        <pt x="757" y="150" on="0"/>
        <pt x="798" y="161" on="0"/>
        <pt x="816" y="166" on="1"/>
        <pt x="827" y="173" on="0"/>
        <pt x="833" y="176" on="0"/>
        <pt x="842" y="180" on="1"/>
        <pt x="847" y="187" on="0"/>
        <pt x="865" y="199" on="0"/>
        <pt x="870" y="211" on="1"/>
        <pt x="878" y="217" on="0"/>
        <pt x="893" y="226" on="0"/>
        <pt x="908" y="235" on="0"/>
        <pt x="924" y="246" on="0"/>
        <pt x="934" y="254" on="1"/>
        <pt x="944" y="262" on="0"/>
        <pt x="957" y="276" on="0"/>
        <pt x="970" y="291" on="0"/>
        <pt x="986" y="308" on="0"/>
        <pt x="998" y="318" on="1"/>
        <pt x="1003" y="321" on="0"/>
        <pt x="1016" y="327" on="0"/>
        <pt x="1024" y="327" on="1"/>
        <pt x="1032" y="327" on="0"/>
        <pt x="1043" y="319" on="0"/>
        <pt x="1043" y="308" on="1"/>
        <pt x="1029" y="287" on="0"/>
        <pt x="1000" y="260" on="0"/>
        <pt x="987" y="249" on="1"/>
        <pt x="923" y="180" on="1"/>
        <pt x="896" y="154" on="0"/>
        <pt x="860" y="119" on="0"/>
        <pt x="835" y="102" on="1"/>
        <pt x="823" y="94" on="0"/>
        <pt x="783" y="72" on="0"/>
        <pt x="767" y="66" on="1"/>
        <pt x="740" y="52" on="0"/>
        <pt x="674" y="35" on="0"/>
        <pt x="643" y="31" on="1"/>
        <pt x="620" y="22" on="0"/>
        <pt x="570" y="3" on="0"/>
        <pt x="544" y="3" on="1"/>
        <pt x="536" y="3" on="0"/>
        <pt x="522" y="5" on="0"/>
        <pt x="515" y="7" on="1"/>
        <pt x="495" y="12" on="0"/>
        <pt x="441" y="19" on="0"/>
        <pt x="418" y="33" on="1"/>
        <pt x="359" y="50" on="1"/>
        <pt x="345" y="58" on="0"/>
        <pt x="319" y="74" on="0"/>
        <pt x="311" y="83" on="1"/>
        <pt x="228" y="235" on="1"/>
        <pt x="226" y="239" on="0"/>
        <pt x="226" y="249" on="1"/>
        <pt x="226" y="253" on="0"/>
        <pt x="227" y="264" on="0"/>
        <pt x="229" y="279" on="1"/>
        <pt x="229" y="283" on="0"/>
        <pt x="212" y="293" on="0"/>
        <pt x="212" y="299" on="1"/>
        <pt x="207" y="318" on="1"/>
        <pt x="207" y="326" on="0"/>
        <pt x="212" y="336" on="0"/>
        <pt x="212" y="348" on="1"/>
        <pt x="229" y="434" on="1"/>
        <pt x="229" y="451" on="0"/>
        <pt x="219" y="463" on="0"/>
        <pt x="219" y="477" on="1"/>
        <pt x="219" y="480" on="0"/>
        <pt x="221" y="490" on="0"/>
        <pt x="221" y="495" on="1"/>
        <pt x="226" y="515" on="0"/>
        <pt x="239" y="559" on="0"/>
        <pt x="247" y="581" on="1"/>
        <pt x="257" y="611" on="1"/>
        <pt x="241" y="619" on="0"/>
        <pt x="212" y="619" on="1"/>
        <pt x="201" y="619" on="0"/>
        <pt x="176" y="616" on="0"/>
        <pt x="159" y="611" on="1"/>
        <pt x="159" y="617" on="0"/>
        <pt x="161" y="634" on="0"/>
        <pt x="167" y="644" on="1"/>
        <pt x="170" y="653" on="0"/>
        <pt x="186" y="674" on="0"/>
        <pt x="207" y="685" on="1"/>
        <pt x="211" y="688" on="0"/>
        <pt x="216" y="689" on="0"/>
        <pt x="217" y="689" on="1"/>
        <pt x="224" y="689" on="0"/>
        <pt x="228" y="680" on="0"/>
        <pt x="235" y="678" on="1"/>
        <pt x="281" y="685" on="1"/>
        <pt x="288" y="704" on="1"/>
        <pt x="295" y="733" on="0"/>
        <pt x="314" y="768" on="1"/>
        <pt x="219" y="768" on="1"/>
        <pt x="216" y="774" on="0"/>
        <pt x="216" y="782" on="1"/>
        <pt x="216" y="787" on="0"/>
        <pt x="217" y="793" on="0"/>
        <pt x="219" y="798" on="1"/>
        <pt x="224" y="811" on="0"/>
        <pt x="245" y="832" on="0"/>
        <pt x="268" y="848" on="1"/>
        <pt x="278" y="848" on="0"/>
        <pt x="290" y="839" on="0"/>
        <pt x="297" y="839" on="1"/>
        <pt x="326" y="834" on="1"/>
        <pt x="329" y="836" on="0"/>
        <pt x="342" y="848" on="0"/>
        <pt x="349" y="848" on="1"/>
        <pt x="355" y="859" on="0"/>
        <pt x="365" y="885" on="0"/>
        <pt x="370" y="896" on="1"/>
        <pt x="374" y="903" on="0"/>
        <pt x="379" y="920" on="0"/>
        <pt x="383" y="929" on="1"/>
        <pt x="444" y="986" on="1"/>
        <pt x="453" y="999" on="0"/>
        <pt x="466" y="1026" on="0"/>
        <pt x="479" y="1053" on="0"/>
        <pt x="494" y="1079" on="0"/>
        <pt x="506" y="1090" on="1"/>
        <pt x="515" y="1103" on="0"/>
        <pt x="560" y="1136" on="0"/>
        <pt x="577" y="1150" on="1"/>
        <pt x="579" y="1153" on="0"/>
        <pt x="580" y="1161" on="0"/>
        <pt x="582" y="1163" on="1"/>
        <pt x="584" y="1169" on="0"/>
        <pt x="587" y="1173" on="0"/>
        <pt x="589" y="1175" on="1"/>
        <pt x="603" y="1193" on="0"/>
        <pt x="635" y="1225" on="0"/>
        <pt x="648" y="1239" on="1"/>
        <pt x="656" y="1243" on="0"/>
        <pt x="664" y="1248" on="0"/>
        <pt x="672" y="1252" on="0"/>
        <pt x="680" y="1258" on="0"/>
        <pt x="688" y="1265" on="1"/>
        <pt x="699" y="1276" on="0"/>
        <pt x="740" y="1299" on="0"/>
        <pt x="754" y="1306" on="1"/>
        <pt x="779" y="1324" on="0"/>
        <pt x="819" y="1363" on="0"/>
        <pt x="851" y="1374" on="1"/>
        <pt x="857" y="1376" on="0"/>
        <pt x="864" y="1379" on="0"/>
        <pt x="868" y="1379" on="1"/>
        <pt x="876" y="1379" on="0"/>
        <pt x="904" y="1386" on="0"/>
        <pt x="915" y="1386" on="1"/>
        <pt x="917" y="1386" on="0"/>
        <pt x="922" y="1386" on="0"/>
        <pt x="927" y="1387" on="1"/>
        <pt x="940" y="1389" on="0"/>
        <pt x="949" y="1393" on="0"/>
        <pt x="954" y="1396" on="0"/>
        <pt x="961" y="1399" on="0"/>
        <pt x="972" y="1401" on="1"/>
        <pt x="984" y="1402" on="0"/>
        <pt x="1019" y="1410" on="0"/>
        <pt x="1054" y="1418" on="0"/>
        <pt x="1084" y="1425" on="0"/>
        <pt x="1091" y="1426" on="1"/>
        <pt x="1162" y="1406" on="1"/>
        <pt x="1197" y="1405" on="1"/>
        <pt x="1209" y="1404" on="0"/>
        <pt x="1225" y="1399" on="0"/>
        <pt x="1240" y="1391" on="0"/>
        <pt x="1257" y="1383" on="0"/>
        <pt x="1269" y="1379" on="1"/>
        <pt x="1286" y="1371" on="0"/>
        <pt x="1320" y="1360" on="0"/>
        <pt x="1338" y="1349" on="1"/>
        <pt x="1352" y="1344" on="0"/>
        <pt x="1375" y="1329" on="0"/>
        <pt x="1389" y="1320" on="1"/>
        <pt x="1366" y="1195" on="1"/>
        <pt x="1361" y="1177" on="0"/>
        <pt x="1337" y="1143" on="0"/>
        <pt x="1323" y="1126" on="1"/>
        <pt x="1323" y="1118" on="0"/>
        <pt x="1318" y="1107" on="0"/>
        <pt x="1314" y="1100" on="1"/>
        <pt x="1308" y="1082" on="0"/>
        <pt x="1291" y="1045" on="0"/>
        <pt x="1278" y="1029" on="1"/>
        <pt x="1273" y="1025" on="0"/>
        <pt x="1265" y="1021" on="0"/>
        <pt x="1259" y="1021" on="1"/>
        <pt x="1252" y="1021" on="0"/>
        <pt x="1242" y="1026" on="1"/>
        <pt x="1247" y="1042" on="0"/>
        <pt x="1252" y="1066" on="0"/>
        <pt x="1257" y="1080" on="1"/>
        <pt x="1257" y="1225" on="1"/>
        <pt x="1255" y="1244" on="1"/>
        <pt x="1226" y="1247" on="1"/>
        <pt x="1218" y="1264" on="0"/>
        <pt x="1207" y="1302" on="0"/>
        <pt x="1191" y="1311" on="1"/>
        <pt x="1180" y="1319" on="0"/>
        <pt x="1146" y="1333" on="0"/>
        <pt x="1129" y="1337" on="1"/>
        <pt x="1109" y="1337" on="0"/>
        <pt x="1083" y="1330" on="0"/>
        <pt x="1069" y="1330" on="1"/>
        <pt x="1004" y="1334" on="1"/>
        <pt x="980" y="1332" on="1"/>
        <pt x="960" y="1325" on="0"/>
        <pt x="929" y="1300" on="0"/>
        <pt x="915" y="1291" on="1"/>
        <pt x="895" y="1280" on="0"/>
        <pt x="854" y="1267" on="0"/>
        <pt x="831" y="1251" on="1"/>
        <pt x="813" y="1235" on="0"/>
        <pt x="777" y="1201" on="0"/>
        <pt x="757" y="1180" on="1"/>
        <pt x="752" y="1175" on="0"/>
        <pt x="745" y="1170" on="0"/>
        <pt x="739" y="1166" on="0"/>
        <pt x="733" y="1160" on="0"/>
        <pt x="729" y="1154" on="1"/>
        <pt x="726" y="1147" on="0"/>
        <pt x="716" y="1123" on="0"/>
        <pt x="705" y="1099" on="0"/>
        <pt x="694" y="1077" on="0"/>
        <pt x="690" y="1073" on="1"/>
        <pt x="682" y="1063" on="0"/>
        <pt x="670" y="1052" on="0"/>
        <pt x="658" y="1043" on="0"/>
        <pt x="643" y="1034" on="0"/>
        <pt x="631" y="1026" on="1"/>
        <pt x="622" y="1022" on="0"/>
        <pt x="609" y="1001" on="0"/>
        <pt x="607" y="993" on="1"/>
        <pt x="604" y="991" on="0"/>
        <pt x="600" y="985" on="0"/>
        <pt x="598" y="983" on="1"/>
      </contour>
    </TTGlyph>
    <TTGlyph name="F" xMin="21" yMin="-9" xMax="1398" yMax="1420">
      <contour>
        <pt x="21" y="19" on="1"/>
        <pt x="24" y="50" on="0"/>
        <pt x="62" y="80" on="0"/>
        <pt x="113" y="98" on="0"/>
        <pt x="168" y="113" on="0"/>
        <pt x="186" y="130" on="1"/>
        <pt x="190" y="131" on="0"/>
        <pt x="201" y="154" on="0"/>
        <pt x="203" y="156" on="1"/>
        <pt x="204" y="158" on="0"/>
        <pt x="214" y="167" on="0"/>
        <pt x="226" y="176" on="0"/>
        <pt x="236" y="185" on="0"/>
        <pt x="237" y="187" on="1"/>
        <pt x="266" y="305" on="0"/>
        <pt x="342" y="538" on="0"/>
        <pt x="369" y="656" on="1"/>
        <pt x="369" y="657" on="0"/>
        <pt x="372" y="668" on="0"/>
        <pt x="374" y="670" on="1"/>
        <pt x="375" y="672" on="0"/>
        <pt x="384" y="687" on="0"/>
        <pt x="395" y="704" on="0"/>
        <pt x="405" y="718" on="0"/>
        <pt x="405" y="720" on="1"/>
        <pt x="406" y="723" on="0"/>
        <pt x="410" y="734" on="0"/>
        <pt x="412" y="745" on="0"/>
        <pt x="414" y="754" on="0"/>
        <pt x="414" y="754" on="1"/>
        <pt x="416" y="763" on="0"/>
        <pt x="425" y="797" on="0"/>
        <pt x="435" y="832" on="0"/>
        <pt x="446" y="862" on="0"/>
        <pt x="449" y="867" on="1"/>
        <pt x="452" y="879" on="0"/>
        <pt x="463" y="915" on="0"/>
        <pt x="475" y="956" on="0"/>
        <pt x="483" y="998" on="0"/>
        <pt x="483" y="1016" on="1"/>
        <pt x="486" y="1020" on="0"/>
        <pt x="499" y="1042" on="0"/>
        <pt x="511" y="1067" on="0"/>
        <pt x="521" y="1090" on="0"/>
        <pt x="523" y="1095" on="1"/>
        <pt x="523" y="1097" on="0"/>
        <pt x="525" y="1109" on="0"/>
        <pt x="527" y="1122" on="0"/>
        <pt x="530" y="1132" on="0"/>
        <pt x="532" y="1133" on="1"/>
        <pt x="540" y="1160" on="0"/>
        <pt x="563" y="1216" on="0"/>
        <pt x="563" y="1246" on="1"/>
        <pt x="563" y="1272" on="0"/>
        <pt x="532" y="1298" on="0"/>
        <pt x="485" y="1309" on="0"/>
        <pt x="431" y="1314" on="0"/>
        <pt x="384" y="1325" on="0"/>
        <pt x="353" y="1349" on="0"/>
        <pt x="353" y="1374" on="1"/>
        <pt x="374" y="1401" on="0"/>
        <pt x="421" y="1420" on="0"/>
        <pt x="454" y="1420" on="1"/>
        <pt x="465" y="1420" on="0"/>
        <pt x="488" y="1413" on="0"/>
        <pt x="502" y="1413" on="1"/>
        <pt x="504" y="1413" on="1"/>
        <pt x="507" y="1414" on="0"/>
        <pt x="522" y="1417" on="0"/>
        <pt x="540" y="1419" on="0"/>
        <pt x="554" y="1420" on="0"/>
        <pt x="556" y="1420" on="1"/>
        <pt x="585" y="1420" on="0"/>
        <pt x="629" y="1410" on="0"/>
        <pt x="649" y="1403" on="1"/>
        <pt x="929" y="1403" on="1"/>
        <pt x="959" y="1400" on="0"/>
        <pt x="1019" y="1390" on="0"/>
        <pt x="1080" y="1380" on="0"/>
        <pt x="1141" y="1372" on="0"/>
        <pt x="1172" y="1372" on="1"/>
        <pt x="1208" y="1372" on="1"/>
        <pt x="1224" y="1382" on="1"/>
        <pt x="1260" y="1382" on="1"/>
        <pt x="1299" y="1382" on="0"/>
        <pt x="1352" y="1371" on="0"/>
        <pt x="1384" y="1341" on="0"/>
        <pt x="1398" y="1286" on="0"/>
        <pt x="1398" y="1242" on="1"/>
        <pt x="1398" y="1236" on="0"/>
        <pt x="1393" y="1217" on="0"/>
        <pt x="1383" y="1199" on="0"/>
        <pt x="1369" y="1185" on="0"/>
        <pt x="1360" y="1185" on="1"/>
        <pt x="1335" y="1185" on="0"/>
        <pt x="1304" y="1220" on="0"/>
        <pt x="1278" y="1265" on="0"/>
        <pt x="1248" y="1305" on="0"/>
        <pt x="1224" y="1310" on="1"/>
        <pt x="1109" y="1310" on="1"/>
        <pt x="1107" y="1310" on="0"/>
        <pt x="1089" y="1316" on="0"/>
        <pt x="1087" y="1318" on="1"/>
        <pt x="955" y="1318" on="1"/>
        <pt x="928" y="1318" on="0"/>
        <pt x="889" y="1337" on="0"/>
        <pt x="865" y="1337" on="1"/>
        <pt x="841" y="1337" on="0"/>
        <pt x="805" y="1314" on="0"/>
        <pt x="779" y="1279" on="0"/>
        <pt x="762" y="1238" on="0"/>
        <pt x="756" y="1220" on="1"/>
        <pt x="756" y="1217" on="0"/>
        <pt x="755" y="1204" on="0"/>
        <pt x="753" y="1189" on="0"/>
        <pt x="752" y="1175" on="0"/>
        <pt x="751" y="1171" on="1"/>
        <pt x="751" y="1145" on="1"/>
        <pt x="751" y="1145" on="0"/>
        <pt x="744" y="1138" on="0"/>
        <pt x="735" y="1130" on="0"/>
        <pt x="728" y="1123" on="0"/>
        <pt x="727" y="1123" on="1"/>
        <pt x="720" y="1112" on="0"/>
        <pt x="718" y="1086" on="0"/>
        <pt x="713" y="1073" on="1"/>
        <pt x="704" y="1057" on="0"/>
        <pt x="685" y="1027" on="0"/>
        <pt x="680" y="1009" on="1"/>
        <pt x="680" y="1002" on="0"/>
        <pt x="673" y="977" on="0"/>
        <pt x="666" y="951" on="0"/>
        <pt x="660" y="932" on="0"/>
        <pt x="660" y="931" on="1"/>
        <pt x="658" y="929" on="0"/>
        <pt x="649" y="915" on="0"/>
        <pt x="649" y="913" on="1"/>
        <pt x="649" y="896" on="1"/>
        <pt x="649" y="866" on="0"/>
        <pt x="678" y="826" on="0"/>
        <pt x="722" y="802" on="0"/>
        <pt x="775" y="792" on="0"/>
        <pt x="800" y="792" on="1"/>
        <pt x="811" y="792" on="0"/>
        <pt x="832" y="811" on="0"/>
        <pt x="836" y="815" on="1"/>
        <pt x="858" y="826" on="0"/>
        <pt x="909" y="849" on="0"/>
        <pt x="923" y="867" on="1"/>
        <pt x="934" y="881" on="0"/>
        <pt x="960" y="929" on="0"/>
        <pt x="988" y="976" on="0"/>
        <pt x="1020" y="1010" on="0"/>
        <pt x="1037" y="1010" on="1"/>
        <pt x="1048" y="1010" on="0"/>
        <pt x="1066" y="998" on="0"/>
        <pt x="1066" y="984" on="1"/>
        <pt x="1066" y="952" on="0"/>
        <pt x="1054" y="893" on="0"/>
        <pt x="1033" y="867" on="1"/>
        <pt x="1031" y="861" on="0"/>
        <pt x="1023" y="833" on="0"/>
        <pt x="1015" y="803" on="0"/>
        <pt x="1008" y="776" on="0"/>
        <pt x="1007" y="772" on="1"/>
        <pt x="1004" y="752" on="0"/>
        <pt x="1001" y="678" on="0"/>
        <pt x="989" y="603" on="0"/>
        <pt x="960" y="548" on="0"/>
        <pt x="931" y="548" on="1"/>
        <pt x="901" y="548" on="0"/>
        <pt x="882" y="581" on="0"/>
        <pt x="877" y="624" on="0"/>
        <pt x="872" y="666" on="0"/>
        <pt x="857" y="676" on="1"/>
        <pt x="854" y="679" on="0"/>
        <pt x="829" y="689" on="0"/>
        <pt x="824" y="690" on="1"/>
        <pt x="822" y="690" on="0"/>
        <pt x="809" y="691" on="0"/>
        <pt x="794" y="693" on="0"/>
        <pt x="781" y="695" on="0"/>
        <pt x="779" y="695" on="1"/>
        <pt x="751" y="720" on="1"/>
        <pt x="740" y="731" on="0"/>
        <pt x="705" y="737" on="0"/>
        <pt x="689" y="737" on="1"/>
        <pt x="665" y="737" on="1"/>
        <pt x="623" y="737" on="0"/>
        <pt x="576" y="687" on="0"/>
        <pt x="552" y="614" on="0"/>
        <pt x="545" y="533" on="0"/>
        <pt x="544" y="502" on="1"/>
        <pt x="527" y="478" on="0"/>
        <pt x="500" y="418" on="0"/>
        <pt x="478" y="354" on="0"/>
        <pt x="460" y="291" on="0"/>
        <pt x="454" y="265" on="1"/>
        <pt x="453" y="264" on="0"/>
        <pt x="448" y="257" on="0"/>
        <pt x="442" y="248" on="0"/>
        <pt x="438" y="240" on="0"/>
        <pt x="438" y="239" on="1"/>
        <pt x="438" y="222" on="0"/>
        <pt x="451" y="185" on="0"/>
        <pt x="473" y="155" on="0"/>
        <pt x="502" y="135" on="0"/>
        <pt x="519" y="135" on="1"/>
        <pt x="589" y="144" on="1"/>
        <pt x="611" y="144" on="0"/>
        <pt x="654" y="117" on="0"/>
        <pt x="654" y="90" on="1"/>
        <pt x="654" y="76" on="0"/>
        <pt x="653" y="54" on="0"/>
        <pt x="647" y="36" on="0"/>
        <pt x="633" y="21" on="0"/>
        <pt x="620" y="14" on="1"/>
        <pt x="617" y="11" on="0"/>
        <pt x="605" y="4" on="0"/>
        <pt x="591" y="-4" on="0"/>
        <pt x="579" y="-9" on="0"/>
        <pt x="577" y="-9" on="1"/>
        <pt x="471" y="-9" on="1"/>
        <pt x="459" y="-2" on="0"/>
        <pt x="445" y="7" on="0"/>
        <pt x="432" y="12" on="0"/>
        <pt x="417" y="14" on="0"/>
        <pt x="405" y="14" on="1"/>
        <pt x="317" y="7" on="1"/>
        <pt x="291" y="-9" on="1"/>
        <pt x="134" y="-9" on="1"/>
        <pt x="133" y="-9" on="0"/>
        <pt x="118" y="-8" on="0"/>
        <pt x="98" y="-5" on="0"/>
        <pt x="78" y="-2" on="0"/>
        <pt x="73" y="0" on="1"/>
        <pt x="68" y="1" on="0"/>
        <pt x="53" y="2" on="0"/>
        <pt x="37" y="5" on="0"/>
        <pt x="24" y="12" on="0"/>
      </contour>
    </TTGlyph>
    <TTGlyph name="G" xMin="196" yMin="-10" xMax="1432" yMax="1465">
      <contour>
        <pt x="390" y="90" on="1"/>
        <pt x="384" y="94" on="0"/>
        <pt x="354" y="122" on="0"/>
        <pt x="321" y="155" on="0"/>
        <pt x="291" y="184" on="0"/>
        <pt x="285" y="190" on="1"/>
        <pt x="276" y="200" on="0"/>
        <pt x="267" y="221" on="0"/>
        <pt x="262" y="242" on="0"/>
        <pt x="258" y="265" on="0"/>
        <pt x="252" y="277" on="1"/>
        <pt x="223" y="351" on="0"/>
        <pt x="196" y="507" on="0"/>
        <pt x="196" y="586" on="1"/>
        <pt x="196" y="605" on="0"/>
        <pt x="196" y="653" on="0"/>
        <pt x="199" y="702" on="0"/>
        <pt x="203" y="748" on="0"/>
        <pt x="208" y="766" on="1"/>
        <pt x="215" y="789" on="0"/>
        <pt x="237" y="830" on="0"/>
        <pt x="261" y="871" on="0"/>
        <pt x="285" y="912" on="0"/>
        <pt x="295" y="934" on="1"/>
        <pt x="309" y="977" on="0"/>
        <pt x="340" y="1063" on="0"/>
        <pt x="368" y="1105" on="1"/>
        <pt x="369" y="1108" on="0"/>
        <pt x="384" y="1127" on="0"/>
        <pt x="400" y="1148" on="0"/>
        <pt x="415" y="1166" on="0"/>
        <pt x="416" y="1168" on="1"/>
        <pt x="427" y="1184" on="0"/>
        <pt x="447" y="1204" on="0"/>
        <pt x="468" y="1220" on="0"/>
        <pt x="490" y="1239" on="0"/>
        <pt x="503" y="1254" on="1"/>
        <pt x="513" y="1272" on="1"/>
        <pt x="523" y="1285" on="0"/>
        <pt x="542" y="1300" on="0"/>
        <pt x="561" y="1312" on="0"/>
        <pt x="581" y="1324" on="0"/>
        <pt x="593" y="1334" on="1"/>
        <pt x="595" y="1336" on="0"/>
        <pt x="613" y="1353" on="0"/>
        <pt x="633" y="1372" on="0"/>
        <pt x="650" y="1389" on="0"/>
        <pt x="651" y="1391" on="1"/>
        <pt x="653" y="1391" on="0"/>
        <pt x="661" y="1398" on="0"/>
        <pt x="663" y="1400" on="1"/>
        <pt x="715" y="1408" on="1"/>
        <pt x="717" y="1410" on="0"/>
        <pt x="733" y="1424" on="0"/>
        <pt x="734" y="1424" on="1"/>
        <pt x="748" y="1431" on="0"/>
        <pt x="768" y="1437" on="0"/>
        <pt x="787" y="1440" on="0"/>
        <pt x="808" y="1441" on="0"/>
        <pt x="823" y="1443" on="1"/>
        <pt x="825" y="1444" on="0"/>
        <pt x="847" y="1451" on="0"/>
        <pt x="873" y="1458" on="0"/>
        <pt x="896" y="1465" on="0"/>
        <pt x="900" y="1465" on="1"/>
        <pt x="951" y="1465" on="1"/>
        <pt x="958" y="1465" on="0"/>
        <pt x="993" y="1465" on="0"/>
        <pt x="1031" y="1463" on="0"/>
        <pt x="1065" y="1460" on="0"/>
        <pt x="1073" y="1457" on="1"/>
        <pt x="1076" y="1456" on="0"/>
        <pt x="1094" y="1445" on="0"/>
        <pt x="1115" y="1431" on="0"/>
        <pt x="1133" y="1418" on="0"/>
        <pt x="1134" y="1415" on="1"/>
        <pt x="1163" y="1398" on="0"/>
        <pt x="1245" y="1389" on="0"/>
        <pt x="1279" y="1389" on="1"/>
        <pt x="1293" y="1389" on="0"/>
        <pt x="1314" y="1405" on="0"/>
        <pt x="1326" y="1405" on="1"/>
        <pt x="1332" y="1405" on="0"/>
        <pt x="1349" y="1391" on="0"/>
        <pt x="1365" y="1372" on="0"/>
        <pt x="1376" y="1352" on="0"/>
        <pt x="1376" y="1346" on="1"/>
        <pt x="1376" y="1344" on="1"/>
        <pt x="1371" y="1326" on="0"/>
        <pt x="1357" y="1300" on="0"/>
        <pt x="1357" y="1280" on="1"/>
        <pt x="1357" y="1260" on="0"/>
        <pt x="1368" y="1227" on="0"/>
        <pt x="1368" y="1213" on="1"/>
        <pt x="1368" y="1201" on="1"/>
        <pt x="1367" y="1198" on="0"/>
        <pt x="1359" y="1178" on="0"/>
        <pt x="1350" y="1154" on="0"/>
        <pt x="1342" y="1133" on="0"/>
        <pt x="1342" y="1130" on="1"/>
        <pt x="1338" y="1114" on="0"/>
        <pt x="1338" y="1085" on="0"/>
        <pt x="1333" y="1063" on="0"/>
        <pt x="1315" y="1050" on="0"/>
        <pt x="1293" y="1050" on="1"/>
        <pt x="1255" y="1050" on="0"/>
        <pt x="1218" y="1085" on="0"/>
        <pt x="1199" y="1138" on="0"/>
        <pt x="1190" y="1200" on="0"/>
        <pt x="1181" y="1227" on="1"/>
        <pt x="1170" y="1256" on="0"/>
        <pt x="1118" y="1306" on="0"/>
        <pt x="1053" y="1344" on="0"/>
        <pt x="983" y="1365" on="0"/>
        <pt x="954" y="1365" on="1"/>
        <pt x="944" y="1365" on="1"/>
        <pt x="921" y="1351" on="1"/>
        <pt x="857" y="1351" on="1"/>
        <pt x="843" y="1350" on="0"/>
        <pt x="805" y="1324" on="0"/>
        <pt x="765" y="1291" on="0"/>
        <pt x="728" y="1258" on="0"/>
        <pt x="715" y="1249" on="1"/>
        <pt x="714" y="1248" on="0"/>
        <pt x="695" y="1235" on="0"/>
        <pt x="673" y="1219" on="0"/>
        <pt x="653" y="1204" on="0"/>
        <pt x="651" y="1201" on="1"/>
        <pt x="646" y="1196" on="0"/>
        <pt x="638" y="1185" on="0"/>
        <pt x="638" y="1178" on="1"/>
        <pt x="638" y="1171" on="0"/>
        <pt x="639" y="1168" on="1"/>
        <pt x="636" y="1163" on="0"/>
        <pt x="622" y="1138" on="0"/>
        <pt x="607" y="1109" on="0"/>
        <pt x="595" y="1084" on="0"/>
        <pt x="593" y="1080" on="1"/>
        <pt x="585" y="1065" on="0"/>
        <pt x="548" y="990" on="0"/>
        <pt x="509" y="905" on="0"/>
        <pt x="480" y="829" on="0"/>
        <pt x="480" y="813" on="1"/>
        <pt x="467" y="768" on="0"/>
        <pt x="445" y="677" on="0"/>
        <pt x="440" y="630" on="1"/>
        <pt x="429" y="610" on="0"/>
        <pt x="423" y="567" on="0"/>
        <pt x="423" y="545" on="1"/>
        <pt x="423" y="479" on="1"/>
        <pt x="416" y="374" on="1"/>
        <pt x="447" y="291" on="1"/>
        <pt x="447" y="283" on="0"/>
        <pt x="440" y="269" on="0"/>
        <pt x="440" y="258" on="1"/>
        <pt x="440" y="256" on="0"/>
        <pt x="462" y="233" on="0"/>
        <pt x="495" y="199" on="0"/>
        <pt x="533" y="161" on="0"/>
        <pt x="567" y="128" on="0"/>
        <pt x="591" y="105" on="0"/>
        <pt x="593" y="104" on="1"/>
        <pt x="604" y="97" on="0"/>
        <pt x="633" y="93" on="0"/>
        <pt x="650" y="93" on="1"/>
        <pt x="736" y="93" on="1"/>
        <pt x="745" y="93" on="0"/>
        <pt x="789" y="107" on="0"/>
        <pt x="836" y="126" on="0"/>
        <pt x="875" y="146" on="0"/>
        <pt x="878" y="152" on="1"/>
        <pt x="882" y="159" on="0"/>
        <pt x="903" y="195" on="0"/>
        <pt x="926" y="234" on="0"/>
        <pt x="947" y="270" on="0"/>
        <pt x="951" y="277" on="1"/>
        <pt x="953" y="279" on="0"/>
        <pt x="958" y="287" on="0"/>
        <pt x="958" y="289" on="1"/>
        <pt x="958" y="327" on="1"/>
        <pt x="961" y="339" on="0"/>
        <pt x="975" y="369" on="0"/>
        <pt x="990" y="402" on="0"/>
        <pt x="1001" y="436" on="0"/>
        <pt x="1001" y="450" on="1"/>
        <pt x="1001" y="462" on="0"/>
        <pt x="992" y="495" on="0"/>
        <pt x="976" y="526" on="0"/>
        <pt x="956" y="551" on="0"/>
        <pt x="944" y="555" on="1"/>
        <pt x="932" y="561" on="0"/>
        <pt x="906" y="568" on="0"/>
        <pt x="886" y="578" on="0"/>
        <pt x="873" y="598" on="0"/>
        <pt x="873" y="616" on="1"/>
        <pt x="873" y="626" on="0"/>
        <pt x="889" y="646" on="0"/>
        <pt x="910" y="663" on="0"/>
        <pt x="932" y="675" on="0"/>
        <pt x="937" y="678" on="1"/>
        <pt x="959" y="678" on="0"/>
        <pt x="977" y="670" on="0"/>
        <pt x="990" y="668" on="1"/>
        <pt x="1049" y="668" on="1"/>
        <pt x="1067" y="666" on="0"/>
        <pt x="1099" y="654" on="0"/>
        <pt x="1115" y="654" on="1"/>
        <pt x="1141" y="654" on="0"/>
        <pt x="1188" y="668" on="0"/>
        <pt x="1210" y="668" on="1"/>
        <pt x="1221" y="668" on="0"/>
        <pt x="1267" y="670" on="0"/>
        <pt x="1293" y="670" on="1"/>
        <pt x="1321" y="670" on="0"/>
        <pt x="1367" y="668" on="0"/>
        <pt x="1376" y="668" on="1"/>
        <pt x="1378" y="670" on="0"/>
        <pt x="1387" y="673" on="0"/>
        <pt x="1388" y="673" on="1"/>
        <pt x="1393" y="673" on="0"/>
        <pt x="1408" y="665" on="0"/>
        <pt x="1422" y="653" on="0"/>
        <pt x="1432" y="640" on="0"/>
        <pt x="1432" y="635" on="1"/>
        <pt x="1432" y="631" on="0"/>
        <pt x="1431" y="626" on="0"/>
        <pt x="1426" y="621" on="1"/>
        <pt x="1424" y="620" on="0"/>
        <pt x="1403" y="607" on="0"/>
        <pt x="1379" y="592" on="0"/>
        <pt x="1359" y="578" on="0"/>
        <pt x="1357" y="576" on="1"/>
        <pt x="1352" y="573" on="0"/>
        <pt x="1329" y="553" on="0"/>
        <pt x="1303" y="530" on="0"/>
        <pt x="1282" y="509" on="0"/>
        <pt x="1278" y="505" on="1"/>
        <pt x="1272" y="497" on="0"/>
        <pt x="1256" y="452" on="0"/>
        <pt x="1241" y="401" on="0"/>
        <pt x="1231" y="354" on="0"/>
        <pt x="1231" y="343" on="1"/>
        <pt x="1240" y="272" on="1"/>
        <pt x="1240" y="251" on="0"/>
        <pt x="1221" y="205" on="0"/>
        <pt x="1191" y="161" on="0"/>
        <pt x="1156" y="124" on="0"/>
        <pt x="1141" y="111" on="1"/>
        <pt x="1073" y="86" on="0"/>
        <pt x="941" y="31" on="0"/>
        <pt x="873" y="2" on="1"/>
        <pt x="835" y="0" on="0"/>
        <pt x="767" y="-10" on="0"/>
        <pt x="731" y="-10" on="1"/>
        <pt x="711" y="-10" on="0"/>
        <pt x="676" y="-4" on="0"/>
        <pt x="643" y="3" on="0"/>
        <pt x="611" y="11" on="0"/>
        <pt x="593" y="14" on="1"/>
        <pt x="590" y="14" on="0"/>
        <pt x="569" y="16" on="0"/>
        <pt x="544" y="19" on="0"/>
        <pt x="523" y="23" on="0"/>
        <pt x="520" y="24" on="1"/>
        <pt x="502" y="25" on="0"/>
        <pt x="470" y="40" on="0"/>
        <pt x="438" y="59" on="0"/>
        <pt x="407" y="81" on="0"/>
      </contour>
    </TTGlyph>
    <TTGlyph name="Gbreve" xMin="196" yMin="-10" xMax="1432" yMax="1854">
      <component glyphName="G" x="0" y="0" flags="0x204"/>
      <component glyphName="Breve" x="313" y="0" flags="0x4"/>
    </TTGlyph>
    <TTGlyph name="Gcommaaccent" xMin="196" yMin="-610" xMax="1432" yMax="1465">
      <component glyphName="G" x="0" y="0" flags="0x204"/>
      <component glyphName="commaaccent" x="716" y="0" flags="0x4"/>
    </TTGlyph>
    <TTGlyph name="Grave" xMin="483" yMin="1517" xMax="1029" yMax="1853">
      <contour>
        <pt x="494" y="1735" on="1"/>
        <pt x="483" y="1757" on="0"/>
        <pt x="483" y="1775" on="1"/>
        <pt x="483" y="1798" on="0"/>
        <pt x="512" y="1834" on="0"/>
        <pt x="537" y="1848" on="1"/>
        <pt x="546" y="1853" on="0"/>
        <pt x="562" y="1853" on="1"/>
        <pt x="588" y="1853" on="0"/>
        <pt x="660" y="1828" on="0"/>
        <pt x="728" y="1790" on="0"/>
        <pt x="781" y="1748" on="0"/>
        <pt x="788" y="1731" on="1"/>
        <pt x="799" y="1729" on="0"/>
        <pt x="841" y="1708" on="0"/>
        <pt x="890" y="1677" on="0"/>
        <pt x="942" y="1639" on="0"/>
        <pt x="987" y="1603" on="0"/>
        <pt x="1019" y="1571" on="0"/>
        <pt x="1024" y="1562" on="1"/>
        <pt x="1029" y="1550" on="0"/>
        <pt x="1029" y="1545" on="1"/>
        <pt x="1029" y="1532" on="0"/>
        <pt x="1010" y="1522" on="1"/>
        <pt x="1001" y="1517" on="0"/>
        <pt x="989" y="1517" on="1"/>
        <pt x="977" y="1517" on="0"/>
        <pt x="953" y="1527" on="0"/>
        <pt x="930" y="1541" on="0"/>
        <pt x="908" y="1552" on="0"/>
        <pt x="897" y="1554" on="1"/>
        <pt x="871" y="1558" on="0"/>
        <pt x="852" y="1562" on="0"/>
        <pt x="842" y="1566" on="0"/>
        <pt x="830" y="1575" on="0"/>
        <pt x="812" y="1584" on="1"/>
        <pt x="792" y="1595" on="0"/>
        <pt x="748" y="1609" on="0"/>
        <pt x="703" y="1621" on="0"/>
        <pt x="658" y="1634" on="0"/>
        <pt x="636" y="1643" on="1"/>
        <pt x="634" y="1644" on="0"/>
        <pt x="620" y="1655" on="0"/>
        <pt x="604" y="1667" on="0"/>
        <pt x="589" y="1677" on="0"/>
        <pt x="588" y="1679" on="1"/>
        <pt x="578" y="1685" on="0"/>
        <pt x="551" y="1695" on="0"/>
        <pt x="524" y="1707" on="0"/>
        <pt x="500" y="1723" on="0"/>
      </contour>
    </TTGlyph>
    <TTGlyph name="H" xMin="-51" yMin="-43" xMax="1939" yMax="1408">
      <contour>
        <pt x="-51" y="10" on="1"/>
        <pt x="-51" y="40" on="0"/>
        <pt x="-18" y="68" on="0"/>
        <pt x="29" y="80" on="0"/>
        <pt x="81" y="85" on="0"/>
        <pt x="100" y="93" on="1"/>
        <pt x="113" y="97" on="0"/>
        <pt x="129" y="129" on="0"/>
        <pt x="140" y="168" on="0"/>
        <pt x="148" y="206" on="0"/>
        <pt x="153" y="216" on="1"/>
        <pt x="154" y="217" on="0"/>
        <pt x="163" y="230" on="0"/>
        <pt x="174" y="243" on="0"/>
        <pt x="184" y="255" on="0"/>
        <pt x="186" y="256" on="1"/>
        <pt x="193" y="266" on="0"/>
        <pt x="206" y="297" on="0"/>
        <pt x="216" y="330" on="0"/>
        <pt x="225" y="362" on="0"/>
        <pt x="229" y="374" on="1"/>
        <pt x="230" y="376" on="0"/>
        <pt x="237" y="389" on="0"/>
        <pt x="247" y="405" on="0"/>
        <pt x="256" y="419" on="0"/>
        <pt x="259" y="422" on="1"/>
        <pt x="273" y="457" on="1"/>
        <pt x="273" y="495" on="1"/>
        <pt x="274" y="497" on="0"/>
        <pt x="281" y="509" on="0"/>
        <pt x="288" y="523" on="0"/>
        <pt x="295" y="535" on="0"/>
        <pt x="297" y="536" on="1"/>
        <pt x="315" y="587" on="0"/>
        <pt x="342" y="695" on="0"/>
        <pt x="356" y="749" on="1"/>
        <pt x="365" y="796" on="0"/>
        <pt x="400" y="887" on="0"/>
        <pt x="411" y="934" on="1"/>
        <pt x="414" y="936" on="0"/>
        <pt x="425" y="959" on="0"/>
        <pt x="427" y="965" on="1"/>
        <pt x="441" y="998" on="0"/>
        <pt x="452" y="1061" on="0"/>
        <pt x="463" y="1093" on="1"/>
        <pt x="470" y="1112" on="0"/>
        <pt x="495" y="1146" on="0"/>
        <pt x="519" y="1178" on="0"/>
        <pt x="537" y="1211" on="0"/>
        <pt x="537" y="1230" on="1"/>
        <pt x="537" y="1242" on="0"/>
        <pt x="520" y="1263" on="0"/>
        <pt x="513" y="1270" on="1"/>
        <pt x="511" y="1271" on="0"/>
        <pt x="501" y="1279" on="1"/>
        <pt x="493" y="1286" on="0"/>
        <pt x="459" y="1313" on="0"/>
        <pt x="427" y="1339" on="1"/>
        <pt x="427" y="1358" on="1"/>
        <pt x="427" y="1381" on="0"/>
        <pt x="466" y="1403" on="0"/>
        <pt x="491" y="1403" on="1"/>
        <pt x="506" y="1403" on="0"/>
        <pt x="536" y="1397" on="0"/>
        <pt x="550" y="1393" on="1"/>
        <pt x="580" y="1384" on="0"/>
        <pt x="608" y="1384" on="1"/>
        <pt x="857" y="1384" on="1"/>
        <pt x="860" y="1384" on="0"/>
        <pt x="881" y="1382" on="0"/>
        <pt x="904" y="1380" on="0"/>
        <pt x="925" y="1378" on="0"/>
        <pt x="930" y="1377" on="1"/>
        <pt x="936" y="1374" on="0"/>
        <pt x="945" y="1357" on="0"/>
        <pt x="951" y="1339" on="0"/>
        <pt x="954" y="1322" on="0"/>
        <pt x="954" y="1318" on="1"/>
        <pt x="950" y="1307" on="0"/>
        <pt x="934" y="1292" on="0"/>
        <pt x="923" y="1287" on="1"/>
        <pt x="821" y="1280" on="1"/>
        <pt x="807" y="1277" on="0"/>
        <pt x="782" y="1260" on="0"/>
        <pt x="760" y="1238" on="0"/>
        <pt x="742" y="1216" on="0"/>
        <pt x="736" y="1209" on="1"/>
        <pt x="734" y="1207" on="0"/>
        <pt x="724" y="1189" on="0"/>
        <pt x="724" y="1187" on="1"/>
        <pt x="724" y="1185" on="0"/>
        <pt x="723" y="1171" on="0"/>
        <pt x="721" y="1153" on="0"/>
        <pt x="720" y="1136" on="0"/>
        <pt x="719" y="1133" on="1"/>
        <pt x="718" y="1132" on="0"/>
        <pt x="710" y="1125" on="0"/>
        <pt x="701" y="1117" on="0"/>
        <pt x="694" y="1111" on="0"/>
        <pt x="693" y="1111" on="1"/>
        <pt x="680" y="1094" on="0"/>
        <pt x="678" y="1048" on="0"/>
        <pt x="674" y="1029" on="1"/>
        <pt x="671" y="1015" on="0"/>
        <pt x="665" y="1002" on="0"/>
        <pt x="658" y="994" on="0"/>
        <pt x="648" y="984" on="0"/>
        <pt x="641" y="972" on="1"/>
        <pt x="634" y="962" on="0"/>
        <pt x="613" y="910" on="0"/>
        <pt x="594" y="851" on="0"/>
        <pt x="581" y="797" on="0"/>
        <pt x="581" y="784" on="1"/>
        <pt x="582" y="749" on="1"/>
        <pt x="599" y="736" on="0"/>
        <pt x="629" y="730" on="0"/>
        <pt x="650" y="730" on="1"/>
        <pt x="728" y="737" on="1"/>
        <pt x="783" y="732" on="1"/>
        <pt x="863" y="746" on="1"/>
        <pt x="890" y="746" on="1"/>
        <pt x="895" y="734" on="0"/>
        <pt x="929" y="730" on="0"/>
        <pt x="941" y="730" on="1"/>
        <pt x="960" y="730" on="0"/>
        <pt x="993" y="742" on="0"/>
        <pt x="1023" y="757" on="0"/>
        <pt x="1052" y="770" on="0"/>
        <pt x="1069" y="770" on="1"/>
        <pt x="1135" y="770" on="0"/>
        <pt x="1263" y="749" on="0"/>
        <pt x="1326" y="749" on="1"/>
        <pt x="1350" y="749" on="0"/>
        <pt x="1384" y="778" on="0"/>
        <pt x="1409" y="820" on="0"/>
        <pt x="1428" y="866" on="0"/>
        <pt x="1437" y="884" on="1"/>
        <pt x="1438" y="885" on="0"/>
        <pt x="1445" y="895" on="0"/>
        <pt x="1454" y="907" on="0"/>
        <pt x="1461" y="918" on="0"/>
        <pt x="1461" y="920" on="1"/>
        <pt x="1464" y="923" on="0"/>
        <pt x="1465" y="928" on="0"/>
        <pt x="1465" y="932" on="1"/>
        <pt x="1465" y="942" on="0"/>
        <pt x="1461" y="963" on="0"/>
        <pt x="1461" y="965" on="1"/>
        <pt x="1469" y="994" on="0"/>
        <pt x="1489" y="1044" on="0"/>
        <pt x="1494" y="1071" on="1"/>
        <pt x="1494" y="1111" on="1"/>
        <pt x="1510" y="1128" on="1"/>
        <pt x="1523" y="1154" on="0"/>
        <pt x="1534" y="1221" on="0"/>
        <pt x="1534" y="1251" on="1"/>
        <pt x="1534" y="1275" on="0"/>
        <pt x="1506" y="1296" on="0"/>
        <pt x="1464" y="1303" on="0"/>
        <pt x="1415" y="1303" on="0"/>
        <pt x="1373" y="1312" on="0"/>
        <pt x="1345" y="1337" on="0"/>
        <pt x="1345" y="1365" on="1"/>
        <pt x="1345" y="1372" on="0"/>
        <pt x="1359" y="1387" on="0"/>
        <pt x="1380" y="1400" on="0"/>
        <pt x="1403" y="1408" on="0"/>
        <pt x="1411" y="1408" on="1"/>
        <pt x="1413" y="1408" on="1"/>
        <pt x="1414" y="1408" on="0"/>
        <pt x="1426" y="1406" on="0"/>
        <pt x="1441" y="1403" on="0"/>
        <pt x="1456" y="1399" on="0"/>
        <pt x="1461" y="1398" on="1"/>
        <pt x="1464" y="1398" on="0"/>
        <pt x="1477" y="1394" on="0"/>
        <pt x="1490" y="1388" on="0"/>
        <pt x="1502" y="1384" on="0"/>
        <pt x="1504" y="1384" on="1"/>
        <pt x="1507" y="1384" on="0"/>
        <pt x="1525" y="1389" on="0"/>
        <pt x="1527" y="1389" on="1"/>
        <pt x="1546" y="1389" on="1"/>
        <pt x="1596" y="1384" on="1"/>
        <pt x="1608" y="1384" on="1"/>
        <pt x="1658" y="1389" on="1"/>
        <pt x="1693" y="1384" on="1"/>
        <pt x="1842" y="1384" on="1"/>
        <pt x="1846" y="1384" on="0"/>
        <pt x="1866" y="1382" on="0"/>
        <pt x="1887" y="1380" on="0"/>
        <pt x="1905" y="1378" on="0"/>
        <pt x="1908" y="1377" on="1"/>
        <pt x="1916" y="1375" on="0"/>
        <pt x="1939" y="1353" on="0"/>
        <pt x="1939" y="1344" on="1"/>
        <pt x="1939" y="1334" on="0"/>
        <pt x="1914" y="1316" on="0"/>
        <pt x="1875" y="1298" on="0"/>
        <pt x="1831" y="1280" on="0"/>
        <pt x="1792" y="1259" on="0"/>
        <pt x="1767" y="1236" on="0"/>
        <pt x="1767" y="1223" on="1"/>
        <pt x="1767" y="1221" on="0"/>
        <pt x="1768" y="1217" on="0"/>
        <pt x="1771" y="1214" on="1"/>
        <pt x="1768" y="1212" on="0"/>
        <pt x="1755" y="1197" on="0"/>
        <pt x="1743" y="1179" on="0"/>
        <pt x="1732" y="1164" on="0"/>
        <pt x="1731" y="1161" on="1"/>
        <pt x="1726" y="1128" on="1"/>
        <pt x="1723" y="1123" on="0"/>
        <pt x="1712" y="1117" on="0"/>
        <pt x="1701" y="1111" on="0"/>
        <pt x="1693" y="1102" on="0"/>
        <pt x="1693" y="1093" on="1"/>
        <pt x="1694" y="1090" on="0"/>
        <pt x="1695" y="1086" on="1"/>
        <pt x="1696" y="1083" on="0"/>
        <pt x="1697" y="1075" on="0"/>
        <pt x="1698" y="1071" on="1"/>
        <pt x="1698" y="1057" on="0"/>
        <pt x="1682" y="1042" on="0"/>
        <pt x="1677" y="1029" on="1"/>
        <pt x="1673" y="1014" on="0"/>
        <pt x="1671" y="993" on="0"/>
        <pt x="1666" y="975" on="0"/>
        <pt x="1653" y="958" on="0"/>
        <pt x="1638" y="948" on="1"/>
        <pt x="1635" y="919" on="0"/>
        <pt x="1622" y="878" on="0"/>
        <pt x="1606" y="842" on="0"/>
        <pt x="1588" y="806" on="0"/>
        <pt x="1579" y="782" on="1"/>
        <pt x="1579" y="780" on="0"/>
        <pt x="1578" y="770" on="0"/>
        <pt x="1576" y="758" on="0"/>
        <pt x="1574" y="748" on="0"/>
        <pt x="1574" y="746" on="1"/>
        <pt x="1572" y="718" on="0"/>
        <pt x="1561" y="655" on="0"/>
        <pt x="1553" y="626" on="1"/>
        <pt x="1551" y="622" on="0"/>
        <pt x="1549" y="617" on="0"/>
        <pt x="1549" y="614" on="1"/>
        <pt x="1538" y="584" on="0"/>
        <pt x="1505" y="534" on="0"/>
        <pt x="1494" y="502" on="1"/>
        <pt x="1491" y="486" on="0"/>
        <pt x="1482" y="439" on="0"/>
        <pt x="1473" y="390" on="0"/>
        <pt x="1462" y="346" on="0"/>
        <pt x="1456" y="334" on="1"/>
        <pt x="1413" y="242" on="1"/>
        <pt x="1406" y="190" on="1"/>
        <pt x="1385" y="149" on="1"/>
        <pt x="1385" y="126" on="0"/>
        <pt x="1410" y="99" on="0"/>
        <pt x="1427" y="99" on="1"/>
        <pt x="1441" y="99" on="0"/>
        <pt x="1460" y="111" on="0"/>
        <pt x="1473" y="111" on="1"/>
        <pt x="1480" y="111" on="0"/>
        <pt x="1504" y="107" on="0"/>
        <pt x="1526" y="97" on="0"/>
        <pt x="1543" y="82" on="0"/>
        <pt x="1543" y="71" on="1"/>
        <pt x="1543" y="52" on="0"/>
        <pt x="1518" y="32" on="0"/>
        <pt x="1483" y="23" on="0"/>
        <pt x="1444" y="21" on="0"/>
        <pt x="1430" y="21" on="1"/>
        <pt x="1335" y="28" on="1"/>
        <pt x="1077" y="12" on="1"/>
        <pt x="989" y="12" on="1"/>
        <pt x="978" y="17" on="0"/>
        <pt x="961" y="31" on="0"/>
        <pt x="961" y="40" on="1"/>
        <pt x="961" y="56" on="0"/>
        <pt x="977" y="78" on="0"/>
        <pt x="1001" y="93" on="0"/>
        <pt x="1027" y="105" on="0"/>
        <pt x="1037" y="111" on="1"/>
        <pt x="1119" y="111" on="1"/>
        <pt x="1120" y="111" on="0"/>
        <pt x="1129" y="118" on="0"/>
        <pt x="1131" y="119" on="1"/>
        <pt x="1132" y="120" on="0"/>
        <pt x="1141" y="127" on="0"/>
        <pt x="1153" y="137" on="0"/>
        <pt x="1166" y="148" on="0"/>
        <pt x="1169" y="151" on="1"/>
        <pt x="1192" y="203" on="0"/>
        <pt x="1238" y="298" on="0"/>
        <pt x="1255" y="348" on="1"/>
        <pt x="1279" y="411" on="0"/>
        <pt x="1320" y="535" on="0"/>
        <pt x="1352" y="595" on="1"/>
        <pt x="1352" y="611" on="0"/>
        <pt x="1330" y="637" on="0"/>
        <pt x="1298" y="657" on="0"/>
        <pt x="1265" y="668" on="0"/>
        <pt x="1254" y="668" on="1"/>
        <pt x="1246" y="666" on="0"/>
        <pt x="1204" y="660" on="0"/>
        <pt x="1156" y="653" on="0"/>
        <pt x="1112" y="646" on="0"/>
        <pt x="1103" y="645" on="1"/>
        <pt x="1099" y="640" on="0"/>
        <pt x="1086" y="638" on="0"/>
        <pt x="1077" y="638" on="1"/>
        <pt x="1059" y="638" on="0"/>
        <pt x="1018" y="654" on="0"/>
        <pt x="996" y="654" on="1"/>
        <pt x="990" y="652" on="0"/>
        <pt x="961" y="646" on="0"/>
        <pt x="931" y="638" on="0"/>
        <pt x="905" y="633" on="0"/>
        <pt x="901" y="633" on="1"/>
        <pt x="898" y="633" on="0"/>
        <pt x="870" y="638" on="0"/>
        <pt x="837" y="646" on="0"/>
        <pt x="809" y="652" on="0"/>
        <pt x="806" y="654" on="1"/>
        <pt x="724" y="654" on="1"/>
        <pt x="712" y="652" on="0"/>
        <pt x="663" y="650" on="0"/>
        <pt x="611" y="645" on="0"/>
        <pt x="565" y="636" on="0"/>
        <pt x="556" y="628" on="1"/>
        <pt x="548" y="614" on="1"/>
        <pt x="541" y="589" on="0"/>
        <pt x="508" y="551" on="0"/>
        <pt x="498" y="531" on="1"/>
        <pt x="490" y="511" on="0"/>
        <pt x="478" y="467" on="0"/>
        <pt x="464" y="424" on="0"/>
        <pt x="445" y="382" on="0"/>
        <pt x="432" y="363" on="1"/>
        <pt x="404" y="216" on="1"/>
        <pt x="399" y="212" on="0"/>
        <pt x="391" y="196" on="0"/>
        <pt x="385" y="177" on="0"/>
        <pt x="382" y="158" on="0"/>
        <pt x="382" y="151" on="1"/>
        <pt x="382" y="129" on="0"/>
        <pt x="408" y="106" on="0"/>
        <pt x="448" y="94" on="0"/>
        <pt x="494" y="88" on="0"/>
        <pt x="534" y="75" on="0"/>
        <pt x="560" y="51" on="0"/>
        <pt x="560" y="28" on="1"/>
        <pt x="560" y="10" on="0"/>
        <pt x="545" y="-9" on="0"/>
        <pt x="521" y="-19" on="0"/>
        <pt x="492" y="-21" on="0"/>
        <pt x="479" y="-21" on="1"/>
        <pt x="456" y="-21" on="0"/>
        <pt x="424" y="-5" on="0"/>
        <pt x="404" y="0" on="1"/>
        <pt x="290" y="0" on="1"/>
        <pt x="259" y="-10" on="1"/>
        <pt x="108" y="-26" on="1"/>
        <pt x="88" y="-28" on="0"/>
        <pt x="59" y="-43" on="0"/>
        <pt x="41" y="-43" on="1"/>
        <pt x="27" y="-43" on="0"/>
        <pt x="-6" y="-39" on="0"/>
        <pt x="-33" y="-28" on="0"/>
        <pt x="-51" y="-7" on="0"/>
      </contour>
    </TTGlyph>
    <TTGlyph name="Hungarumlaut" xMin="907" yMin="1487" xMax="1673" yMax="1854">
      <contour>
        <pt x="909" y="1570" on="1"/>
        <pt x="914" y="1591" on="0"/>
        <pt x="939" y="1609" on="0"/>
        <pt x="971" y="1620" on="0"/>
        <pt x="1005" y="1630" on="0"/>
        <pt x="1019" y="1642" on="1"/>
        <pt x="1038" y="1656" on="0"/>
        <pt x="1059" y="1683" on="0"/>
        <pt x="1079" y="1697" on="1"/>
        <pt x="1105" y="1718" on="0"/>
        <pt x="1163" y="1755" on="0"/>
        <pt x="1188" y="1776" on="1"/>
        <pt x="1209" y="1791" on="0"/>
        <pt x="1234" y="1820" on="0"/>
        <pt x="1256" y="1841" on="0"/>
        <pt x="1281" y="1854" on="0"/>
        <pt x="1302" y="1854" on="1"/>
        <pt x="1307" y="1854" on="0"/>
        <pt x="1319" y="1853" on="0"/>
        <pt x="1326" y="1852" on="1"/>
        <pt x="1328" y="1854" on="0"/>
        <pt x="1332" y="1854" on="1"/>
        <pt x="1334" y="1854" on="0"/>
        <pt x="1336" y="1853" on="1"/>
        <pt x="1340" y="1852" on="0"/>
        <pt x="1349" y="1850" on="0"/>
        <pt x="1354" y="1845" on="1"/>
        <pt x="1365" y="1838" on="0"/>
        <pt x="1365" y="1820" on="1"/>
        <pt x="1365" y="1814" on="0"/>
        <pt x="1363" y="1804" on="1"/>
        <pt x="1362" y="1799" on="0"/>
        <pt x="1359" y="1788" on="0"/>
        <pt x="1356" y="1781" on="1"/>
        <pt x="1352" y="1762" on="0"/>
        <pt x="1328" y="1729" on="0"/>
        <pt x="1298" y="1700" on="0"/>
        <pt x="1266" y="1672" on="0"/>
        <pt x="1254" y="1658" on="1"/>
        <pt x="1250" y="1649" on="0"/>
        <pt x="1246" y="1643" on="1"/>
        <pt x="1243" y="1637" on="0"/>
        <pt x="1237" y="1628" on="0"/>
        <pt x="1235" y="1628" on="1"/>
        <pt x="1234" y="1625" on="0"/>
        <pt x="1225" y="1620" on="0"/>
        <pt x="1214" y="1615" on="0"/>
        <pt x="1206" y="1612" on="0"/>
        <pt x="1205" y="1611" on="1"/>
        <pt x="1188" y="1601" on="0"/>
        <pt x="1158" y="1565" on="0"/>
        <pt x="1139" y="1552" on="1"/>
        <pt x="1120" y="1539" on="0"/>
        <pt x="1090" y="1530" on="0"/>
        <pt x="1064" y="1526" on="0"/>
        <pt x="1038" y="1521" on="0"/>
        <pt x="1024" y="1513" on="1"/>
        <pt x="1023" y="1512" on="0"/>
        <pt x="1013" y="1504" on="0"/>
        <pt x="1000" y="1495" on="0"/>
        <pt x="988" y="1487" on="0"/>
        <pt x="985" y="1487" on="1"/>
        <pt x="979" y="1487" on="0"/>
        <pt x="975" y="1488" on="1"/>
        <pt x="966" y="1488" on="0"/>
        <pt x="960" y="1490" on="1"/>
        <pt x="936" y="1495" on="0"/>
        <pt x="907" y="1532" on="0"/>
        <pt x="907" y="1555" on="1"/>
        <pt x="907" y="1560" on="0"/>
      </contour>
      <contour>
        <pt x="1217" y="1570" on="1"/>
        <pt x="1222" y="1591" on="0"/>
        <pt x="1247" y="1609" on="0"/>
        <pt x="1279" y="1620" on="0"/>
        <pt x="1313" y="1630" on="0"/>
        <pt x="1327" y="1642" on="1"/>
        <pt x="1346" y="1656" on="0"/>
        <pt x="1367" y="1683" on="0"/>
        <pt x="1387" y="1697" on="1"/>
        <pt x="1413" y="1718" on="0"/>
        <pt x="1471" y="1755" on="0"/>
        <pt x="1496" y="1776" on="1"/>
        <pt x="1517" y="1791" on="0"/>
        <pt x="1542" y="1820" on="0"/>
        <pt x="1564" y="1841" on="0"/>
        <pt x="1589" y="1854" on="0"/>
        <pt x="1610" y="1854" on="1"/>
        <pt x="1615" y="1854" on="0"/>
        <pt x="1627" y="1853" on="0"/>
        <pt x="1634" y="1852" on="1"/>
        <pt x="1636" y="1854" on="0"/>
        <pt x="1640" y="1854" on="1"/>
        <pt x="1642" y="1854" on="0"/>
        <pt x="1644" y="1853" on="1"/>
        <pt x="1648" y="1852" on="0"/>
        <pt x="1657" y="1850" on="0"/>
        <pt x="1662" y="1845" on="1"/>
        <pt x="1673" y="1838" on="0"/>
        <pt x="1673" y="1820" on="1"/>
        <pt x="1673" y="1814" on="0"/>
        <pt x="1671" y="1804" on="1"/>
        <pt x="1670" y="1799" on="0"/>
        <pt x="1667" y="1788" on="0"/>
        <pt x="1664" y="1781" on="1"/>
        <pt x="1660" y="1762" on="0"/>
        <pt x="1636" y="1729" on="0"/>
        <pt x="1606" y="1700" on="0"/>
        <pt x="1574" y="1672" on="0"/>
        <pt x="1562" y="1658" on="1"/>
        <pt x="1558" y="1649" on="0"/>
        <pt x="1554" y="1643" on="1"/>
        <pt x="1551" y="1637" on="0"/>
        <pt x="1545" y="1628" on="0"/>
        <pt x="1543" y="1628" on="1"/>
        <pt x="1542" y="1625" on="0"/>
        <pt x="1533" y="1620" on="0"/>
        <pt x="1522" y="1615" on="0"/>
        <pt x="1514" y="1612" on="0"/>
        <pt x="1513" y="1611" on="1"/>
        <pt x="1496" y="1601" on="0"/>
        <pt x="1466" y="1565" on="0"/>
        <pt x="1447" y="1552" on="1"/>
        <pt x="1428" y="1539" on="0"/>
        <pt x="1398" y="1530" on="0"/>
        <pt x="1372" y="1526" on="0"/>
        <pt x="1346" y="1521" on="0"/>
        <pt x="1332" y="1513" on="1"/>
        <pt x="1331" y="1512" on="0"/>
        <pt x="1321" y="1504" on="0"/>
        <pt x="1308" y="1495" on="0"/>
        <pt x="1296" y="1487" on="0"/>
        <pt x="1293" y="1487" on="1"/>
        <pt x="1287" y="1487" on="0"/>
        <pt x="1283" y="1488" on="1"/>
        <pt x="1274" y="1488" on="0"/>
        <pt x="1268" y="1490" on="1"/>
        <pt x="1244" y="1495" on="0"/>
        <pt x="1215" y="1532" on="0"/>
        <pt x="1215" y="1555" on="1"/>
        <pt x="1215" y="1560" on="0"/>
      </contour>
    </TTGlyph>
</ttFont>
